SplineFontDB: 3.0
FontName: GentiumBookBasic-Italic
FullName: Gentium Book Basic Italic
FamilyName: Gentium Book Basic
Weight: Book
Copyright: Copyright (c) SIL International, 2003-2008.
Version: 1.100
ItalicAngle: -8
UnderlinePosition: -200
UnderlineWidth: 100
Ascent: 1638
Descent: 410
sfntRevision: 0x00011999
LayerCount: 2
Layer: 0 1 "Back"  1
Layer: 1 1 "Fore"  0
XUID: [1021 288 713564382 11236010]
FSType: 0
OS2Version: 3
OS2_WeightWidthSlopeOnly: 0
OS2_UseTypoMetrics: 1
CreationTime: 1207161373
ModificationTime: 1309535442
PfmFamily: 17
TTFWeight: 400
TTFWidth: 5
LineGap: 0
VLineGap: 0
Panose: 2 0 6 6 8 0 0 2 0 4
OS2TypoAscent: 2219
OS2TypoAOffset: 0
OS2TypoDescent: -735
OS2TypoDOffset: 0
OS2TypoLinegap: 0
OS2WinAscent: 2219
OS2WinAOffset: 0
OS2WinDescent: 735
OS2WinDOffset: 0
HheadAscent: 2219
HheadAOffset: 0
HheadDescent: -735
HheadDOffset: 0
OS2SubXSize: 856
OS2SubYSize: 856
OS2SubXOff: 0
OS2SubYOff: 1200
OS2SupXSize: 856
OS2SupYSize: 856
OS2SupXOff: 0
OS2SupYOff: 1200
OS2StrikeYSize: 100
OS2StrikeYPos: 500
OS2Vendor: 'SIL '
OS2CodePages: 20000013.00000000
OS2UnicodeRanges: a000007f.4000204a.00000000.00000000
Lookup: 5 0 0 "'ccmp' Glyph Composition/Decomposition lookup 0"  {"'ccmp' Glyph Composition/Decomposition lookup 0 subtable"  } ['ccmp' ('cyrl' <'dflt' > 'latn' <'IPA ' 'VIT ' 'dflt' > ) ]
Lookup: 1 0 0 "Single Substitution lookup 1"  {"Single Substitution lookup 1 subtable"  } []
Lookup: 2 0 0 "Multiple Substitution lookup 2"  {"Multiple Substitution lookup 2 subtable"  } []
Lookup: 4 0 0 "'ccmp' Glyph Composition/Decomposition lookup 3"  {"'ccmp' Glyph Composition/Decomposition lookup 3 subtable"  } ['ccmp' ('cyrl' <'dflt' > 'latn' <'IPA ' 'VIT ' 'dflt' > ) ]
Lookup: 4 256 0 "'ccmp' Glyph Composition/Decomposition in Latin lookup 4"  {"'ccmp' Glyph Composition/Decomposition in Latin lookup 4 subtable"  } ['ccmp' ('latn' <'VIT ' > ) ]

StartChar: .notdef
Encoding: 65536 -1 0
Width: 1400
Flags: W
LayerCount: 2
Fore
SplineSet
150 50 m 1,0,-1
 1250 50 l 1,1,-1
 1250 1750 l 1,2,-1
 150 1750 l 1,3,-1
 150 50 l 1,0,-1
100 1800 m 1,4,-1
 1300 1800 l 1,5,-1
 1300 0 l 1,6,-1
 100 0 l 1,7,-1
 100 1800 l 1,4,-1
EndSplineSet
EndChar

StartChar: exclam
Encoding: 33 33 4
Width: 433
Flags: W
LayerCount: 2
Fore
SplineSet
306 157 m 0,0,1
 306 125 306 125 295 92 c 128,-1,2
 284 59 284 59 263 31.5 c 128,-1,3
 242 4 242 4 212 -13.5 c 128,-1,4
 182 -31 182 -31 145 -31 c 0,5,6
 97 -31 97 -31 73 -2.5 c 128,-1,7
 49 26 49 26 49 73 c 0,8,9
 49 103 49 103 61 135.5 c 128,-1,10
 73 168 73 168 94.5 194.5 c 128,-1,11
 116 221 116 221 146 238.5 c 128,-1,12
 176 256 176 256 211 256 c 0,13,14
 256 256 256 256 281 228.5 c 128,-1,15
 306 201 306 201 306 157 c 0,0,1
267 397 m 1,16,17
 247 383 247 383 227.5 373 c 128,-1,18
 208 363 208 363 183 355 c 1,19,-1
 159 376 l 1,20,-1
 234 1334 l 1,21,22
 250 1345 250 1345 275 1360 c 128,-1,23
 300 1375 300 1375 327.5 1390 c 128,-1,24
 355 1405 355 1405 381.5 1417.5 c 128,-1,25
 408 1430 408 1430 429 1436 c 1,26,-1
 467 1409 l 1,27,-1
 267 397 l 1,16,17
EndSplineSet
EndChar

StartChar: quotedbl
Encoding: 34 34 5
Width: 824
Flags: W
LayerCount: 2
Fore
SplineSet
314 868 m 1,0,1
 297 859 297 859 274.5 855 c 128,-1,2
 252 851 252 851 230 851 c 1,3,-1
 251 1372 l 1,4,5
 263 1378 263 1378 284 1387 c 128,-1,6
 305 1396 305 1396 328 1404.5 c 128,-1,7
 351 1413 351 1413 371.5 1420 c 128,-1,8
 392 1427 392 1427 402 1430 c 1,9,-1
 442 1407 l 1,10,-1
 314 868 l 1,0,1
656 868 m 1,11,12
 640 859 640 859 617 855 c 128,-1,13
 594 851 594 851 572 851 c 1,14,-1
 593 1372 l 1,15,16
 605 1378 605 1378 626 1387 c 128,-1,17
 647 1396 647 1396 670 1404.5 c 128,-1,18
 693 1413 693 1413 713.5 1420 c 128,-1,19
 734 1427 734 1427 744 1430 c 1,20,-1
 783 1407 l 1,21,-1
 656 868 l 1,11,12
EndSplineSet
EndChar

StartChar: numbersign
Encoding: 35 35 6
Width: 859
Flags: W
LayerCount: 2
Fore
SplineSet
794 966 m 1,0,-1
 935 966 l 1,1,-1
 955 941 l 1,2,3
 951 930 951 930 945 916 c 128,-1,4
 939 902 939 902 932 888 c 128,-1,5
 925 874 925 874 918.5 861.5 c 128,-1,6
 912 849 912 849 908 841 c 1,7,-1
 746 841 l 1,8,-1
 653 595 l 1,9,-1
 798 595 l 1,10,-1
 817 568 l 1,11,12
 813 558 813 558 807 545 c 128,-1,13
 801 532 801 532 795 518 c 128,-1,14
 789 504 789 504 782.5 491.5 c 128,-1,15
 776 479 776 479 772 470 c 1,16,-1
 605 470 l 1,17,-1
 492 170 l 1,18,19
 474 156 474 156 446.5 146 c 128,-1,20
 419 136 419 136 393 127 c 1,21,-1
 372 147 l 1,22,-1
 494 470 l 1,23,-1
 322 470 l 1,24,-1
 209 170 l 1,25,26
 190 156 190 156 163 146 c 128,-1,27
 136 136 136 136 110 127 c 1,28,-1
 87 147 l 1,29,-1
 209 470 l 1,30,-1
 69 470 l 1,31,-1
 51 495 l 1,32,33
 55 505 55 505 60.5 518 c 128,-1,34
 66 531 66 531 72 544 c 2,35,-1
 85 571 l 2,36,37
 92 585 92 585 98 595 c 1,38,-1
 257 595 l 1,39,-1
 350 841 l 1,40,-1
 207 841 l 1,41,-1
 188 865 l 1,42,43
 196 887 196 887 210 916.5 c 128,-1,44
 224 946 224 946 235 966 c 1,45,-1
 398 966 l 1,46,-1
 506 1251 l 1,47,48
 527 1267 527 1267 554 1275 c 128,-1,49
 581 1283 581 1283 603 1292 c 1,50,-1
 625 1270 l 1,51,-1
 510 966 l 1,52,-1
 681 966 l 1,53,-1
 789 1251 l 1,54,55
 811 1267 811 1267 838 1275 c 128,-1,56
 865 1283 865 1283 886 1292 c 1,57,-1
 909 1270 l 1,58,-1
 794 966 l 1,0,-1
369 595 m 1,59,-1
 541 595 l 1,60,-1
 634 841 l 1,61,-1
 462 841 l 1,62,-1
 369 595 l 1,59,-1
EndSplineSet
EndChar

StartChar: dollar
Encoding: 36 36 7
Width: 859
Flags: W
LayerCount: 2
Fore
SplineSet
831 1144 m 0,0,1
 837 1140 837 1140 825.5 1116.5 c 128,-1,2
 814 1093 814 1093 796 1065.5 c 128,-1,3
 778 1038 778 1038 759 1014 c 128,-1,4
 740 990 740 990 731 984 c 1,5,-1
 693 990 l 1,6,7
 672 1030 672 1030 636.5 1064 c 128,-1,8
 601 1098 601 1098 554 1114 c 1,9,-1
 500 734 l 1,10,11
 570 699 570 699 621.5 665.5 c 128,-1,12
 673 632 673 632 707 595 c 128,-1,13
 741 558 741 558 757.5 515 c 128,-1,14
 774 472 774 472 774 418 c 0,15,16
 774 341 774 341 746.5 270.5 c 128,-1,17
 719 200 719 200 668.5 141.5 c 128,-1,18
 618 83 618 83 548 41.5 c 128,-1,19
 478 0 478 0 394 -18 c 1,20,-1
 378 -136 l 1,21,22
 360 -151 360 -151 345.5 -158 c 128,-1,23
 331 -165 331 -165 307 -171 c 1,24,-1
 284 -147 l 1,25,-1
 300 -30 l 1,26,27
 295 -31 295 -31 289 -31 c 2,28,-1
 277 -31 l 2,29,30
 238 -31 238 -31 187.5 -17.5 c 128,-1,31
 137 -4 137 -4 92 17 c 128,-1,32
 47 38 47 38 16.5 64 c 128,-1,33
 -14 90 -14 90 -14 116 c 0,34,35
 -14 129 -14 129 -1.5 155 c 128,-1,36
 11 181 11 181 28.5 207.5 c 128,-1,37
 46 234 46 234 65.5 254 c 128,-1,38
 85 274 85 274 99 274 c 0,39,40
 110 274 110 274 126 250 c 128,-1,41
 142 226 142 226 167.5 195 c 128,-1,42
 193 164 193 164 229.5 136 c 128,-1,43
 266 108 266 108 319 100 c 1,44,-1
 388 591 l 1,45,-1
 360 604 l 1,46,47
 234 661 234 661 180 732 c 128,-1,48
 126 803 126 803 126 883 c 0,49,50
 126 939 126 939 149.5 994.5 c 128,-1,51
 173 1050 173 1050 218 1096.5 c 128,-1,52
 263 1143 263 1143 328.5 1177 c 128,-1,53
 394 1211 394 1211 478 1224 c 1,54,-1
 494 1338 l 1,55,56
 507 1346 507 1346 514.5 1351 c 128,-1,57
 522 1356 522 1356 528 1359.5 c 128,-1,58
 534 1363 534 1363 541.5 1366.5 c 128,-1,59
 549 1370 549 1370 562 1374 c 1,60,-1
 587 1349 l 1,61,-1
 570 1231 l 1,62,-1
 572 1231 l 2,63,64
 648 1231 648 1231 715.5 1205 c 128,-1,65
 783 1179 783 1179 831 1144 c 0,0,1
624 343 m 0,66,67
 624 403 624 403 589.5 450.5 c 128,-1,68
 555 498 555 498 474 546 c 1,69,-1
 411 103 l 1,70,71
 457 112 457 112 496.5 133 c 128,-1,72
 536 154 536 154 564 185.5 c 128,-1,73
 592 217 592 217 608 257 c 128,-1,74
 624 297 624 297 624 343 c 0,66,67
269 950 m 0,75,76
 269 930 269 930 275 909.5 c 128,-1,77
 281 889 281 889 297.5 868 c 128,-1,78
 314 847 314 847 342 824.5 c 128,-1,79
 370 802 370 802 415 777 c 1,80,-1
 464 1125 l 1,81,82
 420 1121 420 1121 384 1104.5 c 128,-1,83
 348 1088 348 1088 322.5 1063.5 c 128,-1,84
 297 1039 297 1039 283 1009.5 c 128,-1,85
 269 980 269 980 269 950 c 0,75,76
EndSplineSet
EndChar

StartChar: percent
Encoding: 37 37 8
Width: 1339
Flags: W
LayerCount: 2
Fore
SplineSet
1089 397 m 0,0,1
 1089 486 1089 486 1061 527.5 c 128,-1,2
 1033 569 1033 569 993 569 c 0,3,4
 962 569 962 569 939 549.5 c 128,-1,5
 916 530 916 530 899 498 c 128,-1,6
 882 466 882 466 871 426.5 c 128,-1,7
 860 387 860 387 853.5 347 c 128,-1,8
 847 307 847 307 844 270.5 c 128,-1,9
 841 234 841 234 841 209 c 0,10,11
 841 127 841 127 867 88 c 128,-1,12
 893 49 893 49 939 49 c 0,13,14
 967 49 967 49 989 67 c 128,-1,15
 1011 85 1011 85 1027.5 114.5 c 128,-1,16
 1044 144 1044 144 1056 181 c 128,-1,17
 1068 218 1068 218 1075 257 c 128,-1,18
 1082 296 1082 296 1085.5 332.5 c 128,-1,19
 1089 369 1089 369 1089 397 c 0,0,1
1244 385 m 0,20,21
 1244 316 1244 316 1220 242 c 128,-1,22
 1196 168 1196 168 1152 107.5 c 128,-1,23
 1108 47 1108 47 1044.5 8 c 128,-1,24
 981 -31 981 -31 903 -31 c 0,25,26
 853 -31 853 -31 813 -10.5 c 128,-1,27
 773 10 773 10 744.5 46 c 128,-1,28
 716 82 716 82 700.5 130.5 c 128,-1,29
 685 179 685 179 685 235 c 0,30,31
 685 304 685 304 709 377 c 128,-1,32
 733 450 733 450 778 510 c 128,-1,33
 823 570 823 570 886.5 609 c 128,-1,34
 950 648 950 648 1028 648 c 0,35,36
 1077 648 1077 648 1117 628.5 c 128,-1,37
 1157 609 1157 609 1185.5 574 c 128,-1,38
 1214 539 1214 539 1229 490.5 c 128,-1,39
 1244 442 1244 442 1244 385 c 0,20,21
260 13 m 1,40,41
 249 6 249 6 231.5 -0.5 c 128,-1,42
 214 -7 214 -7 194 -13.5 c 128,-1,43
 174 -20 174 -20 155 -25 c 128,-1,44
 136 -30 136 -30 124 -34 c 1,45,-1
 105 0 l 1,46,-1
 1085 1192 l 1,47,48
 1098 1199 1098 1199 1115.5 1205.5 c 128,-1,49
 1133 1212 1133 1212 1151 1218 c 128,-1,50
 1169 1224 1169 1224 1186.5 1229 c 128,-1,51
 1204 1234 1204 1234 1217 1237 c 1,52,-1
 1241 1205 l 1,53,-1
 260 13 l 1,40,41
506 985 m 0,54,55
 506 1075 506 1075 477.5 1115.5 c 128,-1,56
 449 1156 449 1156 407 1156 c 0,57,58
 376 1156 376 1156 353 1136.5 c 128,-1,59
 330 1117 330 1117 313.5 1085.5 c 128,-1,60
 297 1054 297 1054 286 1014 c 128,-1,61
 275 974 275 974 268 934.5 c 128,-1,62
 261 895 261 895 258.5 858.5 c 128,-1,63
 256 822 256 822 256 797 c 0,64,65
 256 714 256 714 283 675.5 c 128,-1,66
 310 637 310 637 355 637 c 0,67,68
 383 637 383 637 405 655 c 128,-1,69
 427 673 427 673 443.5 702.5 c 128,-1,70
 460 732 460 732 472 769 c 128,-1,71
 484 806 484 806 491.5 845 c 128,-1,72
 499 884 499 884 502.5 920.5 c 128,-1,73
 506 957 506 957 506 985 c 0,54,55
659 973 m 0,74,75
 659 904 659 904 635.5 830.5 c 128,-1,76
 612 757 612 757 567.5 696 c 128,-1,77
 523 635 523 635 460 596 c 128,-1,78
 397 557 397 557 318 557 c 0,79,80
 268 557 268 557 228 577.5 c 128,-1,81
 188 598 188 598 159.5 634 c 128,-1,82
 131 670 131 670 116 718.5 c 128,-1,83
 101 767 101 767 101 822 c 0,84,85
 101 868 101 868 112 916.5 c 128,-1,86
 123 965 123 965 143.5 1011 c 128,-1,87
 164 1057 164 1057 194 1098 c 128,-1,88
 224 1139 224 1139 262 1169.5 c 128,-1,89
 300 1200 300 1200 345.5 1218 c 128,-1,90
 391 1236 391 1236 444 1236 c 0,91,92
 493 1236 493 1236 533 1216.5 c 128,-1,93
 573 1197 573 1197 601 1161.5 c 128,-1,94
 629 1126 629 1126 644 1078 c 128,-1,95
 659 1030 659 1030 659 973 c 0,74,75
EndSplineSet
EndChar

StartChar: ampersand
Encoding: 38 38 9
Width: 1224
Flags: W
LayerCount: 2
Fore
SplineSet
536 1130 m 0,0,1
 528 1074 528 1074 534 1014 c 128,-1,2
 540 954 540 954 557 890 c 1,3,4
 617 926 617 926 658.5 961.5 c 128,-1,5
 700 997 700 997 726.5 1031.5 c 128,-1,6
 753 1066 753 1066 766.5 1099 c 128,-1,7
 780 1132 780 1132 785 1164 c 1,8,9
 792 1200 792 1200 789.5 1231.5 c 128,-1,10
 787 1263 787 1263 774.5 1286.5 c 128,-1,11
 762 1310 762 1310 740 1323 c 128,-1,12
 718 1336 718 1336 686 1336 c 0,13,14
 653 1336 653 1336 627.5 1318.5 c 128,-1,15
 602 1301 602 1301 583.5 1272.5 c 128,-1,16
 565 1244 565 1244 553 1206.5 c 128,-1,17
 541 1169 541 1169 536 1130 c 0,0,1
466 94 m 0,18,19
 537 94 537 94 600 116 c 128,-1,20
 663 138 663 138 717 176 c 1,21,22
 679 226 679 226 640 284.5 c 128,-1,23
 601 343 601 343 564 408 c 128,-1,24
 527 473 527 473 494.5 542 c 128,-1,25
 462 611 462 611 437 682 c 1,26,27
 345 604 345 604 301.5 532.5 c 128,-1,28
 258 461 258 461 247 381 c 0,29,30
 238 311 238 311 253.5 257.5 c 128,-1,31
 269 204 269 204 300.5 167.5 c 128,-1,32
 332 131 332 131 375.5 112.5 c 128,-1,33
 419 94 419 94 466 94 c 0,18,19
1306 748 m 1,34,35
 1280 717 1280 717 1251.5 690.5 c 128,-1,36
 1223 664 1223 664 1199 647 c 1,37,38
 1167 664 1167 664 1125.5 676 c 128,-1,39
 1084 688 1084 688 1052 690 c 1,40,41
 1066 657 1066 657 1067.5 621 c 128,-1,42
 1069 585 1069 585 1062 527 c 1,43,44
 1052 459 1052 459 1015 384 c 128,-1,45
 978 309 978 309 920 237 c 1,46,47
 962 186 962 186 1001 147 c 1,48,49
 1067 77 1067 77 1172 103 c 1,50,-1
 1175 50 l 1,51,52
 1133 31 1133 31 1094 16 c 128,-1,53
 1055 1 1055 1 1023.5 -9.5 c 128,-1,54
 992 -20 992 -20 969 -25.5 c 128,-1,55
 946 -31 946 -31 936 -31 c 0,56,57
 916 -31 916 -31 874 4 c 128,-1,58
 832 39 832 39 778 101 c 1,59,60
 699 41 699 41 606.5 5 c 128,-1,61
 514 -31 514 -31 413 -31 c 0,62,63
 325 -31 325 -31 255 -5 c 128,-1,64
 185 21 185 21 139 71 c 128,-1,65
 93 121 93 121 74 193.5 c 128,-1,66
 55 266 55 266 68 360 c 1,67,68
 82 471 82 471 168.5 580.5 c 128,-1,69
 255 690 255 690 403 794 c 1,70,71
 386 866 386 866 379.5 936.5 c 128,-1,72
 373 1007 373 1007 382 1073 c 0,73,74
 393 1154 393 1154 427.5 1223 c 128,-1,75
 462 1292 462 1292 512.5 1342.5 c 128,-1,76
 563 1393 563 1393 625 1421.5 c 128,-1,77
 687 1450 687 1450 752 1450 c 0,78,79
 813 1450 813 1450 854 1429 c 128,-1,80
 895 1408 895 1408 918 1373 c 128,-1,81
 941 1338 941 1338 948 1292 c 128,-1,82
 955 1246 955 1246 948 1197 c 0,83,84
 940 1146 940 1146 913.5 1096 c 128,-1,85
 887 1046 887 1046 846.5 999 c 128,-1,86
 806 952 806 952 754 909 c 128,-1,87
 702 866 702 866 644 829 c 2,88,-1
 588 793 l 1,89,90
 635 666 635 666 707 543 c 128,-1,91
 779 420 779 420 856 317 c 1,92,93
 914 403 914 403 928 486 c 0,94,95
 935 532 935 532 927.5 571 c 128,-1,96
 920 610 920 610 903.5 638.5 c 128,-1,97
 887 667 887 667 863 682.5 c 128,-1,98
 839 698 839 698 812 698 c 1,99,-1
 793 728 l 1,100,101
 799 734 799 734 808.5 743 c 128,-1,102
 818 752 818 752 829 760.5 c 128,-1,103
 840 769 840 769 851.5 776 c 128,-1,104
 863 783 863 783 873 787 c 1,105,-1
 1287 787 l 1,106,-1
 1306 748 l 1,34,35
EndSplineSet
EndChar

StartChar: quotesingle
Encoding: 39 39 10
Width: 433
Flags: W
LayerCount: 2
Fore
SplineSet
314 868 m 1,0,1
 297 859 297 859 274.5 855 c 128,-1,2
 252 851 252 851 230 851 c 1,3,-1
 251 1372 l 1,4,5
 263 1378 263 1378 284 1387 c 128,-1,6
 305 1396 305 1396 327.5 1404.5 c 128,-1,7
 350 1413 350 1413 370.5 1420 c 128,-1,8
 391 1427 391 1427 402 1430 c 1,9,-1
 442 1407 l 1,10,-1
 314 868 l 1,0,1
EndSplineSet
EndChar

StartChar: parenleft
Encoding: 40 40 11
Width: 613
Flags: W
LayerCount: 2
Fore
SplineSet
719 1549 m 1,0,1
 651 1498 651 1498 587 1415.5 c 128,-1,2
 523 1333 523 1333 468.5 1222 c 128,-1,3
 414 1111 414 1111 372.5 973 c 128,-1,4
 331 835 331 835 309 675 c 0,5,6
 288 529 288 529 288 390 c 128,-1,7
 288 251 288 251 308 129.5 c 128,-1,8
 328 8 328 8 367.5 -92 c 128,-1,9
 407 -192 407 -192 466 -260 c 1,10,-1
 421 -315 l 1,11,12
 325 -262 325 -262 257.5 -165 c 128,-1,13
 190 -68 190 -68 151.5 58.5 c 128,-1,14
 113 185 113 185 104.5 335 c 128,-1,15
 96 485 96 485 119 644 c 0,16,17
 142 808 142 808 194 959 c 128,-1,18
 246 1110 246 1110 320 1236 c 128,-1,19
 394 1362 394 1362 488.5 1457 c 128,-1,20
 583 1552 583 1552 691 1604 c 1,21,-1
 719 1549 l 1,0,1
EndSplineSet
EndChar

StartChar: parenright
Encoding: 41 41 12
Width: 613
Flags: W
LayerCount: 2
Fore
SplineSet
515 630 m 0,0,1
 492 465 492 465 440 316.5 c 128,-1,2
 388 168 388 168 313.5 45 c 128,-1,3
 239 -78 239 -78 145 -170.5 c 128,-1,4
 51 -263 51 -263 -57 -315 c 1,5,-1
 -87 -260 l 1,6,7
 -19 -209 -19 -209 45 -128.5 c 128,-1,8
 109 -48 109 -48 164 60.5 c 128,-1,9
 219 169 219 169 260.5 304 c 128,-1,10
 302 439 302 439 325 600 c 0,11,12
 345 745 345 745 345 886 c 128,-1,13
 345 1027 345 1027 325.5 1151.5 c 128,-1,14
 306 1276 306 1276 266.5 1378.5 c 128,-1,15
 227 1481 227 1481 168 1549 c 1,16,-1
 213 1604 l 1,17,18
 309 1550 309 1550 376 1451 c 128,-1,19
 443 1352 443 1352 481.5 1222.5 c 128,-1,20
 520 1093 520 1093 528.5 941 c 128,-1,21
 537 789 537 789 515 630 c 0,0,1
EndSplineSet
EndChar

StartChar: asterisk
Encoding: 42 42 13
Width: 730
Flags: W
LayerCount: 2
Fore
SplineSet
425 1199 m 1,0,-1
 681 1391 l 1,1,2
 690 1384 690 1384 702.5 1374 c 128,-1,3
 715 1364 715 1364 728 1352.5 c 128,-1,4
 741 1341 741 1341 752.5 1330 c 128,-1,5
 764 1319 764 1319 769 1311 c 1,6,-1
 762 1265 l 1,7,-1
 451 1135 l 1,8,-1
 704 1017 l 1,9,10
 702 1005 702 1005 698 987 c 128,-1,11
 694 969 694 969 689.5 949.5 c 128,-1,12
 685 930 685 930 680 912.5 c 128,-1,13
 675 895 675 895 671 884 c 1,14,-1
 629 862 l 1,15,-1
 409 1070 l 1,16,-1
 405 761 l 1,17,18
 394 755 394 755 377.5 746.5 c 128,-1,19
 361 738 361 738 343.5 730.5 c 128,-1,20
 326 723 326 723 309.5 717 c 128,-1,21
 293 711 293 711 283 709 c 1,22,-1
 251 732 l 1,23,-1
 339 1069 l 1,24,-1
 83 877 l 1,25,26
 74 884 74 884 61 894.5 c 128,-1,27
 48 905 48 905 35 916 c 128,-1,28
 22 927 22 927 11 938 c 128,-1,29
 0 949 0 949 -6 957 c 1,30,-1
 4 1004 l 1,31,-1
 313 1133 l 1,32,-1
 59 1251 l 1,33,34
 62 1263 62 1263 66 1281.5 c 128,-1,35
 70 1300 70 1300 74.5 1319 c 128,-1,36
 79 1338 79 1338 83.5 1355.5 c 128,-1,37
 88 1373 88 1373 93 1383 c 1,38,-1
 135 1405 l 1,39,-1
 354 1198 l 1,40,-1
 359 1508 l 1,41,42
 369 1514 369 1514 385.5 1522 c 128,-1,43
 402 1530 402 1530 419.5 1537.5 c 128,-1,44
 437 1545 437 1545 453.5 1551.5 c 128,-1,45
 470 1558 470 1558 481 1561 c 1,46,-1
 515 1535 l 1,47,-1
 425 1199 l 1,0,-1
EndSplineSet
EndChar

StartChar: plus
Encoding: 43 43 14
Width: 786
Flags: W
LayerCount: 2
Fore
SplineSet
736 599 m 1,0,1
 733 588 733 588 727.5 574.5 c 128,-1,2
 722 561 722 561 715 547 c 128,-1,3
 708 533 708 533 701.5 520.5 c 128,-1,4
 695 508 695 508 691 500 c 1,5,-1
 459 500 l 1,6,-1
 421 232 l 1,7,8
 412 227 412 227 399 222 c 128,-1,9
 386 217 386 217 372 212.5 c 128,-1,10
 358 208 358 208 344.5 204.5 c 128,-1,11
 331 201 331 201 321 199 c 1,12,-1
 299 223 l 1,13,-1
 338 500 l 1,14,-1
 91 500 l 1,15,-1
 70 527 l 1,16,17
 74 537 74 537 79.5 550 c 128,-1,18
 85 563 85 563 91.5 576.5 c 128,-1,19
 98 590 98 590 104.5 602.5 c 128,-1,20
 111 615 111 615 116 625 c 1,21,-1
 355 625 l 1,22,-1
 394 895 l 1,23,24
 402 898 402 898 415 902 c 128,-1,25
 428 906 428 906 442.5 910.5 c 128,-1,26
 457 915 457 915 470.5 919 c 128,-1,27
 484 923 484 923 494 926 c 1,28,-1
 516 901 l 1,29,-1
 477 625 l 1,30,-1
 716 625 l 1,31,-1
 736 599 l 1,0,1
EndSplineSet
EndChar

StartChar: comma
Encoding: 44 44 15
Width: 433
Flags: W
LayerCount: 2
Fore
SplineSet
327 107 m 256,0,1
 327 76 327 76 314.5 38 c 128,-1,2
 302 0 302 0 280 -41.5 c 128,-1,3
 258 -83 258 -83 229 -125 c 128,-1,4
 200 -167 200 -167 166.5 -205 c 128,-1,5
 133 -243 133 -243 97 -275 c 128,-1,6
 61 -307 61 -307 26 -328 c 1,7,-1
 -16 -288 l 1,8,9
 61 -207 61 -207 99 -135.5 c 128,-1,10
 137 -64 137 -64 137 -8 c 0,11,12
 137 11 137 11 131.5 28.5 c 128,-1,13
 126 46 126 46 113 59 c 128,-1,14
 100 72 100 72 79 78.5 c 128,-1,15
 58 85 58 85 28 81 c 1,16,-1
 20 137 l 1,17,18
 33 149 33 149 65 167 c 128,-1,19
 97 185 97 185 134.5 201 c 128,-1,20
 172 217 172 217 207 228 c 128,-1,21
 242 239 242 239 260 239 c 1,22,23
 278 229 278 229 290.5 219 c 128,-1,24
 303 209 303 209 311 194 c 128,-1,25
 319 179 319 179 323 158.5 c 128,-1,26
 327 138 327 138 327 107 c 256,0,1
EndSplineSet
EndChar

StartChar: period
Encoding: 46 46 17
Width: 433
Flags: W
LayerCount: 2
Fore
SplineSet
306 157 m 0,0,1
 306 125 306 125 295 92 c 128,-1,2
 284 59 284 59 263 31.5 c 128,-1,3
 242 4 242 4 212 -13.5 c 128,-1,4
 182 -31 182 -31 145 -31 c 0,5,6
 97 -31 97 -31 73 -2.5 c 128,-1,7
 49 26 49 26 49 73 c 0,8,9
 49 103 49 103 61 135.5 c 128,-1,10
 73 168 73 168 94.5 194.5 c 128,-1,11
 116 221 116 221 146 238.5 c 128,-1,12
 176 256 176 256 211 256 c 0,13,14
 256 256 256 256 281 228.5 c 128,-1,15
 306 201 306 201 306 157 c 0,0,1
EndSplineSet
EndChar

StartChar: slash
Encoding: 47 47 18
Width: 842
Flags: W
LayerCount: 2
Fore
SplineSet
63 -280 m 1,0,1
 53 -287 53 -287 34 -295 c 128,-1,2
 15 -303 15 -303 -6 -311 c 128,-1,3
 -27 -319 -27 -319 -47.5 -325.5 c 128,-1,4
 -68 -332 -68 -332 -80 -336 c 1,5,-1
 -111 -309 l 1,6,-1
 791 1545 l 1,7,8
 804 1554 804 1554 822 1562 c 128,-1,9
 840 1570 840 1570 858.5 1577 c 128,-1,10
 877 1584 877 1584 895 1589.5 c 128,-1,11
 913 1595 913 1595 928 1599 c 1,12,-1
 962 1575 l 1,13,-1
 63 -280 l 1,0,1
EndSplineSet
EndChar

StartChar: zero
Encoding: 48 48 19
Width: 859
GlyphClass: 2
Flags: W
AnchorPoint: "Anchor-4" 859 870 basechar 0
AnchorPoint: "Anchor-3" 336 -100 basechar 0
AnchorPoint: "Anchor-2" 336 -100 basechar 0
AnchorPoint: "Anchor-1" 336 -100 basechar 0
AnchorPoint: "Anchor-0" 536 1320 basechar 0
LayerCount: 2
Fore
SplineSet
652 794 m 0,0,1
 652 875 652 875 639.5 935.5 c 128,-1,2
 627 996 627 996 605 1036 c 128,-1,3
 583 1076 583 1076 553.5 1095.5 c 128,-1,4
 524 1115 524 1115 491 1115 c 0,5,6
 436 1115 436 1115 395 1077 c 128,-1,7
 354 1039 354 1039 324 978 c 128,-1,8
 294 917 294 917 274.5 840.5 c 128,-1,9
 255 764 255 764 243.5 687 c 128,-1,10
 232 610 232 610 227.5 541 c 128,-1,11
 223 472 223 472 223 425 c 0,12,13
 223 257 223 257 266 174 c 128,-1,14
 309 91 309 91 387 91 c 0,15,16
 441 91 441 91 481.5 128.5 c 128,-1,17
 522 166 522 166 551.5 226 c 128,-1,18
 581 286 581 286 600.5 362.5 c 128,-1,19
 620 439 620 439 631.5 517 c 128,-1,20
 643 595 643 595 647.5 668 c 128,-1,21
 652 741 652 741 652 794 c 0,0,1
834 784 m 0,22,23
 834 719 834 719 827.5 649.5 c 128,-1,24
 821 580 821 580 806 509.5 c 128,-1,25
 791 439 791 439 765.5 369.5 c 128,-1,26
 740 300 740 300 702 236 c 0,27,28
 669 180 669 180 630 131.5 c 128,-1,29
 591 83 591 83 545.5 47 c 128,-1,30
 500 11 500 11 447 -10 c 128,-1,31
 394 -31 394 -31 333 -31 c 0,32,33
 261 -31 261 -31 207 4 c 128,-1,34
 153 39 153 39 116 100.5 c 128,-1,35
 79 162 79 162 60.5 244.5 c 128,-1,36
 42 327 42 327 42 422 c 0,37,38
 42 553 42 553 70 690 c 128,-1,39
 98 827 98 827 169 961 c 0,40,41
 200 1018 200 1018 239 1068 c 128,-1,42
 278 1118 278 1118 324.5 1155 c 128,-1,43
 371 1192 371 1192 425 1213.5 c 128,-1,44
 479 1235 479 1235 542 1235 c 0,45,46
 612 1235 612 1235 666.5 1202 c 128,-1,47
 721 1169 721 1169 758 1109 c 128,-1,48
 795 1049 795 1049 814.5 966 c 128,-1,49
 834 883 834 883 834 784 c 0,22,23
EndSplineSet
EndChar

StartChar: one
Encoding: 49 49 20
Width: 859
GlyphClass: 2
Flags: W
AnchorPoint: "Anchor-4" 859 870 basechar 0
AnchorPoint: "Anchor-3" 336 -100 basechar 0
AnchorPoint: "Anchor-2" 336 -100 basechar 0
AnchorPoint: "Anchor-1" 336 -100 basechar 0
AnchorPoint: "Anchor-0" 536 1320 basechar 0
LayerCount: 2
Fore
SplineSet
701 0 m 1,0,-1
 65 0 l 1,1,-1
 73 63 l 1,2,3
 146 72 146 72 195 83.5 c 128,-1,4
 244 95 244 95 274 107 c 128,-1,5
 304 119 304 119 317 130.5 c 128,-1,6
 330 142 330 142 332 153 c 2,7,-1
 437 930 l 2,8,9
 443 970 443 970 443.5 992 c 128,-1,10
 444 1014 444 1014 435 1028 c 0,11,12
 430 1034 430 1034 415.5 1038 c 128,-1,13
 401 1042 401 1042 373 1041 c 128,-1,14
 345 1040 345 1040 302 1034 c 128,-1,15
 259 1028 259 1028 198 1014 c 1,16,-1
 184 1075 l 1,17,18
 223 1086 223 1086 282 1107 c 128,-1,19
 341 1128 341 1128 402.5 1153 c 128,-1,20
 464 1178 464 1178 520 1202.5 c 128,-1,21
 576 1227 576 1227 609 1245 c 1,22,-1
 639 1208 l 1,23,-1
 496 153 l 2,24,25
 494 143 494 143 502.5 131.5 c 128,-1,26
 511 120 511 120 534.5 108 c 128,-1,27
 558 96 558 96 600.5 84 c 128,-1,28
 643 72 643 72 710 63 c 1,29,-1
 701 0 l 1,0,-1
EndSplineSet
EndChar

StartChar: two
Encoding: 50 50 21
Width: 859
GlyphClass: 2
Flags: W
AnchorPoint: "Anchor-4" 859 870 basechar 0
AnchorPoint: "Anchor-3" 336 -100 basechar 0
AnchorPoint: "Anchor-2" 336 -100 basechar 0
AnchorPoint: "Anchor-1" 336 -100 basechar 0
AnchorPoint: "Anchor-0" 536 1320 basechar 0
LayerCount: 2
Fore
SplineSet
818 1011 m 0,0,1
 818 969 818 969 806.5 923.5 c 128,-1,2
 795 878 795 878 767 822.5 c 128,-1,3
 739 767 739 767 693 700 c 128,-1,4
 647 633 647 633 578 549.5 c 128,-1,5
 509 466 509 466 414 363 c 128,-1,6
 319 260 319 260 195 134 c 1,7,-1
 565 134 l 2,8,9
 580 134 580 134 593 142 c 128,-1,10
 606 150 606 150 617.5 163.5 c 128,-1,11
 629 177 629 177 638 194 c 128,-1,12
 647 211 647 211 655 229 c 0,13,14
 673 270 673 270 684 324 c 1,15,-1
 737 310 l 1,16,-1
 682 0 l 1,17,-1
 12 0 l 1,18,-1
 -3 74 l 1,19,20
 178 255 178 255 301.5 395 c 128,-1,21
 425 535 425 535 501 643.5 c 128,-1,22
 577 752 577 752 610 833 c 128,-1,23
 643 914 643 914 643 977 c 0,24,25
 643 1049 643 1049 602 1091.5 c 128,-1,26
 561 1134 561 1134 485 1134 c 0,27,28
 448 1134 448 1134 419 1115 c 128,-1,29
 390 1096 390 1096 369.5 1066.5 c 128,-1,30
 349 1037 349 1037 337 1000.5 c 128,-1,31
 325 964 325 964 322 929 c 1,32,33
 290 910 290 910 251 895 c 128,-1,34
 212 880 212 880 170 875 c 1,35,-1
 148 918 l 1,36,37
 155 970 155 970 192.5 1026 c 128,-1,38
 230 1082 230 1082 287 1128.5 c 128,-1,39
 344 1175 344 1175 415.5 1205 c 128,-1,40
 487 1235 487 1235 562 1235 c 0,41,42
 614 1235 614 1235 660.5 1222.5 c 128,-1,43
 707 1210 707 1210 742 1183 c 128,-1,44
 777 1156 777 1156 797.5 1113.5 c 128,-1,45
 818 1071 818 1071 818 1011 c 0,0,1
EndSplineSet
EndChar

StartChar: three
Encoding: 51 51 22
Width: 859
GlyphClass: 2
Flags: W
AnchorPoint: "Anchor-4" 859 870 basechar 0
AnchorPoint: "Anchor-3" 336 -100 basechar 0
AnchorPoint: "Anchor-2" 336 -100 basechar 0
AnchorPoint: "Anchor-1" 336 -100 basechar 0
AnchorPoint: "Anchor-0" 536 1320 basechar 0
LayerCount: 2
Fore
SplineSet
768 1001 m 0,0,1
 768 947 768 947 750.5 900.5 c 128,-1,2
 733 854 733 854 702 815.5 c 128,-1,3
 671 777 671 777 629 747.5 c 128,-1,4
 587 718 587 718 539 698 c 1,5,6
 586 692 586 692 624 668 c 128,-1,7
 662 644 662 644 688.5 607 c 128,-1,8
 715 570 715 570 729.5 524 c 128,-1,9
 744 478 744 478 744 428 c 0,10,11
 744 334 744 334 711 250.5 c 128,-1,12
 678 167 678 167 618 104.5 c 128,-1,13
 558 42 558 42 474.5 5.5 c 128,-1,14
 391 -31 391 -31 290 -31 c 0,15,16
 219 -31 219 -31 143 7 c 128,-1,17
 67 45 67 45 -7 124 c 1,18,-1
 37 201 l 1,19,20
 75 167 75 167 107 145 c 128,-1,21
 139 123 139 123 169 109.5 c 128,-1,22
 199 96 199 96 229 90.5 c 128,-1,23
 259 85 259 85 294 85 c 0,24,25
 358 85 358 85 408.5 110 c 128,-1,26
 459 135 459 135 494 178.5 c 128,-1,27
 529 222 529 222 547 279 c 128,-1,28
 565 336 565 336 565 401 c 0,29,30
 565 457 565 457 549 497.5 c 128,-1,31
 533 538 533 538 506.5 564.5 c 128,-1,32
 480 591 480 591 445.5 603.5 c 128,-1,33
 411 616 411 616 375 616 c 2,34,-1
 356 616 l 2,35,36
 350 616 350 616 344.5 615 c 128,-1,37
 339 614 339 614 332 613 c 128,-1,38
 325 612 325 612 311 609 c 1,39,-1
 305 679 l 1,40,41
 365 696 365 696 418 720.5 c 128,-1,42
 471 745 471 745 510 780.5 c 128,-1,43
 549 816 549 816 571.5 864.5 c 128,-1,44
 594 913 594 913 594 977 c 0,45,46
 594 1008 594 1008 586.5 1036.5 c 128,-1,47
 579 1065 579 1065 562.5 1087 c 128,-1,48
 546 1109 546 1109 521 1121.5 c 128,-1,49
 496 1134 496 1134 460 1134 c 0,50,51
 428 1134 428 1134 401 1121 c 128,-1,52
 374 1108 374 1108 355.5 1085.5 c 128,-1,53
 337 1063 337 1063 327 1033 c 128,-1,54
 317 1003 317 1003 318 968 c 1,55,56
 283 949 283 949 242 935.5 c 128,-1,57
 201 922 201 922 160 919 c 1,58,-1
 138 960 l 1,59,60
 144 1002 144 1002 178 1050 c 128,-1,61
 212 1098 212 1098 264 1139.5 c 128,-1,62
 316 1181 316 1181 381.5 1208 c 128,-1,63
 447 1235 447 1235 516 1235 c 0,64,65
 583 1235 583 1235 631 1215.5 c 128,-1,66
 679 1196 679 1196 709.5 1163.5 c 128,-1,67
 740 1131 740 1131 754 1088.5 c 128,-1,68
 768 1046 768 1046 768 1001 c 0,0,1
EndSplineSet
EndChar

StartChar: four
Encoding: 52 52 23
Width: 859
GlyphClass: 2
Flags: W
AnchorPoint: "Anchor-4" 859 870 basechar 0
AnchorPoint: "Anchor-3" 336 -100 basechar 0
AnchorPoint: "Anchor-2" 336 -100 basechar 0
AnchorPoint: "Anchor-1" 336 -100 basechar 0
AnchorPoint: "Anchor-0" 536 1320 basechar 0
LayerCount: 2
Fore
SplineSet
185 462 m 1,0,-1
 504 462 l 1,1,-1
 581 1020 l 1,2,-1
 185 462 l 1,0,-1
795 432 m 1,3,4
 770 401 770 401 748 381.5 c 128,-1,5
 726 362 726 362 704 345 c 1,6,-1
 642 345 l 1,7,-1
 611 114 l 2,8,9
 609 106 609 106 614 99.5 c 128,-1,10
 619 93 619 93 632.5 85.5 c 128,-1,11
 646 78 646 78 669.5 70 c 128,-1,12
 693 62 693 62 729 53 c 1,13,-1
 722 0 l 1,14,-1
 250 0 l 1,15,-1
 257 53 l 1,16,17
 317 64 317 64 355.5 73.5 c 128,-1,18
 394 83 394 83 416 91.5 c 128,-1,19
 438 100 438 100 447 108 c 128,-1,20
 456 116 456 116 458 125 c 2,21,-1
 486 345 l 1,22,-1
 45 345 l 1,23,-1
 16 381 l 1,24,-1
 568 1172 l 1,25,26
 612 1189 612 1189 655 1209 c 128,-1,27
 698 1229 698 1229 730 1245 c 1,28,-1
 759 1208 l 1,29,-1
 658 463 l 1,30,-1
 773 463 l 1,31,-1
 795 432 l 1,3,4
EndSplineSet
EndChar

StartChar: five
Encoding: 53 53 24
Width: 859
GlyphClass: 2
Flags: W
AnchorPoint: "Anchor-4" 859 870 basechar 0
AnchorPoint: "Anchor-3" 336 -100 basechar 0
AnchorPoint: "Anchor-2" 336 -100 basechar 0
AnchorPoint: "Anchor-1" 336 -100 basechar 0
AnchorPoint: "Anchor-0" 536 1320 basechar 0
LayerCount: 2
Fore
SplineSet
836 1192 m 1,0,1
 824 1175 824 1175 807.5 1156 c 128,-1,2
 791 1137 791 1137 773.5 1118.5 c 128,-1,3
 756 1100 756 1100 740 1084.5 c 128,-1,4
 724 1069 724 1069 712 1060 c 1,5,-1
 348 1060 l 1,6,7
 342 1031 342 1031 331 987.5 c 128,-1,8
 320 944 320 944 308 899.5 c 128,-1,9
 296 855 296 855 285 815.5 c 128,-1,10
 274 776 274 776 267 754 c 1,11,12
 304 768 304 768 355 776.5 c 128,-1,13
 406 785 406 785 456 785 c 0,14,15
 530 785 530 785 586.5 759 c 128,-1,16
 643 733 643 733 681 690 c 128,-1,17
 719 647 719 647 738.5 591.5 c 128,-1,18
 758 536 758 536 758 477 c 0,19,20
 758 417 758 417 745 356.5 c 128,-1,21
 732 296 732 296 706.5 239.5 c 128,-1,22
 681 183 681 183 643.5 133.5 c 128,-1,23
 606 84 606 84 557 47.5 c 128,-1,24
 508 11 508 11 448 -10 c 128,-1,25
 388 -31 388 -31 318 -31 c 0,26,27
 233 -31 233 -31 152 6.5 c 128,-1,28
 71 44 71 44 -1 123 c 1,29,-1
 46 197 l 1,30,31
 91 162 91 162 128.5 139.5 c 128,-1,32
 166 117 166 117 197.5 104 c 128,-1,33
 229 91 229 91 257 86.5 c 128,-1,34
 285 82 285 82 312 82 c 0,35,36
 380 82 380 82 431 113 c 128,-1,37
 482 144 482 144 515.5 194.5 c 128,-1,38
 549 245 549 245 565.5 309 c 128,-1,39
 582 373 582 373 582 439 c 0,40,41
 582 488 582 488 568.5 529 c 128,-1,42
 555 570 555 570 528.5 600 c 128,-1,43
 502 630 502 630 464.5 646.5 c 128,-1,44
 427 663 427 663 379 663 c 0,45,46
 320 663 320 663 266 641.5 c 128,-1,47
 212 620 212 620 158 580 c 1,48,-1
 120 613 l 1,49,50
 131 649 131 649 145 697 c 128,-1,51
 159 745 159 745 174 799 c 128,-1,52
 189 853 189 853 204.5 910 c 128,-1,53
 220 967 220 967 233.5 1020.5 c 128,-1,54
 247 1074 247 1074 258.5 1121.5 c 128,-1,55
 270 1169 270 1169 276 1204 c 1,56,-1
 701 1204 l 2,57,58
 726 1204 726 1204 746.5 1206.5 c 128,-1,59
 767 1209 767 1209 781 1213 c 0,60,61
 798 1217 798 1217 811 1223 c 1,62,-1
 836 1192 l 1,0,1
EndSplineSet
EndChar

StartChar: six
Encoding: 54 54 25
Width: 859
GlyphClass: 2
Flags: W
AnchorPoint: "Anchor-4" 859 870 basechar 0
AnchorPoint: "Anchor-3" 336 -100 basechar 0
AnchorPoint: "Anchor-2" 336 -100 basechar 0
AnchorPoint: "Anchor-1" 336 -100 basechar 0
AnchorPoint: "Anchor-0" 536 1320 basechar 0
LayerCount: 2
Fore
SplineSet
465 654 m 0,0,1
 413 654 413 654 360.5 626 c 128,-1,2
 308 598 308 598 254 538 c 1,3,4
 247 497 247 497 244.5 456 c 128,-1,5
 242 415 242 415 242 373 c 0,6,7
 242 298 242 298 255 243.5 c 128,-1,8
 268 189 268 189 292 153.5 c 128,-1,9
 316 118 316 118 350 101 c 128,-1,10
 384 84 384 84 426 84 c 0,11,12
 464 84 464 84 493 100.5 c 128,-1,13
 522 117 522 117 544 145 c 128,-1,14
 566 173 566 173 581.5 209 c 128,-1,15
 597 245 597 245 606.5 283 c 128,-1,16
 616 321 616 321 620 359.5 c 128,-1,17
 624 398 624 398 624 430 c 0,18,19
 624 498 624 498 609.5 541.5 c 128,-1,20
 595 585 595 585 572 610 c 128,-1,21
 549 635 549 635 521 644.5 c 128,-1,22
 493 654 493 654 465 654 c 0,0,1
824 1180 m 1,23,24
 713 1157 713 1157 625 1109 c 128,-1,25
 537 1061 537 1061 470 993.5 c 128,-1,26
 403 926 403 926 356 842 c 128,-1,27
 309 758 309 758 282 664 c 1,28,29
 349 724 349 724 411.5 749.5 c 128,-1,30
 474 775 474 775 528 775 c 0,31,32
 592 775 592 775 642 754.5 c 128,-1,33
 692 734 692 734 726.5 696 c 128,-1,34
 761 658 761 658 778.5 604 c 128,-1,35
 796 550 796 550 796 483 c 0,36,37
 796 429 796 429 783 369.5 c 128,-1,38
 770 310 770 310 745 253 c 128,-1,39
 720 196 720 196 683.5 144.5 c 128,-1,40
 647 93 647 93 600 54 c 128,-1,41
 553 15 553 15 497 -8 c 128,-1,42
 441 -31 441 -31 376 -31 c 0,43,44
 309 -31 309 -31 252 -2.5 c 128,-1,45
 195 26 195 26 153 77.5 c 128,-1,46
 111 129 111 129 87.5 201 c 128,-1,47
 64 273 64 273 64 360 c 0,48,49
 64 468 64 468 87 571.5 c 128,-1,50
 110 675 110 675 154.5 768.5 c 128,-1,51
 199 862 199 862 263.5 943 c 128,-1,52
 328 1024 328 1024 411.5 1087 c 128,-1,53
 495 1150 495 1150 596.5 1192 c 128,-1,54
 698 1234 698 1234 815 1249 c 1,55,-1
 824 1180 l 1,23,24
EndSplineSet
EndChar

StartChar: seven
Encoding: 55 55 26
Width: 859
GlyphClass: 2
Flags: W
AnchorPoint: "Anchor-4" 859 870 basechar 0
AnchorPoint: "Anchor-3" 336 -100 basechar 0
AnchorPoint: "Anchor-2" 336 -100 basechar 0
AnchorPoint: "Anchor-1" 336 -100 basechar 0
AnchorPoint: "Anchor-0" 536 1320 basechar 0
LayerCount: 2
Fore
SplineSet
901 1167 m 1,0,1
 844 1059 844 1059 787 949 c 128,-1,2
 730 839 730 839 676 732.5 c 128,-1,3
 622 626 622 626 572 525 c 128,-1,4
 522 424 522 424 479 335.5 c 128,-1,5
 436 247 436 247 401.5 173 c 128,-1,6
 367 99 367 99 344 46 c 1,7,8
 309 21 309 21 261.5 1.5 c 128,-1,9
 214 -18 214 -18 168 -31 c 1,10,-1
 133 5 l 1,11,12
 232 158 232 158 313 294.5 c 128,-1,13
 394 431 394 431 464.5 559 c 128,-1,14
 535 687 535 687 600 810.5 c 128,-1,15
 665 934 665 934 733 1061 c 1,16,-1
 319 1061 l 2,17,18
 306 1061 306 1061 292 1059 c 128,-1,19
 278 1057 278 1057 260.5 1042.5 c 128,-1,20
 243 1028 243 1028 222 997 c 128,-1,21
 201 966 201 966 173 908 c 1,22,-1
 129 928 l 1,23,24
 135 951 135 951 145 989 c 128,-1,25
 155 1027 155 1027 166 1067.5 c 128,-1,26
 177 1108 177 1108 188 1145 c 128,-1,27
 199 1182 199 1182 208 1204 c 1,28,-1
 876 1204 l 1,29,-1
 901 1167 l 1,0,1
EndSplineSet
EndChar

StartChar: eight
Encoding: 56 56 27
Width: 859
GlyphClass: 2
Flags: W
AnchorPoint: "Anchor-4" 859 870 basechar 0
AnchorPoint: "Anchor-3" 336 -100 basechar 0
AnchorPoint: "Anchor-2" 336 -100 basechar 0
AnchorPoint: "Anchor-1" 336 -100 basechar 0
AnchorPoint: "Anchor-0" 536 1320 basechar 0
LayerCount: 2
Fore
SplineSet
320 940 m 0,0,1
 320 902 320 902 336 873 c 128,-1,2
 352 844 352 844 379 820 c 128,-1,3
 406 796 406 796 441 775 c 128,-1,4
 476 754 476 754 515 733 c 1,5,6
 544 755 544 755 569 780 c 128,-1,7
 594 805 594 805 612 834.5 c 128,-1,8
 630 864 630 864 640.5 898.5 c 128,-1,9
 651 933 651 933 651 975 c 0,10,11
 651 1053 651 1053 608 1093.5 c 128,-1,12
 565 1134 565 1134 492 1134 c 0,13,14
 455 1134 455 1134 423.5 1117.5 c 128,-1,15
 392 1101 392 1101 369 1073.5 c 128,-1,16
 346 1046 346 1046 333 1011 c 128,-1,17
 320 976 320 976 320 940 c 0,0,1
600 342 m 0,18,19
 600 395 600 395 583 434.5 c 128,-1,20
 566 474 566 474 538.5 504 c 128,-1,21
 511 534 511 534 475 557.5 c 128,-1,22
 439 581 439 581 401 602 c 1,23,24
 357 570 357 570 322 536 c 128,-1,25
 287 502 287 502 262.5 463 c 128,-1,26
 238 424 238 424 224.5 377.5 c 128,-1,27
 211 331 211 331 211 274 c 0,28,29
 211 231 211 231 223.5 195 c 128,-1,30
 236 159 236 159 259.5 133 c 128,-1,31
 283 107 283 107 315.5 92.5 c 128,-1,32
 348 78 348 78 388 78 c 0,33,34
 439 78 439 78 478.5 101.5 c 128,-1,35
 518 125 518 125 545 162.5 c 128,-1,36
 572 200 572 200 586 247.5 c 128,-1,37
 600 295 600 295 600 342 c 0,18,19
817 1001 m 0,38,39
 817 947 817 947 797 902 c 128,-1,40
 777 857 777 857 745 819.5 c 128,-1,41
 713 782 713 782 672 750.5 c 128,-1,42
 631 719 631 719 589 692 c 1,43,44
 627 669 627 669 661.5 642 c 128,-1,45
 696 615 696 615 722.5 579.5 c 128,-1,46
 749 544 749 544 764.5 499.5 c 128,-1,47
 780 455 780 455 780 397 c 0,48,49
 780 312 780 312 743.5 234.5 c 128,-1,50
 707 157 707 157 645.5 98 c 128,-1,51
 584 39 584 39 503.5 4 c 128,-1,52
 423 -31 423 -31 336 -31 c 0,53,54
 259 -31 259 -31 202.5 -8 c 128,-1,55
 146 15 146 15 108 54 c 128,-1,56
 70 93 70 93 51.5 143.5 c 128,-1,57
 33 194 33 194 33 250 c 0,58,59
 33 317 33 317 58.5 375.5 c 128,-1,60
 84 434 84 434 125.5 483 c 128,-1,61
 167 532 167 532 220.5 572 c 128,-1,62
 274 612 274 612 330 642 c 1,63,64
 297 662 297 662 267 684.5 c 128,-1,65
 237 707 237 707 214.5 736.5 c 128,-1,66
 192 766 192 766 178.5 803 c 128,-1,67
 165 840 165 840 165 889 c 0,68,69
 165 962 165 962 197 1025.5 c 128,-1,70
 229 1089 229 1089 282.5 1135.5 c 128,-1,71
 336 1182 336 1182 405.5 1208.5 c 128,-1,72
 475 1235 475 1235 551 1235 c 0,73,74
 618 1235 618 1235 668 1217.5 c 128,-1,75
 718 1200 718 1200 751 1169 c 128,-1,76
 784 1138 784 1138 800.5 1095 c 128,-1,77
 817 1052 817 1052 817 1001 c 0,38,39
EndSplineSet
EndChar

StartChar: nine
Encoding: 57 57 28
Width: 859
GlyphClass: 2
Flags: W
AnchorPoint: "Anchor-4" 859 870 basechar 0
AnchorPoint: "Anchor-3" 336 -100 basechar 0
AnchorPoint: "Anchor-2" 336 -100 basechar 0
AnchorPoint: "Anchor-1" 336 -100 basechar 0
AnchorPoint: "Anchor-0" 536 1320 basechar 0
LayerCount: 2
Fore
SplineSet
434 560 m 0,0,1
 501 560 501 560 553.5 595 c 128,-1,2
 606 630 606 630 648 685 c 1,3,4
 657 760 657 760 657 841 c 0,5,6
 657 920 657 920 643.5 974 c 128,-1,7
 630 1028 630 1028 608 1061 c 128,-1,8
 586 1094 586 1094 557.5 1108.5 c 128,-1,9
 529 1123 529 1123 499 1123 c 0,10,11
 434 1123 434 1123 391 1088.5 c 128,-1,12
 348 1054 348 1054 322 1002 c 128,-1,13
 296 950 296 950 285 887.5 c 128,-1,14
 274 825 274 825 274 770 c 0,15,16
 274 708 274 708 289.5 667.5 c 128,-1,17
 305 627 305 627 329 603 c 128,-1,18
 353 579 353 579 381 569.5 c 128,-1,19
 409 560 409 560 434 560 c 0,0,1
838 862 m 0,20,21
 838 691 838 691 789 537 c 128,-1,22
 740 383 740 383 644 261.5 c 128,-1,23
 548 140 548 140 407 60 c 128,-1,24
 266 -20 266 -20 82 -43 c 1,25,-1
 73 26 l 1,26,27
 192 53 192 53 284 102 c 128,-1,28
 376 151 376 151 444 219 c 128,-1,29
 512 287 512 287 557 372.5 c 128,-1,30
 602 458 602 458 626 559 c 1,31,32
 574 505 574 505 509.5 471 c 128,-1,33
 445 437 445 437 371 437 c 0,34,35
 307 437 307 437 257.5 459 c 128,-1,36
 208 481 208 481 173.5 520 c 128,-1,37
 139 559 139 559 121 611.5 c 128,-1,38
 103 664 103 664 103 725 c 0,39,40
 103 782 103 782 118.5 842.5 c 128,-1,41
 134 903 134 903 162.5 959.5 c 128,-1,42
 191 1016 191 1016 231 1066 c 128,-1,43
 271 1116 271 1116 320.5 1153.5 c 128,-1,44
 370 1191 370 1191 427.5 1213 c 128,-1,45
 485 1235 485 1235 549 1235 c 0,46,47
 610 1235 610 1235 662.5 1212.5 c 128,-1,48
 715 1190 715 1190 754 1144 c 128,-1,49
 793 1098 793 1098 815.5 1027.5 c 128,-1,50
 838 957 838 957 838 862 c 0,20,21
EndSplineSet
EndChar

StartChar: colon
Encoding: 58 58 29
Width: 433
Flags: W
LayerCount: 2
Fore
SplineSet
404 861 m 0,0,1
 404 830 404 830 393 797 c 128,-1,2
 382 764 382 764 361.5 737 c 128,-1,3
 341 710 341 710 311 693 c 128,-1,4
 281 676 281 676 244 676 c 0,5,6
 196 676 196 676 172 704 c 128,-1,7
 148 732 148 732 148 779 c 0,8,9
 148 809 148 809 160 841 c 128,-1,10
 172 873 172 873 193.5 899.5 c 128,-1,11
 215 926 215 926 244.5 943.5 c 128,-1,12
 274 961 274 961 309 961 c 0,13,14
 354 961 354 961 379 933.5 c 128,-1,15
 404 906 404 906 404 861 c 0,0,1
306 157 m 0,16,17
 306 125 306 125 295 92 c 128,-1,18
 284 59 284 59 263 31.5 c 128,-1,19
 242 4 242 4 212 -13.5 c 128,-1,20
 182 -31 182 -31 145 -31 c 0,21,22
 97 -31 97 -31 73 -2.5 c 128,-1,23
 49 26 49 26 49 73 c 0,24,25
 49 103 49 103 61 135.5 c 128,-1,26
 73 168 73 168 94.5 194.5 c 128,-1,27
 116 221 116 221 146 238.5 c 128,-1,28
 176 256 176 256 211 256 c 0,29,30
 256 256 256 256 281 228.5 c 128,-1,31
 306 201 306 201 306 157 c 0,16,17
EndSplineSet
EndChar

StartChar: semicolon
Encoding: 59 59 30
Width: 433
Flags: W
LayerCount: 2
Fore
SplineSet
404 861 m 0,0,1
 404 830 404 830 393 797 c 128,-1,2
 382 764 382 764 362 737 c 128,-1,3
 342 710 342 710 312 693 c 128,-1,4
 282 676 282 676 245 676 c 0,5,6
 197 676 197 676 172.5 704 c 128,-1,7
 148 732 148 732 148 779 c 0,8,9
 148 809 148 809 160 841 c 128,-1,10
 172 873 172 873 193.5 899.5 c 128,-1,11
 215 926 215 926 245 943.5 c 128,-1,12
 275 961 275 961 310 961 c 0,13,14
 355 961 355 961 379.5 933.5 c 128,-1,15
 404 906 404 906 404 861 c 0,0,1
327 107 m 256,16,17
 327 76 327 76 314.5 38 c 128,-1,18
 302 0 302 0 280 -41.5 c 128,-1,19
 258 -83 258 -83 229 -125 c 128,-1,20
 200 -167 200 -167 166.5 -205 c 128,-1,21
 133 -243 133 -243 97 -275 c 128,-1,22
 61 -307 61 -307 26 -328 c 1,23,-1
 -16 -288 l 1,24,25
 61 -207 61 -207 99 -135.5 c 128,-1,26
 137 -64 137 -64 137 -8 c 0,27,28
 137 11 137 11 131.5 28.5 c 128,-1,29
 126 46 126 46 113 59 c 128,-1,30
 100 72 100 72 79 78.5 c 128,-1,31
 58 85 58 85 28 81 c 1,32,-1
 20 137 l 1,33,34
 33 149 33 149 65 167 c 128,-1,35
 97 185 97 185 134.5 201 c 128,-1,36
 172 217 172 217 207 228 c 128,-1,37
 242 239 242 239 260 239 c 1,38,39
 278 229 278 229 290.5 219 c 128,-1,40
 303 209 303 209 311 194 c 128,-1,41
 319 179 319 179 323 158.5 c 128,-1,42
 327 138 327 138 327 107 c 256,16,17
EndSplineSet
EndChar

StartChar: less
Encoding: 60 60 31
Width: 855
Flags: W
LayerCount: 2
Fore
SplineSet
821 879 m 1,0,1
 817 869 817 869 811.5 854 c 128,-1,2
 806 839 806 839 800.5 823 c 128,-1,3
 795 807 795 807 789 792 c 128,-1,4
 783 777 783 777 779 768 c 1,5,-1
 251 565 l 1,6,-1
 727 361 l 1,7,-1
 740 322 l 1,8,9
 717 302 717 302 698.5 286 c 128,-1,10
 680 270 680 270 649 251 c 1,11,-1
 75 498 l 1,12,-1
 53 529 l 1,13,14
 56 541 56 541 61.5 555 c 128,-1,15
 67 569 67 569 73 583 c 128,-1,16
 79 597 79 597 84.5 610 c 128,-1,17
 90 623 90 623 95 632 c 1,18,-1
 799 906 l 1,19,-1
 821 879 l 1,0,1
EndSplineSet
EndChar

StartChar: equal
Encoding: 61 61 32
Width: 855
Flags: W
LayerCount: 2
Fore
SplineSet
816 749 m 1,0,1
 813 738 813 738 807.5 724.5 c 128,-1,2
 802 711 802 711 795 697 c 128,-1,3
 788 683 788 683 781.5 670.5 c 128,-1,4
 775 658 775 658 771 650 c 1,5,-1
 109 650 l 1,6,-1
 88 677 l 1,7,8
 92 687 92 687 97.5 700 c 128,-1,9
 103 713 103 713 109.5 726.5 c 128,-1,10
 116 740 116 740 122.5 752.5 c 128,-1,11
 129 765 129 765 134 775 c 1,12,-1
 796 775 l 1,13,-1
 816 749 l 1,0,1
776 449 m 1,14,15
 773 438 773 438 767 424.5 c 128,-1,16
 761 411 761 411 754.5 397 c 128,-1,17
 748 383 748 383 741.5 370.5 c 128,-1,18
 735 358 735 358 731 350 c 1,19,-1
 68 350 l 1,20,-1
 48 377 l 1,21,22
 52 387 52 387 57.5 400 c 128,-1,23
 63 413 63 413 69.5 426.5 c 128,-1,24
 76 440 76 440 82.5 452.5 c 128,-1,25
 89 465 89 465 94 475 c 1,26,-1
 756 475 l 1,27,-1
 776 449 l 1,14,15
EndSplineSet
EndChar

StartChar: greater
Encoding: 62 62 33
Width: 855
Flags: W
LayerCount: 2
Fore
SplineSet
797 628 m 1,0,1
 789 605 789 605 777 575 c 128,-1,2
 765 545 765 545 754 525 c 1,3,-1
 50 251 l 1,4,-1
 29 279 l 1,5,6
 33 289 33 289 38 304 c 128,-1,7
 43 319 43 319 48.5 335 c 128,-1,8
 54 351 54 351 59.5 366 c 128,-1,9
 65 381 65 381 70 390 c 1,10,-1
 598 592 l 1,11,-1
 122 796 l 1,12,-1
 109 835 l 1,13,14
 121 845 121 845 130.5 854 c 128,-1,15
 140 863 140 863 150.5 871.5 c 128,-1,16
 161 880 161 880 173 888.5 c 128,-1,17
 185 897 185 897 200 906 c 1,18,-1
 774 659 l 1,19,-1
 797 628 l 1,0,1
EndSplineSet
EndChar

StartChar: question
Encoding: 63 63 34
Width: 835
Flags: W
LayerCount: 2
Fore
SplineSet
467 157 m 0,0,1
 467 125 467 125 456 92 c 128,-1,2
 445 59 445 59 424 31.5 c 128,-1,3
 403 4 403 4 373 -13.5 c 128,-1,4
 343 -31 343 -31 306 -31 c 0,5,6
 260 -31 260 -31 235 -2.5 c 128,-1,7
 210 26 210 26 210 73 c 0,8,9
 210 103 210 103 222 135.5 c 128,-1,10
 234 168 234 168 255.5 194.5 c 128,-1,11
 277 221 277 221 306.5 238.5 c 128,-1,12
 336 256 336 256 371 256 c 0,13,14
 418 256 418 256 442.5 228.5 c 128,-1,15
 467 201 467 201 467 157 c 0,0,1
837 1186 m 0,16,17
 837 1099 837 1099 810.5 1033.5 c 128,-1,18
 784 968 784 968 743.5 914 c 128,-1,19
 703 860 703 860 654.5 813 c 128,-1,20
 606 766 606 766 562 717.5 c 128,-1,21
 518 669 518 669 485 614.5 c 128,-1,22
 452 560 452 560 442 490 c 2,23,-1
 430 397 l 1,24,25
 411 383 411 383 391 372 c 128,-1,26
 371 361 371 361 346 353 c 1,27,-1
 323 374 l 1,28,-1
 328 493 l 2,29,30
 330 558 330 558 354 614 c 128,-1,31
 378 670 378 670 413.5 720 c 128,-1,32
 449 770 449 770 490 817 c 128,-1,33
 531 864 531 864 566 913 c 128,-1,34
 601 962 601 962 624 1014.5 c 128,-1,35
 647 1067 647 1067 647 1128 c 0,36,37
 647 1222 647 1222 607 1276 c 128,-1,38
 567 1330 567 1330 488 1330 c 0,39,40
 449 1330 449 1330 419.5 1311.5 c 128,-1,41
 390 1293 390 1293 372 1261 c 128,-1,42
 354 1229 354 1229 349 1186.5 c 128,-1,43
 344 1144 344 1144 353 1096 c 1,44,45
 309 1076 309 1076 266.5 1065 c 128,-1,46
 224 1054 224 1054 180 1049 c 1,47,-1
 157 1083 l 1,48,49
 157 1147 157 1147 186.5 1209 c 128,-1,50
 216 1271 216 1271 271 1320 c 128,-1,51
 326 1369 326 1369 403.5 1399.5 c 128,-1,52
 481 1430 481 1430 576 1430 c 0,53,54
 642 1430 642 1430 691 1411 c 128,-1,55
 740 1392 740 1392 772.5 1359 c 128,-1,56
 805 1326 805 1326 821 1281.5 c 128,-1,57
 837 1237 837 1237 837 1186 c 0,16,17
EndSplineSet
EndChar

StartChar: at
Encoding: 64 64 35
Width: 1627
Flags: W
LayerCount: 2
Fore
SplineSet
1541 549 m 0,0,1
 1529 462 1529 462 1498.5 385 c 128,-1,2
 1468 308 1468 308 1426 242.5 c 128,-1,3
 1384 177 1384 177 1333.5 124.5 c 128,-1,4
 1283 72 1283 72 1231.5 35 c 128,-1,5
 1180 -2 1180 -2 1131.5 -21.5 c 128,-1,6
 1083 -41 1083 -41 1043 -41 c 0,7,8
 1026 -41 1026 -41 1007.5 -29.5 c 128,-1,9
 989 -18 989 -18 972.5 13 c 128,-1,10
 956 44 956 44 944.5 99 c 128,-1,11
 933 154 933 154 931 241 c 1,12,13
 906 196 906 196 873 146.5 c 128,-1,14
 840 97 840 97 802.5 55 c 128,-1,15
 765 13 765 13 725.5 -14 c 128,-1,16
 686 -41 686 -41 647 -41 c 0,17,18
 613 -41 613 -41 575 -22 c 128,-1,19
 537 -3 537 -3 504.5 38.5 c 128,-1,20
 472 80 472 80 450.5 145.5 c 128,-1,21
 429 211 429 211 429 305 c 0,22,23
 429 384 429 384 445.5 459.5 c 128,-1,24
 462 535 462 535 496 604 c 128,-1,25
 530 673 530 673 581.5 733.5 c 128,-1,26
 633 794 633 794 704 842 c 0,27,28
 731 860 731 860 764.5 877 c 128,-1,29
 798 894 798 894 833.5 907 c 128,-1,30
 869 920 869 920 904.5 928 c 128,-1,31
 940 936 940 936 972 936 c 0,32,33
 1012 936 1012 936 1048 917.5 c 128,-1,34
 1084 899 1084 899 1115 879 c 1,35,36
 1141 895 1141 895 1169 909 c 2,37,-1
 1223 936 l 1,38,-1
 1247 891 l 1,39,40
 1230 877 1230 877 1218.5 866 c 128,-1,41
 1207 855 1207 855 1199 840.5 c 128,-1,42
 1191 826 1191 826 1184.5 805 c 128,-1,43
 1178 784 1178 784 1171 750 c 0,44,45
 1156 678 1156 678 1143.5 605 c 128,-1,46
 1131 532 1131 532 1122 469 c 128,-1,47
 1113 406 1113 406 1108 357.5 c 128,-1,48
 1103 309 1103 309 1103 287 c 0,49,50
 1103 236 1103 236 1108 203.5 c 128,-1,51
 1113 171 1113 171 1121 151.5 c 128,-1,52
 1129 132 1129 132 1140 124.5 c 128,-1,53
 1151 117 1151 117 1163 117 c 0,54,55
 1188 117 1188 117 1222.5 146.5 c 128,-1,56
 1257 176 1257 176 1290.5 228.5 c 128,-1,57
 1324 281 1324 281 1351.5 353 c 128,-1,58
 1379 425 1379 425 1392 510 c 0,59,60
 1417 679 1417 679 1388 808.5 c 128,-1,61
 1359 938 1359 938 1291.5 1026 c 128,-1,62
 1224 1114 1224 1114 1127 1159 c 128,-1,63
 1030 1204 1030 1204 919 1204 c 0,64,65
 830 1204 830 1204 749.5 1177 c 128,-1,66
 669 1150 669 1150 599.5 1102.5 c 128,-1,67
 530 1055 530 1055 472 989 c 128,-1,68
 414 923 414 923 370 845.5 c 128,-1,69
 326 768 326 768 296.5 681 c 128,-1,70
 267 594 267 594 254 504 c 0,71,72
 229 322 229 322 265 182.5 c 128,-1,73
 301 43 301 43 381 -51.5 c 128,-1,74
 461 -146 461 -146 575 -195 c 128,-1,75
 689 -244 689 -244 820 -244 c 0,76,77
 897 -244 897 -244 972.5 -225 c 128,-1,78
 1048 -206 1048 -206 1114.5 -178.5 c 128,-1,79
 1181 -151 1181 -151 1234 -119.5 c 128,-1,80
 1287 -88 1287 -88 1319 -62 c 1,81,-1
 1340 -130 l 1,82,83
 1302 -168 1302 -168 1243 -211 c 128,-1,84
 1184 -254 1184 -254 1108.5 -290.5 c 128,-1,85
 1033 -327 1033 -327 942.5 -351 c 128,-1,86
 852 -375 852 -375 751 -375 c 0,87,88
 583 -375 583 -375 447 -316 c 128,-1,89
 311 -257 311 -257 219.5 -147.5 c 128,-1,90
 128 -38 128 -38 89 117.5 c 128,-1,91
 50 273 50 273 77 465 c 0,92,93
 93 577 93 577 134 685.5 c 128,-1,94
 175 794 175 794 237.5 890 c 128,-1,95
 300 986 300 986 381 1067.5 c 128,-1,96
 462 1149 462 1149 557.5 1208 c 128,-1,97
 653 1267 653 1267 760 1300 c 128,-1,98
 867 1333 867 1333 981 1333 c 0,99,100
 1071 1333 1071 1333 1152.5 1309.5 c 128,-1,101
 1234 1286 1234 1286 1302.5 1240.5 c 128,-1,102
 1371 1195 1371 1195 1423.5 1128.5 c 128,-1,103
 1476 1062 1476 1062 1508 974.5 c 128,-1,104
 1540 887 1540 887 1549.5 780.5 c 128,-1,105
 1559 674 1559 674 1541 549 c 0,0,1
944 403 m 1,106,107
 950 448 950 448 958.5 499 c 128,-1,108
 967 550 967 550 975.5 598.5 c 128,-1,109
 984 647 984 647 991 688.5 c 128,-1,110
 998 730 998 730 1003 755 c 1,111,112
 974 779 974 779 940 799 c 128,-1,113
 906 819 906 819 867 819 c 0,114,115
 823 819 823 819 786.5 797.5 c 128,-1,116
 750 776 750 776 719.5 740 c 128,-1,117
 689 704 689 704 666 658 c 128,-1,118
 643 612 643 612 627.5 563 c 128,-1,119
 612 514 612 514 604 466 c 128,-1,120
 596 418 596 418 596 379 c 0,121,122
 596 317 596 317 606 268.5 c 128,-1,123
 616 220 616 220 632.5 186 c 128,-1,124
 649 152 649 152 671 134 c 128,-1,125
 693 116 693 116 717 116 c 0,126,127
 739 116 739 116 766 140 c 128,-1,128
 793 164 793 164 823 204 c 128,-1,129
 853 244 853 244 884 295.5 c 128,-1,130
 915 347 915 347 944 403 c 1,106,107
EndSplineSet
EndChar

StartChar: A
Encoding: 65 65 36
Width: 1163
GlyphClass: 2
Flags: W
AnchorPoint: "Anchor-4" 1163 870 basechar 0
AnchorPoint: "Anchor-3" 854 0 basechar 0
AnchorPoint: "Anchor-2" 890 0 basechar 0
AnchorPoint: "Anchor-1" 510 -100 basechar 0
AnchorPoint: "Anchor-0" 701 1320 basechar 0
LayerCount: 2
Fore
SplineSet
371 439 m 1,0,-1
 233 121 l 2,1,2
 220 90 220 90 249.5 77 c 128,-1,3
 279 64 279 64 355 53 c 1,4,-1
 348 0 l 1,5,-1
 -40 0 l 1,6,-1
 -33 53 l 1,7,8
 31 65 31 65 68 78.5 c 128,-1,9
 105 92 105 92 118 121 c 2,10,-1
 599 1221 l 1,11,12
 616 1236 616 1236 637.5 1250 c 128,-1,13
 659 1264 659 1264 681.5 1276.5 c 128,-1,14
 704 1289 704 1289 725.5 1299.5 c 128,-1,15
 747 1310 747 1310 764 1317 c 1,16,-1
 983 121 l 2,17,18
 986 107 986 107 991.5 96.5 c 128,-1,19
 997 86 997 86 1009 77.5 c 128,-1,20
 1021 69 1021 69 1040.5 63 c 128,-1,21
 1060 57 1060 57 1092 53 c 1,22,-1
 1086 0 l 1,23,-1
 676 0 l 1,24,-1
 682 53 l 1,25,26
 753 58 753 58 783 73.5 c 128,-1,27
 813 89 813 89 807 121 c 2,28,-1
 751 439 l 1,29,-1
 371 439 l 1,0,-1
732 540 m 1,30,-1
 640 1060 l 1,31,-1
 415 540 l 1,32,-1
 732 540 l 1,30,-1
EndSplineSet
EndChar

StartChar: B
Encoding: 66 66 37
Width: 1039
GlyphClass: 2
Flags: W
AnchorPoint: "Anchor-4" 1039 870 basechar 0
AnchorPoint: "Anchor-3" 427 -100 basechar 0
AnchorPoint: "Anchor-2" 427 -100 basechar 0
AnchorPoint: "Anchor-1" 427 -100 basechar 0
AnchorPoint: "Anchor-0" 619 1320 basechar 0
LayerCount: 2
Fore
SplineSet
964 410 m 0,0,1
 964 312 964 312 924.5 231 c 128,-1,2
 885 150 885 150 818 92 c 128,-1,3
 751 34 751 34 661 1.5 c 128,-1,4
 571 -31 571 -31 471 -31 c 0,5,6
 451 -31 451 -31 422.5 -30 c 128,-1,7
 394 -29 394 -29 361.5 -26.5 c 128,-1,8
 329 -24 329 -24 294 -21.5 c 128,-1,9
 259 -19 259 -19 226 -16 c 0,10,11
 148 -9 148 -9 61 0 c 1,12,-1
 -3 0 l 1,13,-1
 4 53 l 1,14,15
 67 67 67 67 103.5 83.5 c 128,-1,16
 140 100 140 100 142 114 c 2,17,-1
 289 1185 l 1,18,19
 246 1180 246 1180 210 1173 c 128,-1,20
 174 1166 174 1166 139 1158 c 1,21,-1
 139 1227 l 1,22,23
 231 1253 231 1253 340 1271.5 c 128,-1,24
 449 1290 449 1290 588 1290 c 0,25,26
 765 1290 765 1290 861.5 1224 c 128,-1,27
 958 1158 958 1158 958 1040 c 0,28,29
 958 988 958 988 941.5 939.5 c 128,-1,30
 925 891 925 891 894.5 849.5 c 128,-1,31
 864 808 864 808 821.5 775.5 c 128,-1,32
 779 743 779 743 727 723 c 1,33,34
 779 712 779 712 823 684.5 c 128,-1,35
 867 657 867 657 898 615.5 c 128,-1,36
 929 574 929 574 946.5 522 c 128,-1,37
 964 470 964 470 964 410 c 0,0,1
528 644 m 0,38,39
 484 644 484 644 451.5 639.5 c 128,-1,40
 419 635 419 635 388 630 c 1,41,-1
 317 114 l 1,42,43
 315 107 315 107 329 94 c 1,44,45
 365 76 365 76 412.5 69.5 c 128,-1,46
 460 63 460 63 502 63 c 0,47,48
 566 63 566 63 617 89 c 128,-1,49
 668 115 668 115 704 158.5 c 128,-1,50
 740 202 740 202 759 258 c 128,-1,51
 778 314 778 314 778 375 c 0,52,53
 778 425 778 425 764.5 473 c 128,-1,54
 751 521 751 521 721.5 559 c 128,-1,55
 692 597 692 597 644.5 620.5 c 128,-1,56
 597 644 597 644 528 644 c 0,38,39
556 1199 m 2,57,-1
 508 1199 l 2,58,59
 486 1199 486 1199 466 1198 c 1,60,-1
 402 730 l 1,61,-1
 434 730 l 2,62,63
 498 730 498 730 559 741.5 c 128,-1,64
 620 753 620 753 667.5 782.5 c 128,-1,65
 715 812 715 812 743.5 861.5 c 128,-1,66
 772 911 772 911 772 987 c 0,67,68
 772 1047 772 1047 751 1087.5 c 128,-1,69
 730 1128 730 1128 698.5 1152.5 c 128,-1,70
 667 1177 667 1177 628.5 1188 c 128,-1,71
 590 1199 590 1199 556 1199 c 2,57,-1
EndSplineSet
EndChar

StartChar: C
Encoding: 67 67 38
Width: 1010
GlyphClass: 2
Flags: W
AnchorPoint: "Anchor-4" 1010 870 basechar 0
AnchorPoint: "Anchor-3" 499 -100 basechar 0
AnchorPoint: "Anchor-2" 473 0 basechar 0
AnchorPoint: "Anchor-1" 499 -100 basechar 0
AnchorPoint: "Anchor-0" 691 1320 basechar 0
LayerCount: 2
Fore
SplineSet
1036 1190 m 0,0,1
 1040 1185 1040 1185 1028 1164 c 128,-1,2
 1016 1143 1016 1143 997 1117 c 128,-1,3
 978 1091 978 1091 957.5 1066 c 128,-1,4
 937 1041 937 1041 924 1030 c 1,5,-1
 884 1040 l 1,6,7
 866 1065 866 1065 843 1088 c 128,-1,8
 820 1111 820 1111 791 1127.5 c 128,-1,9
 762 1144 762 1144 727.5 1154 c 128,-1,10
 693 1164 693 1164 652 1164 c 0,11,12
 612 1164 612 1164 566.5 1147.5 c 128,-1,13
 521 1131 521 1131 481 1100 c 0,14,15
 418 1051 418 1051 374.5 977 c 128,-1,16
 331 903 331 903 303.5 821.5 c 128,-1,17
 276 740 276 740 264 659.5 c 128,-1,18
 252 579 252 579 252 516 c 0,19,20
 252 407 252 407 281 329.5 c 128,-1,21
 310 252 310 252 355 203 c 128,-1,22
 400 154 400 154 454 131.5 c 128,-1,23
 508 109 508 109 558 109 c 0,24,25
 585 109 585 109 618 116 c 128,-1,26
 651 123 651 123 691.5 141 c 128,-1,27
 732 159 732 159 780 189 c 128,-1,28
 828 219 828 219 886 264 c 1,29,30
 891 262 891 262 895.5 254.5 c 128,-1,31
 900 247 900 247 904 238.5 c 128,-1,32
 908 230 908 230 911.5 222 c 128,-1,33
 915 214 915 214 917 211 c 1,34,35
 849 143 849 143 788 97.5 c 128,-1,36
 727 52 727 52 670.5 24 c 128,-1,37
 614 -4 614 -4 563 -15.5 c 128,-1,38
 512 -27 512 -27 465 -27 c 0,39,40
 386 -27 386 -27 314.5 5.5 c 128,-1,41
 243 38 243 38 189 100 c 128,-1,42
 135 162 135 162 103 252.5 c 128,-1,43
 71 343 71 343 71 459 c 0,44,45
 71 553 71 553 90 650.5 c 128,-1,46
 109 748 109 748 148.5 840.5 c 128,-1,47
 188 933 188 933 249.5 1016.5 c 128,-1,48
 311 1100 311 1100 395 1167 c 0,49,50
 468 1224 468 1224 557.5 1257 c 128,-1,51
 647 1290 647 1290 741 1290 c 0,52,53
 840 1290 840 1290 916 1261 c 128,-1,54
 992 1232 992 1232 1036 1190 c 0,0,1
EndSplineSet
EndChar

StartChar: D
Encoding: 68 68 39
Width: 1148
GlyphClass: 2
Flags: W
AnchorPoint: "Anchor-4" 1148 870 basechar 0
AnchorPoint: "Anchor-3" 480 -100 basechar 0
AnchorPoint: "Anchor-2" 480 -100 basechar 0
AnchorPoint: "Anchor-1" 480 -100 basechar 0
AnchorPoint: "Anchor-0" 673 1320 basechar 0
LayerCount: 2
Fore
SplineSet
527 1199 m 0,0,1
 512 1199 512 1199 497 1198.5 c 128,-1,2
 482 1198 482 1198 467 1197 c 1,3,-1
 324 147 l 2,4,5
 322 132 322 132 327.5 122 c 128,-1,6
 333 112 333 112 349.5 105 c 128,-1,7
 366 98 366 98 395.5 95 c 128,-1,8
 425 92 425 92 470 92 c 0,9,10
 542 92 542 92 603.5 119.5 c 128,-1,11
 665 147 665 147 715 194 c 128,-1,12
 765 241 765 241 803.5 304 c 128,-1,13
 842 367 842 367 867.5 437.5 c 128,-1,14
 893 508 893 508 906.5 582.5 c 128,-1,15
 920 657 920 657 920 727 c 0,16,17
 920 834 920 834 895.5 921 c 128,-1,18
 871 1008 871 1008 822 1070 c 128,-1,19
 773 1132 773 1132 699 1165.5 c 128,-1,20
 625 1199 625 1199 527 1199 c 0,0,1
1112 748 m 0,21,22
 1112 660 1112 660 1093.5 570.5 c 128,-1,23
 1075 481 1075 481 1039.5 398 c 128,-1,24
 1004 315 1004 315 951 242 c 128,-1,25
 898 169 898 169 829 115.5 c 128,-1,26
 760 62 760 62 675 31 c 128,-1,27
 590 0 590 0 491 0 c 2,28,-1
 -3 0 l 1,29,-1
 5 53 l 1,30,31
 68 67 68 67 104.5 83.5 c 128,-1,32
 141 100 141 100 143 114 c 2,33,-1
 290 1182 l 1,34,-1
 141 1164 l 1,35,-1
 141 1237 l 1,36,37
 256 1265 256 1265 374.5 1277.5 c 128,-1,38
 493 1290 493 1290 596 1290 c 0,39,40
 722 1290 722 1290 818.5 1251.5 c 128,-1,41
 915 1213 915 1213 980.5 1142.5 c 128,-1,42
 1046 1072 1046 1072 1079 972 c 128,-1,43
 1112 872 1112 872 1112 748 c 0,21,22
EndSplineSet
EndChar

StartChar: E
Encoding: 69 69 40
Width: 967
GlyphClass: 2
Flags: W
AnchorPoint: "Anchor-4" 967 870 basechar 0
AnchorPoint: "Anchor-3" 633 0 basechar 0
AnchorPoint: "Anchor-2" 423 0 basechar 0
AnchorPoint: "Anchor-1" 409 -100 basechar 0
AnchorPoint: "Anchor-0" 600 1320 basechar 0
LayerCount: 2
Fore
SplineSet
886 264 m 1,0,1
 876 221 876 221 865.5 180 c 128,-1,2
 855 139 855 139 845 103.5 c 128,-1,3
 835 68 835 68 826.5 41.5 c 128,-1,4
 818 15 818 15 812 0 c 1,5,-1
 -3 0 l 1,6,-1
 5 53 l 1,7,8
 68 67 68 67 105 83.5 c 128,-1,9
 142 100 142 100 144 114 c 2,10,-1
 287 1145 l 2,11,12
 289 1157 289 1157 259 1175 c 128,-1,13
 229 1193 229 1193 164 1207 c 1,14,-1
 171 1260 l 1,15,-1
 935 1260 l 1,16,-1
 962 1233 l 1,17,18
 957 1207 957 1207 949 1173.5 c 128,-1,19
 941 1140 941 1140 931 1105.5 c 128,-1,20
 921 1071 921 1071 910.5 1040 c 128,-1,21
 900 1009 900 1009 892 990 c 1,22,-1
 840 990 l 1,23,24
 849 1082 849 1082 835.5 1120.5 c 128,-1,25
 822 1159 822 1159 787 1159 c 2,26,-1
 460 1159 l 1,27,-1
 402 735 l 1,28,-1
 775 735 l 1,29,-1
 797 705 l 1,30,31
 787 691 787 691 774.5 674.5 c 128,-1,32
 762 658 762 658 748.5 642 c 128,-1,33
 735 626 735 626 721.5 612.5 c 128,-1,34
 708 599 708 599 697 590 c 1,35,36
 682 606 682 606 665 617 c 128,-1,37
 648 628 648 628 623 634 c 128,-1,38
 598 640 598 640 562.5 642.5 c 128,-1,39
 527 645 527 645 475 645 c 2,40,-1
 390 645 l 1,41,-1
 325 164 l 2,42,43
 323 149 323 149 328 137.5 c 128,-1,44
 333 126 333 126 352 117.5 c 128,-1,45
 371 109 371 109 407.5 104.5 c 128,-1,46
 444 100 444 100 504 100 c 2,47,-1
 615 100 l 2,48,49
 657 100 657 100 687 107 c 128,-1,50
 717 114 717 114 741.5 134 c 128,-1,51
 766 154 766 154 788.5 190 c 128,-1,52
 811 226 811 226 839 285 c 1,53,-1
 886 264 l 1,0,1
EndSplineSet
EndChar

StartChar: F
Encoding: 70 70 41
Width: 912
GlyphClass: 2
Flags: W
AnchorPoint: "Anchor-4" 912 870 basechar 0
AnchorPoint: "Anchor-3" 385 -100 basechar 0
AnchorPoint: "Anchor-2" 385 -100 basechar 0
AnchorPoint: "Anchor-1" 385 -100 basechar 0
AnchorPoint: "Anchor-0" 576 1320 basechar 0
LayerCount: 2
Fore
SplineSet
970 1233 m 1,0,1
 965 1207 965 1207 957 1173.5 c 128,-1,2
 949 1140 949 1140 939 1105.5 c 128,-1,3
 929 1071 929 1071 919 1040 c 128,-1,4
 909 1009 909 1009 901 990 c 1,5,-1
 850 990 l 1,6,7
 857 1082 857 1082 843.5 1120.5 c 128,-1,8
 830 1159 830 1159 795 1159 c 2,9,-1
 460 1159 l 1,10,-1
 402 735 l 1,11,-1
 729 735 l 1,12,-1
 754 705 l 1,13,14
 743 690 743 690 730 673.5 c 128,-1,15
 717 657 717 657 703.5 641 c 128,-1,16
 690 625 690 625 677 612 c 128,-1,17
 664 599 664 599 654 590 c 1,18,19
 638 606 638 606 620 617 c 128,-1,20
 602 628 602 628 579.5 634 c 128,-1,21
 557 640 557 640 529.5 642.5 c 128,-1,22
 502 645 502 645 468 645 c 2,23,-1
 389 645 l 1,24,-1
 317 114 l 2,25,26
 315 102 315 102 348 87 c 128,-1,27
 381 72 381 72 468 53 c 1,28,-1
 461 0 l 1,29,-1
 -3 0 l 1,30,-1
 5 53 l 1,31,32
 68 67 68 67 105 83.5 c 128,-1,33
 142 100 142 100 144 114 c 2,34,-1
 287 1145 l 2,35,36
 289 1157 289 1157 259 1175 c 128,-1,37
 229 1193 229 1193 164 1207 c 1,38,-1
 171 1260 l 1,39,-1
 944 1260 l 1,40,-1
 970 1233 l 1,0,1
EndSplineSet
EndChar

StartChar: G
Encoding: 71 71 42
Width: 1089
GlyphClass: 2
Flags: W
AnchorPoint: "Anchor-4" 1089 870 basechar 0
AnchorPoint: "Anchor-3" 533 -100 basechar 0
AnchorPoint: "Anchor-2" 528 0 basechar 0
AnchorPoint: "Anchor-1" 533 -100 basechar 0
AnchorPoint: "Anchor-0" 726 1320 basechar 0
LayerCount: 2
Fore
SplineSet
1078 542 m 1,0,1
 1024 526 1024 526 999 504.5 c 128,-1,2
 974 483 974 483 971 460 c 0,3,4
 967 433 967 433 961.5 390 c 128,-1,5
 956 347 956 347 950 302 c 128,-1,6
 944 257 944 257 939 217.5 c 128,-1,7
 934 178 934 178 932 159 c 1,8,9
 856 98 856 98 796 61 c 128,-1,10
 736 24 736 24 686 3.5 c 128,-1,11
 636 -17 636 -17 593 -24 c 128,-1,12
 550 -31 550 -31 510 -31 c 0,13,14
 424 -31 424 -31 344.5 3.5 c 128,-1,15
 265 38 265 38 204.5 103 c 128,-1,16
 144 168 144 168 107.5 263 c 128,-1,17
 71 358 71 358 71 478 c 0,18,19
 71 573 71 573 93 668 c 128,-1,20
 115 763 115 763 155 850 c 128,-1,21
 195 937 195 937 250.5 1012 c 128,-1,22
 306 1087 306 1087 374 1141 c 0,23,24
 459 1210 459 1210 563.5 1250 c 128,-1,25
 668 1290 668 1290 796 1290 c 0,26,27
 827 1290 827 1290 865 1283 c 128,-1,28
 903 1276 903 1276 941.5 1263 c 128,-1,29
 980 1250 980 1250 1014.5 1231 c 128,-1,30
 1049 1212 1049 1212 1075 1188 c 0,31,32
 1081 1183 1081 1183 1069 1161.5 c 128,-1,33
 1057 1140 1057 1140 1037.5 1114.5 c 128,-1,34
 1018 1089 1018 1089 996.5 1065 c 128,-1,35
 975 1041 975 1041 961 1030 c 1,36,-1
 923 1038 l 1,37,38
 876 1105 876 1105 813.5 1137 c 128,-1,39
 751 1169 751 1169 657 1169 c 0,40,41
 617 1169 617 1169 564.5 1143.5 c 128,-1,42
 512 1118 512 1118 459 1073 c 0,43,44
 412 1034 412 1034 373.5 969 c 128,-1,45
 335 904 335 904 307.5 827.5 c 128,-1,46
 280 751 280 751 265 671 c 128,-1,47
 250 591 250 591 250 521 c 0,48,49
 250 414 250 414 281 336 c 128,-1,50
 312 258 312 258 360.5 207.5 c 128,-1,51
 409 157 409 157 469 132.5 c 128,-1,52
 529 108 529 108 588 108 c 0,53,54
 636 108 636 108 683.5 121.5 c 128,-1,55
 731 135 731 135 766 161 c 1,56,-1
 806 460 l 2,57,58
 807 470 807 470 802.5 480 c 128,-1,59
 798 490 798 490 776 500 c 128,-1,60
 754 510 754 510 710.5 520 c 128,-1,61
 667 530 667 530 592 542 c 1,62,-1
 598 595 l 1,63,-1
 1084 595 l 1,64,-1
 1078 542 l 1,0,1
EndSplineSet
EndChar

StartChar: H
Encoding: 72 72 43
Width: 1259
GlyphClass: 2
Flags: W
AnchorPoint: "Anchor-4" 1259 870 basechar 0
AnchorPoint: "Anchor-3" 557 -100 basechar 0
AnchorPoint: "Anchor-2" 236 0 basechar 0
AnchorPoint: "Anchor-1" 557 -100 basechar 0
AnchorPoint: "Anchor-0" 750 1320 basechar 0
LayerCount: 2
Fore
SplineSet
599 1207 m 1,0,1
 536 1193 536 1193 499 1176 c 128,-1,2
 462 1159 462 1159 459 1145 c 1,3,-1
 400 710 l 1,4,-1
 931 710 l 1,5,-1
 991 1145 l 2,6,7
 993 1157 993 1157 963 1175 c 128,-1,8
 933 1193 933 1193 869 1207 c 1,9,-1
 875 1260 l 1,10,-1
 1312 1260 l 1,11,-1
 1305 1207 l 1,12,13
 1241 1193 1241 1193 1204 1176 c 128,-1,14
 1167 1159 1167 1159 1165 1145 c 2,15,-1
 1023 114 l 2,16,17
 1021 102 1021 102 1051 84.5 c 128,-1,18
 1081 67 1081 67 1146 53 c 1,19,-1
 1139 0 l 1,20,-1
 703 0 l 1,21,-1
 711 53 l 1,22,23
 775 67 775 67 811 83.5 c 128,-1,24
 847 100 847 100 849 114 c 2,25,-1
 917 609 l 1,26,-1
 386 609 l 1,27,-1
 319 114 l 1,28,29
 316 102 316 102 346 84.5 c 128,-1,30
 376 67 376 67 440 53 c 1,31,-1
 433 0 l 1,32,-1
 -3 0 l 1,33,-1
 5 53 l 1,34,35
 68 67 68 67 105 83.5 c 128,-1,36
 142 100 142 100 144 114 c 2,37,-1
 287 1145 l 2,38,39
 289 1157 289 1157 259 1175 c 128,-1,40
 229 1193 229 1193 164 1207 c 1,41,-1
 171 1260 l 1,42,-1
 607 1260 l 1,43,-1
 599 1207 l 1,0,1
EndSplineSet
EndChar

StartChar: I
Encoding: 73 73 44
Width: 593
GlyphClass: 2
Flags: W
AnchorPoint: "Anchor-4" 593 870 basechar 0
AnchorPoint: "Anchor-3" 295 0 basechar 0
AnchorPoint: "Anchor-2" 233 0 basechar 0
AnchorPoint: "Anchor-1" 221 -100 basechar 0
AnchorPoint: "Anchor-0" 413 1320 basechar 0
LayerCount: 2
Fore
SplineSet
619 1207 m 1,0,1
 556 1193 556 1193 519 1176 c 128,-1,2
 482 1159 482 1159 480 1145 c 2,3,-1
 337 114 l 2,4,5
 335 102 335 102 365 84.5 c 128,-1,6
 395 67 395 67 460 53 c 1,7,-1
 453 0 l 1,8,-1
 18 0 l 1,9,-1
 26 53 l 1,10,11
 89 67 89 67 125.5 83.5 c 128,-1,12
 162 100 162 100 165 114 c 1,13,-1
 305 1145 l 2,14,15
 307 1157 307 1157 277 1175 c 128,-1,16
 247 1193 247 1193 184 1207 c 1,17,-1
 192 1260 l 1,18,-1
 626 1260 l 1,19,-1
 619 1207 l 1,0,1
EndSplineSet
EndChar

StartChar: J
Encoding: 74 74 45
Width: 598
GlyphClass: 2
Flags: W
AnchorPoint: "Anchor-4" 598 870 basechar 0
AnchorPoint: "Anchor-3" 171 -600 basechar 0
AnchorPoint: "Anchor-2" 171 -600 basechar 0
AnchorPoint: "Anchor-1" 171 -600 basechar 0
AnchorPoint: "Anchor-0" 440 1320 basechar 0
LayerCount: 2
Fore
SplineSet
644 1207 m 1,0,1
 581 1193 581 1193 543.5 1176 c 128,-1,2
 506 1159 506 1159 504 1145 c 2,3,-1
 375 205 l 2,4,5
 359 89 359 89 331.5 9 c 128,-1,6
 304 -71 304 -71 269 -126.5 c 128,-1,7
 234 -182 234 -182 194 -219.5 c 128,-1,8
 154 -257 154 -257 113 -289 c 0,9,10
 86 -310 86 -310 53 -328 c 128,-1,11
 20 -346 20 -346 -13.5 -359 c 128,-1,12
 -47 -372 -47 -372 -77.5 -379 c 128,-1,13
 -108 -386 -108 -386 -130 -386 c 0,14,15
 -161 -386 -161 -386 -189.5 -376.5 c 128,-1,16
 -218 -367 -218 -367 -240 -353.5 c 128,-1,17
 -262 -340 -262 -340 -275.5 -325.5 c 128,-1,18
 -289 -311 -289 -311 -289 -301 c 256,19,20
 -289 -291 -289 -291 -272 -271 c 128,-1,21
 -255 -251 -255 -251 -232.5 -231 c 128,-1,22
 -210 -211 -210 -211 -186.5 -196 c 128,-1,23
 -163 -181 -163 -181 -151 -181 c 0,24,25
 -141 -181 -141 -181 -129 -191.5 c 128,-1,26
 -117 -202 -117 -202 -100.5 -214.5 c 128,-1,27
 -84 -227 -84 -227 -61.5 -237.5 c 128,-1,28
 -39 -248 -39 -248 -8 -248 c 0,29,30
 16 -248 16 -248 44 -232.5 c 128,-1,31
 72 -217 72 -217 99.5 -175 c 128,-1,32
 127 -133 127 -133 151.5 -58.5 c 128,-1,33
 176 16 176 16 192 133 c 2,34,-1
 331 1145 l 2,35,36
 332 1151 332 1151 326 1158 c 128,-1,37
 320 1165 320 1165 301.5 1173 c 128,-1,38
 283 1181 283 1181 250 1189.5 c 128,-1,39
 217 1198 217 1198 163 1207 c 1,40,-1
 169 1260 l 1,41,-1
 652 1260 l 1,42,-1
 644 1207 l 1,0,1
EndSplineSet
EndChar

StartChar: K
Encoding: 75 75 46
Width: 1136
GlyphClass: 2
Flags: W
AnchorPoint: "Anchor-4" 1136 870 basechar 0
AnchorPoint: "Anchor-3" 528 -100 basechar 0
AnchorPoint: "Anchor-2" 213 0 basechar 0
AnchorPoint: "Anchor-1" 528 -100 basechar 0
AnchorPoint: "Anchor-0" 721 1320 basechar 0
LayerCount: 2
Fore
SplineSet
599 1207 m 1,0,1
 536 1193 536 1193 499 1176 c 128,-1,2
 462 1159 462 1159 459 1145 c 1,3,-1
 392 652 l 1,4,-1
 834 1118 l 2,5,6
 859 1145 859 1145 868 1161 c 128,-1,7
 877 1177 877 1177 870.5 1186 c 128,-1,8
 864 1195 864 1195 843 1199.5 c 128,-1,9
 822 1204 822 1204 787 1207 c 1,10,-1
 794 1260 l 1,11,-1
 1188 1260 l 1,12,-1
 1181 1207 l 1,13,14
 1150 1203 1150 1203 1127.5 1199 c 128,-1,15
 1105 1195 1105 1195 1086.5 1188 c 128,-1,16
 1068 1181 1068 1181 1052.5 1171 c 128,-1,17
 1037 1161 1037 1161 1021 1145 c 2,18,-1
 543 672 l 1,19,-1
 894 172 l 2,20,21
 908 152 908 152 925.5 142 c 128,-1,22
 943 132 943 132 966.5 131 c 128,-1,23
 990 130 990 130 1021 138.5 c 128,-1,24
 1052 147 1052 147 1093 164 c 1,25,-1
 1114 116 l 1,26,27
 1078 88 1078 88 1039 64 c 128,-1,28
 1000 40 1000 40 963.5 23 c 128,-1,29
 927 6 927 6 896 -4 c 128,-1,30
 865 -14 865 -14 845 -14 c 0,31,32
 815 -14 815 -14 794.5 -2.5 c 128,-1,33
 774 9 774 9 752 46 c 2,34,-1
 389 632 l 1,35,-1
 319 114 l 1,36,37
 316 102 316 102 346 84.5 c 128,-1,38
 376 67 376 67 440 53 c 1,39,-1
 433 0 l 1,40,-1
 -3 0 l 1,41,-1
 5 53 l 1,42,43
 68 67 68 67 105 83.5 c 128,-1,44
 142 100 142 100 144 114 c 2,45,-1
 287 1145 l 2,46,47
 289 1157 289 1157 259 1175 c 128,-1,48
 229 1193 229 1193 164 1207 c 1,49,-1
 171 1260 l 1,50,-1
 607 1260 l 1,51,-1
 599 1207 l 1,0,1
EndSplineSet
EndChar

StartChar: L
Encoding: 76 76 47
Width: 943
GlyphClass: 2
Flags: W
AnchorPoint: "Anchor-4" 749 870 basechar 0
AnchorPoint: "Anchor-3" 407 -100 basechar 0
AnchorPoint: "Anchor-2" 219 0 basechar 0
AnchorPoint: "Anchor-1" 407 -100 basechar 0
AnchorPoint: "Anchor-0" 568 1320 basechar 0
LayerCount: 2
Fore
SplineSet
878 264 m 1,0,1
 868 221 868 221 857.5 180 c 128,-1,2
 847 139 847 139 836.5 103.5 c 128,-1,3
 826 68 826 68 817 41.5 c 128,-1,4
 808 15 808 15 802 0 c 1,5,-1
 -3 0 l 1,6,-1
 5 53 l 1,7,8
 68 67 68 67 105 83.5 c 128,-1,9
 142 100 142 100 144 114 c 2,10,-1
 287 1145 l 2,11,12
 289 1157 289 1157 259 1175 c 128,-1,13
 229 1193 229 1193 164 1207 c 1,14,-1
 171 1260 l 1,15,-1
 607 1260 l 1,16,-1
 599 1207 l 1,17,18
 536 1193 536 1193 499 1176 c 128,-1,19
 462 1159 462 1159 459 1145 c 1,20,-1
 325 167 l 2,21,22
 323 149 323 149 329 136.5 c 128,-1,23
 335 124 335 124 353.5 115.5 c 128,-1,24
 372 107 372 107 404.5 103.5 c 128,-1,25
 437 100 437 100 487 100 c 2,26,-1
 607 100 l 2,27,28
 649 100 649 100 678.5 107 c 128,-1,29
 708 114 708 114 732.5 134 c 128,-1,30
 757 154 757 154 780 190 c 128,-1,31
 803 226 803 226 831 285 c 1,32,-1
 878 264 l 1,0,1
EndSplineSet
EndChar

StartChar: M
Encoding: 77 77 48
Width: 1543
GlyphClass: 2
Flags: W
AnchorPoint: "Anchor-4" 1543 870 basechar 0
AnchorPoint: "Anchor-3" 706 -100 basechar 0
AnchorPoint: "Anchor-2" 706 -100 basechar 0
AnchorPoint: "Anchor-1" 706 -100 basechar 0
AnchorPoint: "Anchor-0" 898 1320 basechar 0
LayerCount: 2
Fore
SplineSet
1565 1207 m 1,0,1
 1539 1207 1539 1207 1505 1198 c 128,-1,2
 1471 1189 1471 1189 1435 1174 c 1,3,-1
 1313 114 l 2,4,5
 1311 102 1311 102 1343.5 84.5 c 128,-1,6
 1376 67 1376 67 1441 53 c 1,7,-1
 1434 0 l 1,8,-1
 1000 0 l 1,9,-1
 1007 53 l 1,10,11
 1071 67 1071 67 1111 83.5 c 128,-1,12
 1151 100 1151 100 1153 114 c 2,13,-1
 1258 1023 l 1,14,-1
 724 0 l 1,15,-1
 668 0 l 1,16,-1
 396 1015 l 1,17,-1
 265 114 l 2,18,19
 263 102 263 102 292.5 84.5 c 128,-1,20
 322 67 322 67 387 53 c 1,21,-1
 380 0 l 1,22,-1
 5 0 l 1,23,-1
 12 53 l 1,24,25
 77 67 77 67 112.5 83.5 c 128,-1,26
 148 100 148 100 150 114 c 2,27,-1
 304 1170 l 1,28,29
 273 1190 273 1190 240 1198.5 c 128,-1,30
 207 1207 207 1207 181 1207 c 1,31,-1
 188 1260 l 1,32,-1
 472 1260 l 2,33,34
 481 1260 481 1260 486.5 1257 c 128,-1,35
 492 1254 492 1254 497.5 1245 c 128,-1,36
 503 1236 503 1236 508 1219.5 c 128,-1,37
 513 1203 513 1203 520 1176 c 2,38,-1
 762 302 l 1,39,-1
 1221 1176 l 2,40,41
 1235 1203 1235 1203 1245 1219.5 c 128,-1,42
 1255 1236 1255 1236 1262.5 1245 c 128,-1,43
 1270 1254 1270 1254 1277 1257 c 128,-1,44
 1284 1260 1284 1260 1293 1260 c 2,45,-1
 1571 1260 l 1,46,-1
 1565 1207 l 1,0,1
EndSplineSet
EndChar

StartChar: N
Encoding: 78 78 49
Width: 1248
GlyphClass: 2
Flags: W
AnchorPoint: "Anchor-4" 1248 870 basechar 0
AnchorPoint: "Anchor-3" 551 -100 basechar 0
AnchorPoint: "Anchor-2" 953 0 basechar 0
AnchorPoint: "Anchor-1" 551 -100 basechar 0
AnchorPoint: "Anchor-0" 744 1320 basechar 0
LayerCount: 2
Fore
SplineSet
1306 1207 m 1,0,1
 1239 1197 1239 1197 1206 1179.5 c 128,-1,2
 1173 1162 1173 1162 1171 1145 c 2,3,-1
 1008 -31 l 1,4,5
 951 -24 951 -24 916.5 -5.5 c 128,-1,6
 882 13 882 13 859 57 c 2,7,-1
 378 977 l 1,8,-1
 260 114 l 2,9,10
 258 102 258 102 284.5 83 c 128,-1,11
 311 64 311 64 380 53 c 1,12,-1
 373 0 l 1,13,-1
 -1 0 l 1,14,-1
 7 53 l 1,15,16
 75 62 75 62 108 81 c 128,-1,17
 141 100 141 100 143 114 c 2,18,-1
 285 1141 l 1,19,20
 259 1171 259 1171 228.5 1185.5 c 128,-1,21
 198 1200 198 1200 158 1207 c 1,22,-1
 165 1260 l 1,23,-1
 369 1260 l 2,24,25
 389 1260 389 1260 400.5 1258.5 c 128,-1,26
 412 1257 412 1257 421 1249.5 c 128,-1,27
 430 1242 430 1242 439 1226 c 128,-1,28
 448 1210 448 1210 462 1182 c 2,29,-1
 936 282 l 1,30,-1
 1054 1145 l 2,31,32
 1055 1151 1055 1151 1049.5 1159.5 c 128,-1,33
 1044 1168 1044 1168 1030 1176.5 c 128,-1,34
 1016 1185 1016 1185 992.5 1193 c 128,-1,35
 969 1201 969 1201 933 1207 c 1,36,-1
 940 1260 l 1,37,-1
 1313 1260 l 1,38,-1
 1306 1207 l 1,0,1
EndSplineSet
EndChar

StartChar: O
Encoding: 79 79 50
Width: 1135
GlyphClass: 2
Flags: W
AnchorPoint: "Anchor-4" 1015 870 basechar 0
AnchorPoint: "Anchor-3" 574 0 basechar 0
AnchorPoint: "Anchor-2" 510 0 basechar 0
AnchorPoint: "Anchor-1" 515 -100 basechar 0
AnchorPoint: "Anchor-0" 707 1320 basechar 0
LayerCount: 2
Fore
SplineSet
930 756 m 0,0,1
 930 840 930 840 912.5 914.5 c 128,-1,2
 895 989 895 989 861.5 1044 c 128,-1,3
 828 1099 828 1099 778.5 1131 c 128,-1,4
 729 1163 729 1163 665 1163 c 0,5,6
 594 1163 594 1163 537 1134 c 128,-1,7
 480 1105 480 1105 435.5 1055.5 c 128,-1,8
 391 1006 391 1006 359.5 942 c 128,-1,9
 328 878 328 878 307.5 807.5 c 128,-1,10
 287 737 287 737 277 666 c 128,-1,11
 267 595 267 595 267 532 c 0,12,13
 267 439 267 439 285.5 360 c 128,-1,14
 304 281 304 281 338.5 224 c 128,-1,15
 373 167 373 167 422 135 c 128,-1,16
 471 103 471 103 531 103 c 0,17,18
 604 103 604 103 661.5 133.5 c 128,-1,19
 719 164 719 164 763.5 215.5 c 128,-1,20
 808 267 808 267 839.5 334 c 128,-1,21
 871 401 871 401 891 473.5 c 128,-1,22
 911 546 911 546 920.5 619 c 128,-1,23
 930 692 930 692 930 756 c 0,0,1
1109 774 m 0,24,25
 1109 703 1109 703 1096.5 630 c 128,-1,26
 1084 557 1084 557 1060 486 c 128,-1,27
 1036 415 1036 415 1001 348.5 c 128,-1,28
 966 282 966 282 921 225 c 0,29,30
 879 171 879 171 830 124.5 c 128,-1,31
 781 78 781 78 725.5 43.5 c 128,-1,32
 670 9 670 9 609 -11 c 128,-1,33
 548 -31 548 -31 481 -31 c 0,34,35
 383 -31 383 -31 309 10 c 128,-1,36
 235 51 235 51 185 121.5 c 128,-1,37
 135 192 135 192 110 286 c 128,-1,38
 85 380 85 380 85 485 c 0,39,40
 85 552 85 552 97 623 c 128,-1,41
 109 694 109 694 131 763.5 c 128,-1,42
 153 833 153 833 184.5 898 c 128,-1,43
 216 963 216 963 256 1018 c 1,44,45
 298 1074 298 1074 347 1123.5 c 128,-1,46
 396 1173 396 1173 453.5 1210 c 128,-1,47
 511 1247 511 1247 576 1268.5 c 128,-1,48
 641 1290 641 1290 715 1290 c 0,49,50
 816 1290 816 1290 890.5 1249 c 128,-1,51
 965 1208 965 1208 1013.5 1137.5 c 128,-1,52
 1062 1067 1062 1067 1085.5 973 c 128,-1,53
 1109 879 1109 879 1109 774 c 0,24,25
EndSplineSet
EndChar

StartChar: P
Encoding: 80 80 51
Width: 998
GlyphClass: 2
Flags: W
AnchorPoint: "Anchor-4" 998 870 basechar 0
AnchorPoint: "Anchor-3" 415 -100 basechar 0
AnchorPoint: "Anchor-2" 415 -100 basechar 0
AnchorPoint: "Anchor-1" 415 -100 basechar 0
AnchorPoint: "Anchor-0" 607 1320 basechar 0
LayerCount: 2
Fore
SplineSet
1013 942 m 0,0,1
 1013 857 1013 857 978.5 782 c 128,-1,2
 944 707 944 707 885 651 c 128,-1,3
 826 595 826 595 747 562.5 c 128,-1,4
 668 530 668 530 578 530 c 0,5,6
 540 530 540 530 501 539.5 c 128,-1,7
 462 549 462 549 435 564 c 1,8,-1
 422 648 l 1,9,10
 456 634 456 634 487.5 624.5 c 128,-1,11
 519 615 519 615 552 615 c 0,12,13
 616 615 616 615 668.5 636 c 128,-1,14
 721 657 721 657 758 695 c 128,-1,15
 795 733 795 733 815.5 786.5 c 128,-1,16
 836 840 836 840 836 905 c 0,17,18
 836 989 836 989 809.5 1045 c 128,-1,19
 783 1101 783 1101 739 1135.5 c 128,-1,20
 695 1170 695 1170 636.5 1184.5 c 128,-1,21
 578 1199 578 1199 514 1199 c 2,22,-1
 490 1199 l 2,23,24
 479 1199 479 1199 468 1198 c 1,25,-1
 319 114 l 1,26,27
 317 108 317 108 323 101 c 128,-1,28
 329 94 329 94 346 86 c 128,-1,29
 363 78 363 78 393 70 c 128,-1,30
 423 62 423 62 470 53 c 1,31,-1
 463 0 l 1,32,-1
 -3 0 l 1,33,-1
 5 53 l 1,34,35
 68 67 68 67 104.5 83.5 c 128,-1,36
 141 100 141 100 143 114 c 2,37,-1
 290 1184 l 1,38,39
 255 1179 255 1179 217.5 1172 c 128,-1,40
 180 1165 180 1165 139 1155 c 1,41,-1
 139 1225 l 1,42,43
 228 1255 228 1255 335 1272.5 c 128,-1,44
 442 1290 442 1290 572 1290 c 0,45,46
 675 1290 675 1290 756.5 1268 c 128,-1,47
 838 1246 838 1246 895 1202 c 128,-1,48
 952 1158 952 1158 982.5 1093 c 128,-1,49
 1013 1028 1013 1028 1013 942 c 0,0,1
EndSplineSet
EndChar

StartChar: Q
Encoding: 81 81 52
Width: 1157
GlyphClass: 2
Flags: W
AnchorPoint: "Anchor-4" 1157 870 basechar 0
AnchorPoint: "Anchor-3" 509 -100 basechar 0
AnchorPoint: "Anchor-2" 509 -100 basechar 0
AnchorPoint: "Anchor-1" 509 -100 basechar 0
AnchorPoint: "Anchor-0" 701 1320 basechar 0
LayerCount: 2
Fore
SplineSet
930 756 m 0,0,1
 930 840 930 840 912.5 914.5 c 128,-1,2
 895 989 895 989 861.5 1044 c 128,-1,3
 828 1099 828 1099 778.5 1131 c 128,-1,4
 729 1163 729 1163 665 1163 c 0,5,6
 594 1163 594 1163 537 1134 c 128,-1,7
 480 1105 480 1105 435.5 1055.5 c 128,-1,8
 391 1006 391 1006 359.5 942 c 128,-1,9
 328 878 328 878 307.5 807.5 c 128,-1,10
 287 737 287 737 277 666 c 128,-1,11
 267 595 267 595 267 532 c 0,12,13
 267 439 267 439 285.5 360 c 128,-1,14
 304 281 304 281 338.5 224 c 128,-1,15
 373 167 373 167 422 135 c 128,-1,16
 471 103 471 103 531 103 c 0,17,18
 604 103 604 103 661.5 133.5 c 128,-1,19
 719 164 719 164 763.5 215.5 c 128,-1,20
 808 267 808 267 839.5 334 c 128,-1,21
 871 401 871 401 891 473.5 c 128,-1,22
 911 546 911 546 920.5 619 c 128,-1,23
 930 692 930 692 930 756 c 0,0,1
1154 -120 m 1,24,25
 1125 -164 1125 -164 1096 -198.5 c 128,-1,26
 1067 -233 1067 -233 1040.5 -257 c 128,-1,27
 1014 -281 1014 -281 992 -294 c 128,-1,28
 970 -307 970 -307 955 -307 c 0,29,30
 897 -307 897 -307 843.5 -276.5 c 128,-1,31
 790 -246 790 -246 738 -202.5 c 128,-1,32
 686 -159 686 -159 635 -111 c 128,-1,33
 584 -63 584 -63 530 -28 c 1,34,35
 506 -31 506 -31 481 -31 c 0,36,37
 383 -31 383 -31 309 10 c 128,-1,38
 235 51 235 51 185 121.5 c 128,-1,39
 135 192 135 192 110 286 c 128,-1,40
 85 380 85 380 85 485 c 0,41,42
 85 552 85 552 97 623 c 128,-1,43
 109 694 109 694 131 763.5 c 128,-1,44
 153 833 153 833 184.5 898 c 128,-1,45
 216 963 216 963 256 1018 c 1,46,47
 298 1074 298 1074 347 1123.5 c 128,-1,48
 396 1173 396 1173 453.5 1210 c 128,-1,49
 511 1247 511 1247 576 1268.5 c 128,-1,50
 641 1290 641 1290 715 1290 c 0,51,52
 816 1290 816 1290 890.5 1249 c 128,-1,53
 965 1208 965 1208 1013.5 1137.5 c 128,-1,54
 1062 1067 1062 1067 1085.5 973 c 128,-1,55
 1109 879 1109 879 1109 774 c 0,56,57
 1109 703 1109 703 1096.5 630 c 128,-1,58
 1084 557 1084 557 1060 486 c 128,-1,59
 1036 415 1036 415 1001 348.5 c 128,-1,60
 966 282 966 282 921 225 c 0,61,62
 869 159 869 159 808.5 105.5 c 128,-1,63
 748 52 748 52 678 17 c 1,64,65
 720 -6 720 -6 759.5 -35 c 128,-1,66
 799 -64 799 -64 836.5 -89.5 c 128,-1,67
 874 -115 874 -115 911 -132.5 c 128,-1,68
 948 -150 948 -150 984 -150 c 0,69,70
 996 -150 996 -150 1008 -146.5 c 128,-1,71
 1020 -143 1020 -143 1036.5 -134.5 c 128,-1,72
 1053 -126 1053 -126 1074.5 -111.5 c 128,-1,73
 1096 -97 1096 -97 1127 -75 c 1,74,-1
 1154 -120 l 1,24,25
EndSplineSet
EndChar

StartChar: R
Encoding: 82 82 53
Width: 1100
GlyphClass: 2
Flags: W
AnchorPoint: "Anchor-4" 1100 870 basechar 0
AnchorPoint: "Anchor-3" 436 -100 basechar 0
AnchorPoint: "Anchor-2" 213 0 basechar 0
AnchorPoint: "Anchor-1" 436 -100 basechar 0
AnchorPoint: "Anchor-0" 628 1320 basechar 0
LayerCount: 2
Fore
SplineSet
530 1199 m 0,0,1
 514 1199 514 1199 498.5 1198.5 c 128,-1,2
 483 1198 483 1198 467 1198 c 1,3,-1
 397 687 l 1,4,5
 451 672 451 672 505 672 c 0,6,7
 565 672 565 672 619.5 689 c 128,-1,8
 674 706 674 706 716 740 c 128,-1,9
 758 774 758 774 783 824.5 c 128,-1,10
 808 875 808 875 808 942 c 0,11,12
 808 1016 808 1016 782 1065.5 c 128,-1,13
 756 1115 756 1115 715.5 1144.5 c 128,-1,14
 675 1174 675 1174 625.5 1186.5 c 128,-1,15
 576 1199 576 1199 530 1199 c 0,0,1
1105 112 m 1,16,17
 1066 86 1066 86 1025.5 63 c 128,-1,18
 985 40 985 40 949 23 c 128,-1,19
 913 6 913 6 885 -4 c 128,-1,20
 857 -14 857 -14 844 -14 c 0,21,22
 827 -14 827 -14 811 -9 c 128,-1,23
 795 -4 795 -4 779 10 c 128,-1,24
 763 24 763 24 746.5 50 c 128,-1,25
 730 76 730 76 712 117 c 2,26,-1
 501 586 l 1,27,28
 472 588 472 588 442 591.5 c 128,-1,29
 412 595 412 595 386 602 c 1,30,-1
 319 114 l 1,31,32
 316 102 316 102 347.5 84.5 c 128,-1,33
 379 67 379 67 442 53 c 1,34,-1
 435 0 l 1,35,-1
 -3 0 l 1,36,-1
 5 53 l 1,37,38
 68 67 68 67 104.5 83.5 c 128,-1,39
 141 100 141 100 143 114 c 2,40,-1
 289 1183 l 1,41,42
 250 1178 250 1178 212 1171.5 c 128,-1,43
 174 1165 174 1165 138 1157 c 1,44,-1
 139 1227 l 1,45,46
 184 1240 184 1240 232.5 1251.5 c 128,-1,47
 281 1263 281 1263 335 1271.5 c 128,-1,48
 389 1280 389 1280 449 1285 c 128,-1,49
 509 1290 509 1290 577 1290 c 0,50,51
 670 1290 670 1290 745.5 1269.5 c 128,-1,52
 821 1249 821 1249 873.5 1208.5 c 128,-1,53
 926 1168 926 1168 954.5 1108.5 c 128,-1,54
 983 1049 983 1049 983 971 c 0,55,56
 983 929 983 929 964 873 c 128,-1,57
 945 817 945 817 905 763 c 128,-1,58
 865 709 865 709 802 664 c 128,-1,59
 739 619 739 619 652 599 c 1,60,-1
 881 194 l 2,61,62
 898 164 898 164 914 148.5 c 128,-1,63
 930 133 930 133 952 130 c 128,-1,64
 974 127 974 127 1005 135 c 128,-1,65
 1036 143 1036 143 1084 160 c 1,66,-1
 1105 112 l 1,16,17
EndSplineSet
EndChar

StartChar: S
Encoding: 83 83 54
Width: 924
GlyphClass: 2
Flags: W
AnchorPoint: "Anchor-4" 924 870 basechar 0
AnchorPoint: "Anchor-3" 391 -100 basechar 0
AnchorPoint: "Anchor-2" 405 0 basechar 0
AnchorPoint: "Anchor-1" 391 -100 basechar 0
AnchorPoint: "Anchor-0" 583 1320 basechar 0
LayerCount: 2
Fore
SplineSet
902 1198 m 0,0,1
 908 1193 908 1193 897 1170 c 128,-1,2
 886 1147 886 1147 867.5 1120 c 128,-1,3
 849 1093 849 1093 829 1069 c 128,-1,4
 809 1045 809 1045 798 1039 c 1,5,-1
 759 1045 l 1,6,7
 728 1104 728 1104 676.5 1142.5 c 128,-1,8
 625 1181 625 1181 565 1181 c 0,9,10
 512 1181 512 1181 471.5 1164.5 c 128,-1,11
 431 1148 431 1148 403.5 1121 c 128,-1,12
 376 1094 376 1094 362 1061 c 128,-1,13
 348 1028 348 1028 348 995 c 0,14,15
 348 973 348 973 355 949 c 128,-1,16
 362 925 362 925 384 899 c 128,-1,17
 406 873 406 873 446.5 843.5 c 128,-1,18
 487 814 487 814 554 780 c 0,19,20
 633 739 633 739 688.5 702 c 128,-1,21
 744 665 744 665 779 625 c 128,-1,22
 814 585 814 585 830 539.5 c 128,-1,23
 846 494 846 494 846 438 c 0,24,25
 846 344 846 344 806.5 259 c 128,-1,26
 767 174 767 174 699 109.5 c 128,-1,27
 631 45 631 45 540 7 c 128,-1,28
 449 -31 449 -31 346 -31 c 0,29,30
 304 -31 304 -31 250.5 -18 c 128,-1,31
 197 -5 197 -5 150.5 16 c 128,-1,32
 104 37 104 37 72 64 c 128,-1,33
 40 91 40 91 40 118 c 0,34,35
 40 131 40 131 53.5 157 c 128,-1,36
 67 183 67 183 85.5 209 c 128,-1,37
 104 235 104 235 124.5 254.5 c 128,-1,38
 145 274 145 274 159 274 c 0,39,40
 168 274 168 274 179 261 c 128,-1,41
 190 248 190 248 205 229 c 128,-1,42
 220 210 220 210 239.5 187.5 c 128,-1,43
 259 165 259 165 284.5 146 c 128,-1,44
 310 127 310 127 342 114 c 128,-1,45
 374 101 374 101 415 101 c 0,46,47
 472 101 472 101 521 120 c 128,-1,48
 570 139 570 139 606.5 172.5 c 128,-1,49
 643 206 643 206 664 252 c 128,-1,50
 685 298 685 298 685 353 c 0,51,52
 685 395 685 395 672 430.5 c 128,-1,53
 659 466 659 466 628.5 500 c 128,-1,54
 598 534 598 534 547 567 c 128,-1,55
 496 600 496 600 420 636 c 0,56,57
 354 667 354 667 311 702 c 128,-1,58
 268 737 268 737 243.5 774.5 c 128,-1,59
 219 812 219 812 209 850.5 c 128,-1,60
 199 889 199 889 199 928 c 0,61,62
 199 994 199 994 230.5 1059 c 128,-1,63
 262 1124 262 1124 320 1175 c 128,-1,64
 378 1226 378 1226 459.5 1258 c 128,-1,65
 541 1290 541 1290 642 1290 c 0,66,67
 722 1290 722 1290 788 1262.5 c 128,-1,68
 854 1235 854 1235 902 1198 c 0,0,1
EndSplineSet
EndChar

StartChar: T
Encoding: 84 84 55
Width: 1081
GlyphClass: 2
Flags: W
AnchorPoint: "Anchor-4" 1081 870 basechar 0
AnchorPoint: "Anchor-3" 457 -100 basechar 0
AnchorPoint: "Anchor-2" 471 0 basechar 0
AnchorPoint: "Anchor-1" 457 -100 basechar 0
AnchorPoint: "Anchor-0" 651 1320 basechar 0
LayerCount: 2
Fore
SplineSet
709 0 m 1,0,-1
 238 0 l 1,1,-1
 245 53 l 1,2,3
 288 62 288 62 317.5 72 c 128,-1,4
 347 82 347 82 365.5 91.5 c 128,-1,5
 384 101 384 101 392.5 109.5 c 128,-1,6
 401 118 401 118 402 125 c 2,7,-1
 546 1159 l 1,8,-1
 287 1159 l 2,9,10
 273 1159 273 1159 261 1152 c 128,-1,11
 249 1145 249 1145 234 1125 c 128,-1,12
 219 1105 219 1105 200 1068.5 c 128,-1,13
 181 1032 181 1032 153 974 c 1,14,-1
 107 995 l 1,15,16
 111 1022 111 1022 118.5 1057.5 c 128,-1,17
 126 1093 126 1093 135.5 1129.5 c 128,-1,18
 145 1166 145 1166 155 1200.5 c 128,-1,19
 165 1235 165 1235 174 1260 c 1,20,-1
 1119 1260 l 1,21,-1
 1143 1233 l 1,22,23
 1139 1209 1139 1209 1132 1176 c 128,-1,24
 1125 1143 1125 1143 1116.5 1108 c 128,-1,25
 1108 1073 1108 1073 1099 1039.5 c 128,-1,26
 1090 1006 1090 1006 1081 979 c 1,27,-1
 1030 979 l 1,28,29
 1028 1028 1028 1028 1025 1062.5 c 128,-1,30
 1022 1097 1022 1097 1015.5 1118.5 c 128,-1,31
 1009 1140 1009 1140 997 1149.5 c 128,-1,32
 985 1159 985 1159 965 1159 c 2,33,-1
 718 1159 l 1,34,-1
 577 125 l 2,35,36
 576 119 576 119 582.5 110.5 c 128,-1,37
 589 102 589 102 605 92 c 128,-1,38
 621 82 621 82 648 72 c 128,-1,39
 675 62 675 62 716 53 c 1,40,-1
 709 0 l 1,0,-1
EndSplineSet
EndChar

StartChar: U
Encoding: 85 85 56
Width: 1241
GlyphClass: 2
Flags: W
AnchorPoint: "Anchor-4" 1197 870 basechar 0
AnchorPoint: "Anchor-3" 668 0 basechar 0
AnchorPoint: "Anchor-2" 590 0 basechar 0
AnchorPoint: "Anchor-1" 570 -100 basechar 0
AnchorPoint: "Anchor-0" 761 1320 basechar 0
LayerCount: 2
Fore
SplineSet
1295 1207 m 1,0,1
 1232 1193 1232 1193 1198.5 1176 c 128,-1,2
 1165 1159 1165 1159 1163 1145 c 2,3,-1
 1074 512 l 2,4,5
 1056 381 1056 381 1011.5 279.5 c 128,-1,6
 967 178 967 178 901 109 c 128,-1,7
 835 40 835 40 750 4.5 c 128,-1,8
 665 -31 665 -31 566 -31 c 0,9,10
 484 -31 484 -31 413.5 -6 c 128,-1,11
 343 19 343 19 291.5 67 c 128,-1,12
 240 115 240 115 211 185.5 c 128,-1,13
 182 256 182 256 182 348 c 0,14,15
 182 401 182 401 191 463 c 2,16,-1
 288 1145 l 2,17,18
 290 1157 290 1157 260.5 1175 c 128,-1,19
 231 1193 231 1193 166 1207 c 1,20,-1
 173 1260 l 1,21,-1
 607 1260 l 1,22,-1
 599 1207 l 1,23,24
 536 1193 536 1193 499 1176 c 128,-1,25
 462 1159 462 1159 460 1145 c 2,26,-1
 372 510 l 2,27,28
 368 481 368 481 366.5 452 c 128,-1,29
 365 423 365 423 365 397 c 0,30,31
 365 327 365 327 381.5 271.5 c 128,-1,32
 398 216 398 216 430.5 177 c 128,-1,33
 463 138 463 138 511.5 117 c 128,-1,34
 560 96 560 96 624 96 c 0,35,36
 689 96 689 96 742 126.5 c 128,-1,37
 795 157 795 157 835 208 c 128,-1,38
 875 259 875 259 900.5 326.5 c 128,-1,39
 926 394 926 394 936 469 c 2,40,-1
 1028 1145 l 2,41,42
 1030 1157 1030 1157 1003 1175 c 128,-1,43
 976 1193 976 1193 911 1207 c 1,44,-1
 918 1260 l 1,45,-1
 1302 1260 l 1,46,-1
 1295 1207 l 1,0,1
EndSplineSet
EndChar

StartChar: V
Encoding: 86 86 57
Width: 1225
GlyphClass: 2
Flags: W
AnchorPoint: "Anchor-4" 1225 870 basechar 0
AnchorPoint: "Anchor-3" 521 0 basechar 0
AnchorPoint: "Anchor-2" 568 0 basechar 0
AnchorPoint: "Anchor-1" 543 -100 basechar 0
AnchorPoint: "Anchor-0" 736 1320 basechar 0
LayerCount: 2
Fore
SplineSet
1313 1207 m 1,0,1
 1249 1194 1249 1194 1211.5 1181.5 c 128,-1,2
 1174 1169 1174 1169 1161 1141 c 2,3,-1
 664 67 l 2,4,5
 654 45 654 45 633 28.5 c 128,-1,6
 612 12 612 12 587 0 c 128,-1,7
 562 -12 562 -12 538 -19.5 c 128,-1,8
 514 -27 514 -27 498 -31 c 1,9,-1
 250 1141 l 2,10,11
 245 1167 245 1167 219 1183 c 128,-1,12
 193 1199 193 1199 134 1207 c 1,13,-1
 141 1260 l 1,14,-1
 564 1260 l 1,15,-1
 557 1207 l 1,16,17
 485 1202 485 1202 456 1187 c 128,-1,18
 427 1172 427 1172 434 1142 c 2,19,-1
 622 225 l 1,20,-1
 1045 1141 l 2,21,22
 1059 1170 1059 1170 1030 1183.5 c 128,-1,23
 1001 1197 1001 1197 928 1207 c 1,24,-1
 935 1260 l 1,25,-1
 1321 1260 l 1,26,-1
 1313 1207 l 1,0,1
EndSplineSet
EndChar

StartChar: W
Encoding: 87 87 58
Width: 1579
GlyphClass: 2
Flags: W
AnchorPoint: "Anchor-4" 1579 870 basechar 0
AnchorPoint: "Anchor-3" 725 -100 basechar 0
AnchorPoint: "Anchor-2" 725 -100 basechar 0
AnchorPoint: "Anchor-1" 725 -100 basechar 0
AnchorPoint: "Anchor-0" 918 1320 basechar 0
LayerCount: 2
Fore
SplineSet
1676 1207 m 1,0,1
 1610 1192 1610 1192 1571.5 1180 c 128,-1,2
 1533 1168 1533 1168 1525 1145 c 2,3,-1
 1166 59 l 2,4,5
 1158 37 1158 37 1140 21.5 c 128,-1,6
 1122 6 1122 6 1101 -4.5 c 128,-1,7
 1080 -15 1080 -15 1059 -21.5 c 128,-1,8
 1038 -28 1038 -28 1025 -31 c 1,9,-1
 851 923 l 1,10,-1
 469 59 l 2,11,12
 459 36 459 36 439.5 20.5 c 128,-1,13
 420 5 420 5 397.5 -5.5 c 128,-1,14
 375 -16 375 -16 353.5 -22 c 128,-1,15
 332 -28 332 -28 318 -31 c 1,16,-1
 241 1137 l 2,17,18
 239 1162 239 1162 214 1178 c 128,-1,19
 189 1194 189 1194 124 1207 c 1,20,-1
 131 1260 l 1,21,-1
 543 1260 l 1,22,-1
 536 1207 l 1,23,24
 491 1202 491 1202 464.5 1194.5 c 128,-1,25
 438 1187 438 1187 424 1178 c 128,-1,26
 410 1169 410 1169 406 1158.5 c 128,-1,27
 402 1148 402 1148 403 1137 c 2,28,-1
 461 298 l 1,29,-1
 883 1260 l 1,30,-1
 951 1260 l 1,31,-1
 1134 298 l 1,32,-1
 1412 1145 l 2,33,34
 1416 1157 1416 1157 1407.5 1166 c 128,-1,35
 1399 1175 1399 1175 1381 1182 c 128,-1,36
 1363 1189 1363 1189 1337.5 1195 c 128,-1,37
 1312 1201 1312 1201 1281 1207 c 1,38,-1
 1288 1260 l 1,39,-1
 1682 1260 l 1,40,-1
 1676 1207 l 1,0,1
EndSplineSet
EndChar

StartChar: X
Encoding: 88 88 59
Width: 1185
GlyphClass: 2
Flags: W
AnchorPoint: "Anchor-4" 1185 870 basechar 0
AnchorPoint: "Anchor-3" 523 -100 basechar 0
AnchorPoint: "Anchor-2" 523 -100 basechar 0
AnchorPoint: "Anchor-1" 523 -100 basechar 0
AnchorPoint: "Anchor-0" 715 1320 basechar 0
LayerCount: 2
Fore
SplineSet
1096 0 m 1,0,-1
 658 0 l 1,1,-1
 665 53 l 1,2,3
 706 57 706 57 731.5 63.5 c 128,-1,4
 757 70 757 70 770 79.5 c 128,-1,5
 783 89 783 89 783 103 c 128,-1,6
 783 117 783 117 773 137 c 2,7,-1
 577 533 l 1,8,-1
 295 137 l 2,9,10
 263 93 263 93 287.5 76 c 128,-1,11
 312 59 312 59 395 53 c 1,12,-1
 388 0 l 1,13,-1
 -25 0 l 1,14,-1
 -18 53 l 1,15,16
 43 58 43 58 87.5 77 c 128,-1,17
 132 96 132 96 161 137 c 2,18,-1
 521 647 l 1,19,-1
 286 1123 l 1,20,21
 274 1145 274 1145 263 1159 c 128,-1,22
 252 1173 252 1173 237 1182 c 128,-1,23
 222 1191 222 1191 201.5 1196.5 c 128,-1,24
 181 1202 181 1202 151 1207 c 1,25,-1
 158 1260 l 1,26,-1
 599 1260 l 1,27,-1
 592 1207 l 1,28,29
 513 1199 513 1199 486.5 1183 c 128,-1,30
 460 1167 460 1167 482 1123 c 2,31,-1
 652 779 l 1,32,-1
 895 1123 l 2,33,34
 911 1146 911 1146 912.5 1160.5 c 128,-1,35
 914 1175 914 1175 901 1184.5 c 128,-1,36
 888 1194 888 1194 861 1199 c 128,-1,37
 834 1204 834 1204 794 1207 c 1,38,-1
 802 1260 l 1,39,-1
 1216 1260 l 1,40,-1
 1208 1207 l 1,41,42
 1175 1203 1175 1203 1148.5 1197.5 c 128,-1,43
 1122 1192 1122 1192 1100.5 1182.5 c 128,-1,44
 1079 1173 1079 1173 1061.5 1158.5 c 128,-1,45
 1044 1144 1044 1144 1029 1123 c 2,46,-1
 706 670 l 1,47,-1
 971 137 l 2,48,49
 981 116 981 116 993.5 101.5 c 128,-1,50
 1006 87 1006 87 1021.5 77.5 c 128,-1,51
 1037 68 1037 68 1057.5 62.5 c 128,-1,52
 1078 57 1078 57 1104 53 c 1,53,-1
 1096 0 l 1,0,-1
EndSplineSet
EndChar

StartChar: Y
Encoding: 89 89 60
Width: 1153
GlyphClass: 2
Flags: W
AnchorPoint: "Anchor-4" 1153 870 basechar 0
AnchorPoint: "Anchor-3" 505 -100 basechar 0
AnchorPoint: "Anchor-2" 505 -100 basechar 0
AnchorPoint: "Anchor-1" 505 -100 basechar 0
AnchorPoint: "Anchor-0" 697 1320 basechar 0
LayerCount: 2
Fore
SplineSet
756 0 m 1,0,-1
 284 0 l 1,1,-1
 292 53 l 1,2,3
 335 62 335 62 365 72 c 128,-1,4
 395 82 395 82 413.5 91.5 c 128,-1,5
 432 101 432 101 440.5 109.5 c 128,-1,6
 449 118 449 118 450 125 c 2,7,-1
 507 544 l 1,8,9
 488 618 488 618 459 702.5 c 128,-1,10
 430 787 430 787 396 868.5 c 128,-1,11
 362 950 362 950 326.5 1022 c 128,-1,12
 291 1094 291 1094 260 1144 c 0,13,14
 251 1158 251 1158 240.5 1167 c 128,-1,15
 230 1176 230 1176 214 1180.5 c 128,-1,16
 198 1185 198 1185 174 1185.5 c 128,-1,17
 150 1186 150 1186 114 1183 c 1,18,-1
 109 1236 l 1,19,20
 136 1242 136 1242 170 1249 c 128,-1,21
 204 1256 204 1256 237.5 1261.5 c 128,-1,22
 271 1267 271 1267 300.5 1271 c 128,-1,23
 330 1275 330 1275 349 1275 c 0,24,25
 365 1275 365 1275 381.5 1264 c 128,-1,26
 398 1253 398 1253 411 1233 c 0,27,28
 432 1200 432 1200 455 1156 c 128,-1,29
 478 1112 478 1112 500.5 1063 c 128,-1,30
 523 1014 523 1014 544.5 961.5 c 128,-1,31
 566 909 566 909 585 858.5 c 128,-1,32
 604 808 604 808 619 761.5 c 128,-1,33
 634 715 634 715 644 678 c 1,34,-1
 943 1141 l 2,35,36
 960 1169 960 1169 938 1183 c 128,-1,37
 916 1197 916 1197 847 1207 c 1,38,-1
 854 1260 l 1,39,-1
 1223 1260 l 1,40,-1
 1216 1207 l 1,41,42
 1152 1194 1152 1194 1118 1180.5 c 128,-1,43
 1084 1167 1084 1167 1067 1141 c 2,44,-1
 680 535 l 1,45,-1
 624 125 l 2,46,47
 623 119 623 119 629.5 110.5 c 128,-1,48
 636 102 636 102 651.5 92 c 128,-1,49
 667 82 667 82 694.5 72 c 128,-1,50
 722 62 722 62 763 53 c 1,51,-1
 756 0 l 1,0,-1
EndSplineSet
EndChar

StartChar: Z
Encoding: 90 90 61
Width: 1036
GlyphClass: 2
Flags: W
AnchorPoint: "Anchor-4" 1036 870 basechar 0
AnchorPoint: "Anchor-3" 472 -100 basechar 0
AnchorPoint: "Anchor-2" 472 -100 basechar 0
AnchorPoint: "Anchor-1" 472 -100 basechar 0
AnchorPoint: "Anchor-0" 644 1320 basechar 0
LayerCount: 2
Fore
SplineSet
268 110 m 1,0,-1
 732 110 l 2,1,2
 752 110 752 110 770 121.5 c 128,-1,3
 788 133 788 133 806.5 159.5 c 128,-1,4
 825 186 825 186 846 229.5 c 128,-1,5
 867 273 867 273 893 337 c 1,6,-1
 951 321 l 1,7,8
 945 288 945 288 937.5 244.5 c 128,-1,9
 930 201 930 201 922.5 156.5 c 128,-1,10
 915 112 915 112 908 70.5 c 128,-1,11
 901 29 901 29 896 0 c 1,12,-1
 47 0 l 1,13,-1
 26 48 l 1,14,-1
 809 1155 l 1,15,-1
 406 1155 l 2,16,17
 391 1155 391 1155 371 1142 c 128,-1,18
 351 1129 351 1129 329.5 1102.5 c 128,-1,19
 308 1076 308 1076 286.5 1036 c 128,-1,20
 265 996 265 996 247 941 c 1,21,-1
 186 955 l 1,22,-1
 262 1284 l 1,23,24
 286 1275 286 1275 306.5 1270 c 128,-1,25
 327 1265 327 1265 346.5 1263 c 128,-1,26
 366 1261 366 1261 387.5 1260.5 c 128,-1,27
 409 1260 409 1260 435 1260 c 2,28,-1
 1023 1260 l 1,29,-1
 1043 1212 l 1,30,-1
 268 110 l 1,0,-1
EndSplineSet
EndChar

StartChar: bracketleft
Encoding: 91 91 62
Width: 632
Flags: W
LayerCount: 2
Fore
SplineSet
732 1571 m 1,0,1
 729 1559 729 1559 723.5 1545 c 128,-1,2
 718 1531 718 1531 712 1518 c 128,-1,3
 706 1505 706 1505 700 1494 c 128,-1,4
 694 1483 694 1483 690 1477 c 1,5,-1
 428 1477 l 1,6,-1
 193 -211 l 1,7,-1
 449 -211 l 1,8,-1
 480 -243 l 1,9,10
 477 -253 477 -253 472 -265.5 c 128,-1,11
 467 -278 467 -278 461.5 -290.5 c 128,-1,12
 456 -303 456 -303 450 -315 c 128,-1,13
 444 -327 444 -327 439 -336 c 1,14,-1
 18 -336 l 1,15,-1
 290 1599 l 1,16,-1
 703 1599 l 1,17,-1
 732 1571 l 1,0,1
EndSplineSet
EndChar

StartChar: backslash
Encoding: 92 92 63
Width: 832
Flags: W
LayerCount: 2
Fore
SplineSet
660 -336 m 1,0,1
 649 -332 649 -332 630.5 -325.5 c 128,-1,2
 612 -319 612 -319 592.5 -311 c 128,-1,3
 573 -303 573 -303 556 -295 c 128,-1,4
 539 -287 539 -287 532 -280 c 1,5,-1
 143 1575 l 1,6,-1
 182 1599 l 1,7,8
 196 1595 196 1595 213 1589.5 c 128,-1,9
 230 1584 230 1584 248 1577 c 128,-1,10
 266 1570 266 1570 282.5 1562 c 128,-1,11
 299 1554 299 1554 311 1545 c 1,12,-1
 697 -309 l 1,13,-1
 660 -336 l 1,0,1
EndSplineSet
EndChar

StartChar: bracketright
Encoding: 93 93 64
Width: 616
Flags: W
LayerCount: 2
Fore
SplineSet
358 -336 m 1,0,-1
 -55 -336 l 1,1,-1
 -86 -305 l 1,2,3
 -82 -293 -82 -293 -76.5 -279.5 c 128,-1,4
 -71 -266 -71 -266 -65.5 -253 c 128,-1,5
 -60 -240 -60 -240 -54.5 -228.5 c 128,-1,6
 -49 -217 -49 -217 -45 -211 c 1,7,-1
 217 -211 l 1,8,-1
 455 1477 l 1,9,-1
 201 1477 l 1,10,-1
 169 1506 l 1,11,12
 175 1528 175 1528 188 1555 c 128,-1,13
 201 1582 201 1582 210 1599 c 1,14,-1
 628 1599 l 1,15,-1
 358 -336 l 1,0,-1
EndSplineSet
EndChar

StartChar: asciicircum
Encoding: 94 94 65
Width: 938
Flags: W
LayerCount: 2
Fore
SplineSet
854 635 m 1,0,1
 826 612 826 612 801.5 596.5 c 128,-1,2
 777 581 777 581 743 565 c 1,3,-1
 713 592 l 1,4,-1
 553 1315 l 1,5,-1
 223 635 l 1,6,7
 212 625 212 625 197 614.5 c 128,-1,8
 182 604 182 604 166.5 594.5 c 128,-1,9
 151 585 151 585 137 577.5 c 128,-1,10
 123 570 123 570 113 565 c 1,11,-1
 94 592 l 1,12,-1
 516 1462 l 1,13,14
 529 1474 529 1474 547 1486.5 c 128,-1,15
 565 1499 565 1499 584 1511 c 128,-1,16
 603 1523 603 1523 621 1533 c 128,-1,17
 639 1543 639 1543 653 1550 c 1,18,-1
 854 635 l 1,0,1
EndSplineSet
EndChar

StartChar: underscore
Encoding: 95 95 66
Width: 902
Flags: W
LayerCount: 2
Fore
SplineSet
751 -159 m 1,0,1
 748 -170 748 -170 742.5 -182.5 c 128,-1,2
 737 -195 737 -195 731 -208.5 c 128,-1,3
 725 -222 725 -222 718.5 -234.5 c 128,-1,4
 712 -247 712 -247 707 -256 c 1,5,-1
 -27 -256 l 1,6,-1
 -46 -227 l 1,7,8
 -40 -207 -40 -207 -26.5 -179 c 128,-1,9
 -13 -151 -13 -151 1 -131 c 1,10,-1
 731 -131 l 1,11,-1
 751 -159 l 1,0,1
EndSplineSet
EndChar

StartChar: grave
Encoding: 96 96 67
Width: 606
Flags: W
LayerCount: 2
Fore
SplineSet
569 1050 m 1,0,1
 549 1038 549 1038 533.5 1032 c 128,-1,2
 518 1026 518 1026 500 1024 c 1,3,-1
 237 1402 l 1,4,-1
 272 1443 l 1,5,6
 284 1445 284 1445 306 1448.5 c 128,-1,7
 328 1452 328 1452 352.5 1455 c 128,-1,8
 377 1458 377 1458 399.5 1460 c 128,-1,9
 422 1462 422 1462 435 1462 c 1,10,-1
 569 1050 l 1,0,1
EndSplineSet
EndChar

StartChar: a
Encoding: 97 97 68
Width: 943
GlyphClass: 2
Flags: W
AnchorPoint: "Anchor-4" 1090 870 basechar 0
AnchorPoint: "Anchor-3" 731 0 basechar 0
AnchorPoint: "Anchor-2" 690 0 basechar 0
AnchorPoint: "Anchor-1" 411 -100 basechar 0
AnchorPoint: "Anchor-0" 561 1000 basechar 0
LayerCount: 2
Fore
SplineSet
597 414 m 1,0,1
 603 457 603 457 611 505 c 128,-1,2
 619 553 619 553 627 598.5 c 128,-1,3
 635 644 635 644 642 682.5 c 128,-1,4
 649 721 649 721 654 747 c 1,5,6
 639 760 639 760 621.5 772.5 c 128,-1,7
 604 785 604 785 585 795.5 c 128,-1,8
 566 806 566 806 546 812.5 c 128,-1,9
 526 819 526 819 505 819 c 0,10,11
 460 819 460 819 421.5 797 c 128,-1,12
 383 775 383 775 350.5 739.5 c 128,-1,13
 318 704 318 704 293 658 c 128,-1,14
 268 612 268 612 250.5 563 c 128,-1,15
 233 514 233 514 224 466 c 128,-1,16
 215 418 215 418 215 379 c 0,17,18
 215 317 215 317 225 268.5 c 128,-1,19
 235 220 235 220 252 186 c 128,-1,20
 269 152 269 152 292.5 134 c 128,-1,21
 316 116 316 116 342 116 c 0,22,23
 363 116 363 116 394 141 c 128,-1,24
 425 166 425 166 459.5 208 c 128,-1,25
 494 250 494 250 529.5 303.5 c 128,-1,26
 565 357 565 357 597 414 c 1,0,1
927 81 m 1,27,28
 841 22 841 22 780.5 -9.5 c 128,-1,29
 720 -41 720 -41 688 -41 c 0,30,31
 670 -41 670 -41 652 -29 c 128,-1,32
 634 -17 634 -17 618.5 15 c 128,-1,33
 603 47 603 47 592.5 103 c 128,-1,34
 582 159 582 159 581 246 c 1,35,36
 554 200 554 200 516.5 149.5 c 128,-1,37
 479 99 479 99 437 56.5 c 128,-1,38
 395 14 395 14 351 -13.5 c 128,-1,39
 307 -41 307 -41 266 -41 c 0,40,41
 232 -41 232 -41 194 -22 c 128,-1,42
 156 -3 156 -3 123.5 38.5 c 128,-1,43
 91 80 91 80 69.5 145.5 c 128,-1,44
 48 211 48 211 48 305 c 0,45,46
 48 384 48 384 67 459.5 c 128,-1,47
 86 535 86 535 123.5 604 c 128,-1,48
 161 673 161 673 215 733.5 c 128,-1,49
 269 794 269 794 340 842 c 0,50,51
 367 860 367 860 399.5 877 c 128,-1,52
 432 894 432 894 467.5 907 c 128,-1,53
 503 920 503 920 539 928 c 128,-1,54
 575 936 575 936 610 936 c 0,55,56
 631 936 631 936 651 930.5 c 128,-1,57
 671 925 671 925 690 916 c 128,-1,58
 709 907 709 907 727 896.5 c 128,-1,59
 745 886 745 886 761 876 c 1,60,61
 787 893 787 893 816 907.5 c 128,-1,62
 845 922 845 922 872 936 c 1,63,-1
 896 891 l 1,64,65
 879 877 879 877 868 866 c 128,-1,66
 857 855 857 855 848.5 840.5 c 128,-1,67
 840 826 840 826 834 805 c 128,-1,68
 828 784 828 784 821 750 c 0,69,70
 806 678 806 678 793 605 c 128,-1,71
 780 532 780 532 770.5 469 c 128,-1,72
 761 406 761 406 756 357.5 c 128,-1,73
 751 309 751 309 751 287 c 0,74,75
 751 187 751 187 765 143 c 128,-1,76
 779 99 779 99 802 99 c 0,77,78
 822 99 822 99 848 104.5 c 128,-1,79
 874 110 874 110 914 127 c 1,80,-1
 927 81 l 1,27,28
EndSplineSet
Substitution2: "'aalt' Access All Alternates lookup 7 subtable" a.SngStory
EndChar

StartChar: b
Encoding: 98 98 69
Width: 977
GlyphClass: 2
Flags: W
AnchorPoint: "Anchor-4" 995 880 basechar 0
AnchorPoint: "Anchor-3" 441 -100 basechar 0
AnchorPoint: "Anchor-2" 450 0 basechar 0
AnchorPoint: "Anchor-1" 441 -100 basechar 0
AnchorPoint: "Anchor-0" 699 1580 basechar 0
LayerCount: 2
Fore
SplineSet
610 788 m 0,0,1
 593 788 593 788 561 767 c 128,-1,2
 529 746 529 746 489.5 706.5 c 128,-1,3
 450 667 450 667 407.5 611 c 128,-1,4
 365 555 365 555 326 485 c 1,5,6
 316 413 316 413 310 357.5 c 128,-1,7
 304 302 304 302 304 271 c 0,8,9
 304 245 304 245 319.5 216 c 128,-1,10
 335 187 335 187 359.5 162.5 c 128,-1,11
 384 138 384 138 414.5 122 c 128,-1,12
 445 106 445 106 475 106 c 0,13,14
 507 106 507 106 535 116.5 c 128,-1,15
 563 127 563 127 586.5 145 c 128,-1,16
 610 163 610 163 629.5 185.5 c 128,-1,17
 649 208 649 208 664 232 c 0,18,19
 686 266 686 266 700 304 c 128,-1,20
 714 342 714 342 722.5 381 c 128,-1,21
 731 420 731 420 734 458 c 128,-1,22
 737 496 737 496 737 530 c 0,23,24
 737 593 737 593 726 641.5 c 128,-1,25
 715 690 715 690 697.5 722.5 c 128,-1,26
 680 755 680 755 657 771.5 c 128,-1,27
 634 788 634 788 610 788 c 0,0,1
911 610 m 0,28,29
 909 504 909 504 875.5 396 c 128,-1,30
 842 288 842 288 768 188 c 0,31,32
 734 143 734 143 692 101.5 c 128,-1,33
 650 60 650 60 600 28.5 c 128,-1,34
 550 -3 550 -3 493 -22 c 128,-1,35
 436 -41 436 -41 373 -41 c 0,36,37
 352 -41 352 -41 325 -30.5 c 128,-1,38
 298 -20 298 -20 270 -1 c 128,-1,39
 242 18 242 18 215 43.5 c 128,-1,40
 188 69 188 69 167 98.5 c 128,-1,41
 146 128 146 128 133 160.5 c 128,-1,42
 120 193 120 193 120 225 c 0,43,44
 120 251 120 251 126.5 306 c 128,-1,45
 133 361 133 361 143 433.5 c 128,-1,46
 153 506 153 506 166 592 c 128,-1,47
 179 678 179 678 193 767 c 128,-1,48
 207 856 207 856 220 943 c 128,-1,49
 233 1030 233 1030 243 1105 c 128,-1,50
 253 1180 253 1180 259.5 1237.5 c 128,-1,51
 266 1295 266 1295 266 1326 c 0,52,53
 266 1349 266 1349 261 1362.5 c 128,-1,54
 256 1376 256 1376 248 1382.5 c 128,-1,55
 240 1389 240 1389 231 1391 c 128,-1,56
 222 1393 222 1393 213 1393 c 256,57,58
 204 1393 204 1393 187.5 1388.5 c 128,-1,59
 171 1384 171 1384 155 1379 c 0,60,61
 136 1373 136 1373 115 1366 c 1,62,-1
 101 1415 l 1,63,64
 144 1435 144 1435 192 1454 c 128,-1,65
 240 1473 240 1473 283 1487.5 c 128,-1,66
 326 1502 326 1502 359.5 1511 c 128,-1,67
 393 1520 393 1520 407 1520 c 0,68,69
 436 1520 436 1520 447 1502 c 128,-1,70
 458 1484 458 1484 458 1438 c 0,71,72
 458 1408 458 1408 453 1359.5 c 128,-1,73
 448 1311 448 1311 440 1249 c 128,-1,74
 432 1187 432 1187 421.5 1115 c 128,-1,75
 411 1043 411 1043 399 966.5 c 128,-1,76
 387 890 387 890 374.5 812 c 128,-1,77
 362 734 362 734 351 660 c 1,78,79
 402 739 402 739 454 792 c 128,-1,80
 506 845 506 845 553.5 877 c 128,-1,81
 601 909 601 909 642 922.5 c 128,-1,82
 683 936 683 936 713 936 c 0,83,84
 755 936 755 936 791.5 915 c 128,-1,85
 828 894 828 894 855 852.5 c 128,-1,86
 882 811 882 811 897 750 c 128,-1,87
 912 689 912 689 911 610 c 0,28,29
EndSplineSet
EndChar

StartChar: c
Encoding: 99 99 70
Width: 821
GlyphClass: 2
Flags: W
AnchorPoint: "Anchor-4" 900 870 basechar 0
AnchorPoint: "Anchor-3" 399 -100 basechar 0
AnchorPoint: "Anchor-2" 372 0 basechar 0
AnchorPoint: "Anchor-1" 399 -100 basechar 0
AnchorPoint: "Anchor-0" 549 1000 basechar 0
LayerCount: 2
Fore
SplineSet
844 818 m 1,0,1
 823 801 823 801 797.5 781 c 128,-1,2
 772 761 772 761 747.5 744 c 128,-1,3
 723 727 723 727 701 715.5 c 128,-1,4
 679 704 679 704 665 704 c 0,5,6
 653 704 653 704 636.5 722 c 128,-1,7
 620 740 620 740 599 761.5 c 128,-1,8
 578 783 578 783 552.5 801 c 128,-1,9
 527 819 527 819 496 819 c 0,10,11
 453 819 453 819 417.5 798.5 c 128,-1,12
 382 778 382 778 353 743.5 c 128,-1,13
 324 709 324 709 302 663.5 c 128,-1,14
 280 618 280 618 265 568 c 128,-1,15
 250 518 250 518 242.5 466.5 c 128,-1,16
 235 415 235 415 235 368 c 0,17,18
 235 303 235 303 248.5 251.5 c 128,-1,19
 262 200 262 200 285.5 164 c 128,-1,20
 309 128 309 128 342 108.5 c 128,-1,21
 375 89 375 89 414 89 c 0,22,23
 435 89 435 89 464 96.5 c 128,-1,24
 493 104 493 104 530.5 121.5 c 128,-1,25
 568 139 568 139 613 168 c 128,-1,26
 658 197 658 197 712 241 c 1,27,28
 720 230 720 230 732 214 c 128,-1,29
 744 198 744 198 749 190 c 1,30,31
 671 119 671 119 608 74 c 128,-1,32
 545 29 545 29 493 3.5 c 128,-1,33
 441 -22 441 -22 398 -31.5 c 128,-1,34
 355 -41 355 -41 316 -41 c 0,35,36
 279 -41 279 -41 234.5 -24 c 128,-1,37
 190 -7 190 -7 151 35 c 128,-1,38
 112 77 112 77 85.5 147 c 128,-1,39
 59 217 59 217 59 322 c 0,40,41
 59 389 59 389 73 459.5 c 128,-1,42
 87 530 87 530 118.5 597.5 c 128,-1,43
 150 665 150 665 200.5 726.5 c 128,-1,44
 251 788 251 788 325 837 c 0,45,46
 353 855 353 855 388 873 c 128,-1,47
 423 891 423 891 461 905 c 128,-1,48
 499 919 499 919 537.5 927.5 c 128,-1,49
 576 936 576 936 611 936 c 0,50,51
 655 936 655 936 689.5 920 c 128,-1,52
 724 904 724 904 752 883.5 c 128,-1,53
 780 863 780 863 802.5 843.5 c 128,-1,54
 825 824 825 824 844 818 c 1,0,1
EndSplineSet
EndChar

StartChar: d
Encoding: 100 100 71
Width: 985
GlyphClass: 2
Flags: W
AnchorPoint: "Anchor-4" 1032 870 basechar 0
AnchorPoint: "Anchor-3" 382 -100 basechar 0
AnchorPoint: "Anchor-2" 710 0 basechar 0
AnchorPoint: "Anchor-1" 382 -100 basechar 0
AnchorPoint: "Anchor-0" 345 1000 basechar 0
LayerCount: 2
Fore
SplineSet
611 411 m 1,0,1
 619 473 619 473 632.5 552 c 128,-1,2
 646 631 646 631 660 719 c 1,3,4
 643 737 643 737 625 754.5 c 128,-1,5
 607 772 607 772 586.5 786.5 c 128,-1,6
 566 801 566 801 543.5 810 c 128,-1,7
 521 819 521 819 497 819 c 0,8,9
 453 819 453 819 415 797.5 c 128,-1,10
 377 776 377 776 345.5 740 c 128,-1,11
 314 704 314 704 289.5 658 c 128,-1,12
 265 612 265 612 248.5 563 c 128,-1,13
 232 514 232 514 223.5 466 c 128,-1,14
 215 418 215 418 215 379 c 0,15,16
 215 317 215 317 226.5 268.5 c 128,-1,17
 238 220 238 220 257.5 186 c 128,-1,18
 277 152 277 152 302 134 c 128,-1,19
 327 116 327 116 354 116 c 0,20,21
 377 116 377 116 406 137 c 128,-1,22
 435 158 435 158 468 196.5 c 128,-1,23
 501 235 501 235 537 289.5 c 128,-1,24
 573 344 573 344 611 411 c 1,0,1
945 80 m 1,25,26
 860 23 860 23 798.5 -9 c 128,-1,27
 737 -41 737 -41 701 -41 c 0,28,29
 683 -41 683 -41 665 -26.5 c 128,-1,30
 647 -12 647 -12 633 22.5 c 128,-1,31
 619 57 619 57 609.5 113 c 128,-1,32
 600 169 600 169 598 253 c 1,33,34
 562 191 562 191 522 137.5 c 128,-1,35
 482 84 482 84 440.5 44.5 c 128,-1,36
 399 5 399 5 356.5 -18 c 128,-1,37
 314 -41 314 -41 274 -41 c 0,38,39
 238 -41 238 -41 198.5 -20.5 c 128,-1,40
 159 0 159 0 125.5 43.5 c 128,-1,41
 92 87 92 87 70 154.5 c 128,-1,42
 48 222 48 222 48 315 c 0,43,44
 48 394 48 394 66 468.5 c 128,-1,45
 84 543 84 543 119.5 610.5 c 128,-1,46
 155 678 155 678 208 736.5 c 128,-1,47
 261 795 261 795 332 842 c 0,48,49
 360 860 360 860 393 876.5 c 128,-1,50
 426 893 426 893 461 906.5 c 128,-1,51
 496 920 496 920 531.5 928 c 128,-1,52
 567 936 567 936 600 936 c 0,53,54
 620 936 620 936 642.5 924 c 128,-1,55
 665 912 665 912 688 895 c 1,56,57
 699 963 699 963 708.5 1028 c 128,-1,58
 718 1093 718 1093 725.5 1149.5 c 128,-1,59
 733 1206 733 1206 737.5 1251.5 c 128,-1,60
 742 1297 742 1297 742 1326 c 0,61,62
 742 1349 742 1349 738.5 1362.5 c 128,-1,63
 735 1376 735 1376 728.5 1382.5 c 128,-1,64
 722 1389 722 1389 714 1391 c 128,-1,65
 706 1393 706 1393 697 1393 c 256,66,67
 688 1393 688 1393 670.5 1388.5 c 128,-1,68
 653 1384 653 1384 636 1379 c 0,69,70
 616 1373 616 1373 592 1366 c 1,71,-1
 579 1415 l 1,72,73
 624 1436 624 1436 670 1455 c 128,-1,74
 716 1474 716 1474 756.5 1488.5 c 128,-1,75
 797 1503 797 1503 828 1511.5 c 128,-1,76
 859 1520 859 1520 873 1520 c 0,77,78
 903 1520 903 1520 918 1502 c 128,-1,79
 933 1484 933 1484 933 1438 c 0,80,81
 933 1399 933 1399 926 1337 c 128,-1,82
 919 1275 919 1275 907.5 1198.5 c 128,-1,83
 896 1122 896 1122 881.5 1035.5 c 128,-1,84
 867 949 867 949 851.5 861 c 128,-1,85
 836 773 836 773 821.5 687.5 c 128,-1,86
 807 602 807 602 795.5 528 c 128,-1,87
 784 454 784 454 777 396 c 128,-1,88
 770 338 770 338 770 304 c 0,89,90
 770 198 770 198 782.5 149.5 c 128,-1,91
 795 101 795 101 818 101 c 0,92,93
 844 101 844 101 870 106.5 c 128,-1,94
 896 112 896 112 931 127 c 1,95,-1
 945 80 l 1,25,26
EndSplineSet
EndChar

StartChar: e
Encoding: 101 101 72
Width: 825
GlyphClass: 2
Flags: W
AnchorPoint: "Anchor-4" 972 870 basechar 0
AnchorPoint: "Anchor-3" 418 0 basechar 0
AnchorPoint: "Anchor-2" 368 0 basechar 0
AnchorPoint: "Anchor-1" 354 -100 basechar 0
AnchorPoint: "Anchor-0" 520 1000 basechar 0
LayerCount: 2
Fore
SplineSet
775 760 m 0,0,1
 775 732 775 732 768.5 701.5 c 128,-1,2
 762 671 762 671 742 637.5 c 128,-1,3
 722 604 722 604 685 567.5 c 128,-1,4
 648 531 648 531 588 492 c 128,-1,5
 528 453 528 453 441 411.5 c 128,-1,6
 354 370 354 370 233 326 c 1,7,8
 239 273 239 273 255.5 229 c 128,-1,9
 272 185 272 185 294.5 154 c 128,-1,10
 317 123 317 123 343 106 c 128,-1,11
 369 89 369 89 395 89 c 0,12,13
 416 89 416 89 446.5 95 c 128,-1,14
 477 101 477 101 516.5 118 c 128,-1,15
 556 135 556 135 606 165.5 c 128,-1,16
 656 196 656 196 716 244 c 1,17,18
 722 241 722 241 727.5 234 c 128,-1,19
 733 227 733 227 738 219 c 128,-1,20
 743 211 743 211 746 204 c 2,21,-1
 752 193 l 1,22,23
 670 122 670 122 606 76.5 c 128,-1,24
 542 31 542 31 490.5 5 c 128,-1,25
 439 -21 439 -21 396.5 -31 c 128,-1,26
 354 -41 354 -41 315 -41 c 0,27,28
 279 -41 279 -41 234.5 -22.5 c 128,-1,29
 190 -4 190 -4 151 36.5 c 128,-1,30
 112 77 112 77 85 142.5 c 128,-1,31
 58 208 58 208 58 303 c 0,32,33
 58 381 58 381 77 455.5 c 128,-1,34
 96 530 96 530 131.5 598 c 128,-1,35
 167 666 167 666 218.5 726.5 c 128,-1,36
 270 787 270 787 335 839 c 0,37,38
 357 857 357 857 387 874.5 c 128,-1,39
 417 892 417 892 451 905.5 c 128,-1,40
 485 919 485 919 520.5 927.5 c 128,-1,41
 556 936 556 936 590 936 c 0,42,43
 637 936 637 936 672 920.5 c 128,-1,44
 707 905 707 905 730 880 c 128,-1,45
 753 855 753 855 764 823.5 c 128,-1,46
 775 792 775 792 775 760 c 0,0,1
394 767 m 0,47,48
 364 737 364 737 336 697.5 c 128,-1,49
 308 658 308 658 285.5 612.5 c 128,-1,50
 263 567 263 567 248.5 516.5 c 128,-1,51
 234 466 234 466 231 414 c 1,52,53
 352 463 352 463 422.5 502.5 c 128,-1,54
 493 542 493 542 529 577.5 c 128,-1,55
 565 613 565 613 575 645.5 c 128,-1,56
 585 678 585 678 585 713 c 0,57,58
 585 741 585 741 578 761.5 c 128,-1,59
 571 782 571 782 559 795.5 c 128,-1,60
 547 809 547 809 532 815 c 128,-1,61
 517 821 517 821 501 821 c 256,62,63
 485 821 485 821 453.5 808 c 128,-1,64
 422 795 422 795 394 767 c 0,47,48
EndSplineSet
EndChar

StartChar: f
Encoding: 102 102 73
Width: 592
GlyphClass: 2
Flags: W
AnchorPoint: "Anchor-4" 592 870 basechar 0
AnchorPoint: "Anchor-3" 329 -100 basechar 0
AnchorPoint: "Anchor-2" -50 -450 basechar 0
AnchorPoint: "Anchor-1" 329 -100 basechar 0
AnchorPoint: "Anchor-0" 572 1640 basechar 0
LayerCount: 2
Fore
SplineSet
941 1401 m 1,0,1
 920 1386 920 1386 892.5 1365.5 c 128,-1,2
 865 1345 865 1345 839 1326.5 c 128,-1,3
 813 1308 813 1308 790 1295.5 c 128,-1,4
 767 1283 767 1283 755 1283 c 0,5,6
 741 1283 741 1283 727 1301 c 128,-1,7
 713 1319 713 1319 696.5 1340 c 128,-1,8
 680 1361 680 1361 659.5 1379 c 128,-1,9
 639 1397 639 1397 611 1397 c 0,10,11
 577 1397 577 1397 550 1376 c 128,-1,12
 523 1355 523 1355 502.5 1319.5 c 128,-1,13
 482 1284 482 1284 467 1238 c 128,-1,14
 452 1192 452 1192 441.5 1142.5 c 128,-1,15
 431 1093 431 1093 424 1043.5 c 128,-1,16
 417 994 417 994 413 952 c 1,17,-1
 407 905 l 1,18,-1
 661 905 l 1,19,-1
 683 875 l 1,20,21
 673 861 673 861 655 843.5 c 128,-1,22
 637 826 637 826 617.5 809 c 128,-1,23
 598 792 598 792 579.5 778.5 c 128,-1,24
 561 765 561 765 551 760 c 1,25,26
 546 774 546 774 535.5 782.5 c 128,-1,27
 525 791 525 791 507.5 796 c 128,-1,28
 490 801 490 801 464.5 803 c 128,-1,29
 439 805 439 805 403 805 c 2,30,-1
 396 805 l 1,31,-1
 325 193 l 2,32,33
 312 83 312 83 276.5 -19.5 c 128,-1,34
 241 -122 241 -122 189 -210.5 c 128,-1,35
 137 -299 137 -299 71 -369.5 c 128,-1,36
 5 -440 5 -440 -69 -485 c 1,37,-1
 -100 -415 l 1,38,39
 -50 -387 -50 -387 -9.5 -328 c 128,-1,40
 31 -269 31 -269 61.5 -192.5 c 128,-1,41
 92 -116 92 -116 112 -29.5 c 128,-1,42
 132 57 132 57 141 139 c 2,43,-1
 218 805 l 1,44,-1
 71 805 l 1,45,-1
 53 839 l 1,46,-1
 164 905 l 1,47,-1
 229 905 l 1,48,49
 239 985 239 985 254 1059 c 128,-1,50
 269 1133 269 1133 295.5 1199 c 128,-1,51
 322 1265 322 1265 364 1322.5 c 128,-1,52
 406 1380 406 1380 469 1427 c 1,53,54
 523 1466 523 1466 575 1493 c 128,-1,55
 627 1520 627 1520 689 1520 c 0,56,57
 735 1520 735 1520 774 1503.5 c 128,-1,58
 813 1487 813 1487 845 1466 c 128,-1,59
 877 1445 877 1445 901.5 1425.5 c 128,-1,60
 926 1406 926 1406 941 1401 c 1,0,1
EndSplineSet
EndChar

StartChar: g
Encoding: 103 103 74
Width: 928
GlyphClass: 2
Flags: W
AnchorPoint: "Anchor-4" 1024 870 basechar 0
AnchorPoint: "Anchor-3" 304 -600 basechar 0
AnchorPoint: "Anchor-2" 318 -450 basechar 0
AnchorPoint: "Anchor-1" 304 -600 basechar 0
AnchorPoint: "Anchor-0" 523 1000 basechar 0
LayerCount: 2
Fore
SplineSet
346 116 m 0,0,1
 364 116 364 116 395 142.5 c 128,-1,2
 426 169 426 169 464.5 217 c 128,-1,3
 503 265 503 265 544 331.5 c 128,-1,4
 585 398 585 398 622 478 c 1,5,6
 626 522 626 522 631.5 569.5 c 128,-1,7
 637 617 637 617 646 672 c 0,8,9
 648 689 648 689 653 705 c 128,-1,10
 658 721 658 721 664 736 c 1,11,12
 648 749 648 749 630 764 c 128,-1,13
 612 779 612 779 592 791 c 128,-1,14
 572 803 572 803 550 811 c 128,-1,15
 528 819 528 819 505 819 c 0,16,17
 460 819 460 819 421.5 797.5 c 128,-1,18
 383 776 383 776 350.5 740 c 128,-1,19
 318 704 318 704 292.5 658 c 128,-1,20
 267 612 267 612 249.5 563 c 128,-1,21
 232 514 232 514 222.5 466 c 128,-1,22
 213 418 213 418 213 379 c 0,23,24
 213 317 213 317 223.5 268.5 c 128,-1,25
 234 220 234 220 252 186 c 128,-1,26
 270 152 270 152 294.5 134 c 128,-1,27
 319 116 319 116 346 116 c 0,0,1
901 891 m 1,28,29
 867 863 867 863 847.5 822 c 128,-1,30
 828 781 828 781 819 709 c 0,31,32
 805 590 805 590 799 493.5 c 128,-1,33
 793 397 793 397 788 313 c 128,-1,34
 783 229 783 229 777 153.5 c 128,-1,35
 771 78 771 78 757 1 c 0,36,37
 739 -103 739 -103 690 -194 c 128,-1,38
 641 -285 641 -285 574 -353 c 128,-1,39
 507 -421 507 -421 428 -460.5 c 128,-1,40
 349 -500 349 -500 271 -500 c 0,41,42
 226 -500 226 -500 176.5 -488 c 128,-1,43
 127 -476 127 -476 85.5 -458.5 c 128,-1,44
 44 -441 44 -441 17 -420.5 c 128,-1,45
 -10 -400 -10 -400 -10 -382 c 0,46,47
 -10 -365 -10 -365 5 -341.5 c 128,-1,48
 20 -318 20 -318 39.5 -296 c 128,-1,49
 59 -274 59 -274 77.5 -259 c 128,-1,50
 96 -244 96 -244 103 -244 c 0,51,52
 115 -244 115 -244 130 -263.5 c 128,-1,53
 145 -283 145 -283 172 -306.5 c 128,-1,54
 199 -330 199 -330 242 -349.5 c 128,-1,55
 285 -369 285 -369 352 -369 c 0,56,57
 441 -369 441 -369 496.5 -291.5 c 128,-1,58
 552 -214 552 -214 581 -48 c 0,59,60
 590 3 590 3 595 49 c 128,-1,61
 600 95 600 95 603.5 137.5 c 128,-1,62
 607 180 607 180 608.5 221 c 128,-1,63
 610 262 610 262 612 304 c 1,64,65
 577 242 577 242 535 180 c 128,-1,66
 493 118 493 118 447.5 69 c 128,-1,67
 402 20 402 20 355 -10.5 c 128,-1,68
 308 -41 308 -41 264 -41 c 0,69,70
 231 -41 231 -41 192.5 -22 c 128,-1,71
 154 -3 154 -3 121 38.5 c 128,-1,72
 88 80 88 80 66 145.5 c 128,-1,73
 44 211 44 211 44 305 c 0,74,75
 44 384 44 384 62.5 459.5 c 128,-1,76
 81 535 81 535 117.5 603.5 c 128,-1,77
 154 672 154 672 209.5 732.5 c 128,-1,78
 265 793 265 793 339 842 c 0,79,80
 367 860 367 860 399.5 877 c 128,-1,81
 432 894 432 894 467 907 c 128,-1,82
 502 920 502 920 538 928 c 128,-1,83
 574 936 574 936 610 936 c 0,84,85
 631 936 631 936 651.5 929.5 c 128,-1,86
 672 923 672 923 692 913.5 c 128,-1,87
 712 904 712 904 730.5 892 c 128,-1,88
 749 880 749 880 766 869 c 1,89,90
 793 890 793 890 820.5 906.5 c 128,-1,91
 848 923 848 923 874 936 c 1,92,-1
 901 891 l 1,28,29
EndSplineSet
Substitution2: "'aalt' Access All Alternates lookup 7 subtable" g.SngBowl
EndChar

StartChar: h
Encoding: 104 104 75
Width: 1033
GlyphClass: 2
Flags: W
AnchorPoint: "Anchor-4" 1033 870 basechar 0
AnchorPoint: "Anchor-3" 435 -100 basechar 0
AnchorPoint: "Anchor-2" 133 0 basechar 0
AnchorPoint: "Anchor-1" 435 -100 basechar 0
AnchorPoint: "Anchor-0" 668 1580 basechar 0
LayerCount: 2
Fore
SplineSet
995 85 m 1,0,1
 902 31 902 31 828 -5 c 128,-1,2
 754 -41 754 -41 708 -41 c 0,3,4
 679 -41 679 -41 656.5 -9.5 c 128,-1,5
 634 22 634 22 634 76 c 0,6,7
 634 94 634 94 640 139.5 c 128,-1,8
 646 185 646 185 655.5 244.5 c 128,-1,9
 665 304 665 304 676 371 c 128,-1,10
 687 438 687 438 696.5 499 c 128,-1,11
 706 560 706 560 712 609 c 128,-1,12
 718 658 718 658 718 680 c 0,13,14
 718 716 718 716 715 740 c 128,-1,15
 712 764 712 764 705 778.5 c 128,-1,16
 698 793 698 793 685.5 799 c 128,-1,17
 673 805 673 805 654 805 c 0,18,19
 641 805 641 805 611 792 c 128,-1,20
 581 779 581 779 543 752 c 128,-1,21
 505 725 505 725 464 682.5 c 128,-1,22
 423 640 423 640 388 582 c 1,23,24
 361 534 361 534 342.5 462.5 c 128,-1,25
 324 391 324 391 310 301 c 0,26,27
 301 246 301 246 296 205.5 c 128,-1,28
 291 165 291 165 288.5 134 c 128,-1,29
 286 103 286 103 286 80 c 128,-1,30
 286 57 286 57 287 38 c 1,31,32
 274 31 274 31 250.5 20 c 128,-1,33
 227 9 227 9 201.5 -2 c 128,-1,34
 176 -13 176 -13 152.5 -23.5 c 128,-1,35
 129 -34 129 -34 117 -41 c 1,36,-1
 81 -8 l 1,37,38
 90 46 90 46 103.5 125 c 128,-1,39
 117 204 117 204 132 298 c 128,-1,40
 147 392 147 392 163.5 495.5 c 128,-1,41
 180 599 180 599 196 703 c 128,-1,42
 212 807 212 807 226 905 c 128,-1,43
 240 1003 240 1003 250.5 1086 c 128,-1,44
 261 1169 261 1169 267.5 1231.5 c 128,-1,45
 274 1294 274 1294 274 1326 c 0,46,47
 274 1349 274 1349 270.5 1362.5 c 128,-1,48
 267 1376 267 1376 261.5 1382.5 c 128,-1,49
 256 1389 256 1389 248.5 1391 c 128,-1,50
 241 1393 241 1393 233 1393 c 0,51,52
 223 1393 223 1393 204.5 1388.5 c 128,-1,53
 186 1384 186 1384 167 1379 c 0,54,55
 145 1373 145 1373 120 1366 c 1,56,-1
 107 1415 l 1,57,58
 149 1434 149 1434 195.5 1452.5 c 128,-1,59
 242 1471 242 1471 283.5 1486 c 128,-1,60
 325 1501 325 1501 358 1510.5 c 128,-1,61
 391 1520 391 1520 406 1520 c 0,62,63
 434 1520 434 1520 450.5 1502 c 128,-1,64
 467 1484 467 1484 467 1438 c 0,65,66
 467 1414 467 1414 461 1360 c 128,-1,67
 455 1306 455 1306 445.5 1235 c 128,-1,68
 436 1164 436 1164 424.5 1084 c 128,-1,69
 413 1004 413 1004 401.5 929.5 c 128,-1,70
 390 855 390 855 380 792 c 128,-1,71
 370 729 370 729 364 693 c 1,72,73
 422 760 422 760 478.5 806.5 c 128,-1,74
 535 853 535 853 588.5 882 c 128,-1,75
 642 911 642 911 691 923.5 c 128,-1,76
 740 936 740 936 785 936 c 0,77,78
 816 936 816 936 839 927.5 c 128,-1,79
 862 919 862 919 877 899 c 128,-1,80
 892 879 892 879 899 846 c 128,-1,81
 906 813 906 813 906 765 c 0,82,83
 906 730 906 730 899.5 679.5 c 128,-1,84
 893 629 893 629 884 570.5 c 128,-1,85
 875 512 875 512 863.5 451 c 128,-1,86
 852 390 852 390 843 334 c 128,-1,87
 834 278 834 278 827.5 232 c 128,-1,88
 821 186 821 186 821 158 c 0,89,90
 821 124 821 124 832 111.5 c 128,-1,91
 843 99 843 99 857 99 c 0,92,93
 885 99 885 99 912.5 107.5 c 128,-1,94
 940 116 940 116 977 132 c 1,95,-1
 995 85 l 1,0,1
EndSplineSet
EndChar

StartChar: i
Encoding: 105 105 76
Width: 525
GlyphClass: 2
Flags: W
AnchorPoint: "Anchor-4" 674 870 basechar 0
AnchorPoint: "Anchor-3" 279 0 basechar 0
AnchorPoint: "Anchor-2" 220 0 basechar 0
AnchorPoint: "Anchor-1" 217 -100 basechar 0
AnchorPoint: "Anchor-0" 368 1000 basechar 0
LayerCount: 2
Fore
SplineSet
483 85 m 1,0,1
 389 29 389 29 317.5 -6 c 128,-1,2
 246 -41 246 -41 198 -41 c 0,3,4
 164 -41 164 -41 142.5 -9.5 c 128,-1,5
 121 22 121 22 121 76 c 0,6,7
 121 106 121 106 128.5 160 c 128,-1,8
 136 214 136 214 146.5 279.5 c 128,-1,9
 157 345 157 345 170 416 c 128,-1,10
 183 487 183 487 193.5 551 c 128,-1,11
 204 615 204 615 211.5 665 c 128,-1,12
 219 715 219 715 219 740 c 0,13,14
 219 763 219 763 216 776.5 c 128,-1,15
 213 790 213 790 208 796.5 c 128,-1,16
 203 803 203 803 195 805 c 128,-1,17
 187 807 187 807 178 807 c 0,18,19
 170 807 170 807 154 803.5 c 128,-1,20
 138 800 138 800 121 795 c 0,21,22
 102 790 102 790 80 783 c 1,23,-1
 65 830 l 1,24,25
 107 849 107 849 152.5 868 c 128,-1,26
 198 887 198 887 238.5 902 c 128,-1,27
 279 917 279 917 311 926.5 c 128,-1,28
 343 936 343 936 358 936 c 0,29,30
 386 936 386 936 398.5 917 c 128,-1,31
 411 898 411 898 411 852 c 0,32,33
 411 823 411 823 403.5 768 c 128,-1,34
 396 713 396 713 385 646 c 128,-1,35
 374 579 374 579 360.5 505 c 128,-1,36
 347 431 347 431 336 364 c 128,-1,37
 325 297 325 297 317.5 242 c 128,-1,38
 310 187 310 187 310 158 c 0,39,40
 310 127 310 127 316.5 113 c 128,-1,41
 323 99 323 99 340 99 c 0,42,43
 371 99 371 99 398 107 c 128,-1,44
 425 115 425 115 466 132 c 1,45,-1
 483 85 l 1,0,1
508 1262 m 0,46,47
 508 1234 508 1234 498.5 1205.5 c 128,-1,48
 489 1177 489 1177 471 1153.5 c 128,-1,49
 453 1130 453 1130 427 1115.5 c 128,-1,50
 401 1101 401 1101 368 1101 c 0,51,52
 330 1101 330 1101 310 1121.5 c 128,-1,53
 290 1142 290 1142 290 1176 c 0,54,55
 290 1203 290 1203 300 1231.5 c 128,-1,56
 310 1260 310 1260 328 1283.5 c 128,-1,57
 346 1307 346 1307 372 1322.5 c 128,-1,58
 398 1338 398 1338 431 1338 c 0,59,60
 469 1338 469 1338 488.5 1317 c 128,-1,61
 508 1296 508 1296 508 1262 c 0,46,47
EndSplineSet
Substitution2: "Single Substitution lookup 1 subtable" i.Dotless
EndChar

StartChar: j
Encoding: 106 106 77
Width: 523
GlyphClass: 2
Flags: W
AnchorPoint: "Anchor-4" 523 870 basechar 0
AnchorPoint: "Anchor-3" 119 -600 basechar 0
AnchorPoint: "Anchor-2" 119 -600 basechar 0
AnchorPoint: "Anchor-1" 119 -600 basechar 0
AnchorPoint: "Anchor-0" 338 1000 basechar 0
LayerCount: 2
Fore
SplineSet
401 870 m 0,0,1
 401 859 401 859 398.5 831.5 c 128,-1,2
 396 804 396 804 392 767 c 128,-1,3
 388 730 388 730 383.5 687.5 c 128,-1,4
 379 645 379 645 374.5 604.5 c 128,-1,5
 370 564 370 564 366 529.5 c 128,-1,6
 362 495 362 495 360 473 c 0,7,8
 352 404 352 404 342 301.5 c 128,-1,9
 332 199 332 199 313 74 c 1,10,11
 294 -38 294 -38 264 -117 c 128,-1,12
 234 -196 234 -196 197 -252 c 128,-1,13
 160 -308 160 -308 118.5 -347.5 c 128,-1,14
 77 -387 77 -387 36 -419 c 0,15,16
 9 -440 9 -440 -23 -455.5 c 128,-1,17
 -55 -471 -55 -471 -86.5 -481 c 128,-1,18
 -118 -491 -118 -491 -147 -495.5 c 128,-1,19
 -176 -500 -176 -500 -197 -500 c 0,20,21
 -229 -500 -229 -500 -263 -491 c 128,-1,22
 -297 -482 -297 -482 -325 -469 c 128,-1,23
 -353 -456 -353 -456 -370.5 -441.5 c 128,-1,24
 -388 -427 -388 -427 -388 -417 c 0,25,26
 -388 -404 -388 -404 -373 -380.5 c 128,-1,27
 -358 -357 -358 -357 -338.5 -334.5 c 128,-1,28
 -319 -312 -319 -312 -299 -295.5 c 128,-1,29
 -279 -279 -279 -279 -269 -279 c 0,30,31
 -260 -279 -260 -279 -245.5 -292.5 c 128,-1,32
 -231 -306 -231 -306 -210 -322.5 c 128,-1,33
 -189 -339 -189 -339 -159 -352.5 c 128,-1,34
 -129 -366 -129 -366 -88 -366 c 0,35,36
 -46 -366 -46 -366 -13.5 -342.5 c 128,-1,37
 19 -319 19 -319 44 -271.5 c 128,-1,38
 69 -224 69 -224 88 -153.5 c 128,-1,39
 107 -83 107 -83 123 11 c 0,40,41
 136 85 136 85 145 152 c 128,-1,42
 154 219 154 219 160.5 276 c 128,-1,43
 167 333 167 333 171.5 377.5 c 128,-1,44
 176 422 176 422 179 451 c 0,45,46
 181 475 181 475 185.5 517.5 c 128,-1,47
 190 560 190 560 194.5 604 c 128,-1,48
 199 648 199 648 202 686 c 128,-1,49
 205 724 205 724 205 740 c 0,50,51
 205 763 205 763 202 776.5 c 128,-1,52
 199 790 199 790 193.5 796.5 c 128,-1,53
 188 803 188 803 180.5 805 c 128,-1,54
 173 807 173 807 164 807 c 256,55,56
 155 807 155 807 139 803.5 c 128,-1,57
 123 800 123 800 106 795 c 0,58,59
 87 790 87 790 66 783 c 1,60,-1
 50 830 l 1,61,62
 92 849 92 849 138 868 c 128,-1,63
 184 887 184 887 225 902 c 128,-1,64
 266 917 266 917 297.5 926.5 c 128,-1,65
 329 936 329 936 343 936 c 0,66,67
 371 936 371 936 386 924 c 128,-1,68
 401 912 401 912 401 870 c 0,0,1
484 1262 m 0,69,70
 484 1234 484 1234 474 1205.5 c 128,-1,71
 464 1177 464 1177 446 1153.5 c 128,-1,72
 428 1130 428 1130 401.5 1115.5 c 128,-1,73
 375 1101 375 1101 342 1101 c 0,74,75
 304 1101 304 1101 284.5 1121.5 c 128,-1,76
 265 1142 265 1142 265 1176 c 0,77,78
 265 1203 265 1203 274.5 1231.5 c 128,-1,79
 284 1260 284 1260 302.5 1283.5 c 128,-1,80
 321 1307 321 1307 347 1322.5 c 128,-1,81
 373 1338 373 1338 406 1338 c 0,82,83
 444 1338 444 1338 464 1317 c 128,-1,84
 484 1296 484 1296 484 1262 c 0,69,70
EndSplineSet
Substitution2: "Single Substitution lookup 1 subtable" j.Dotless
EndChar

StartChar: k
Encoding: 107 107 78
Width: 934
GlyphClass: 2
Flags: W
AnchorPoint: "Anchor-4" 1059 870 basechar 0
AnchorPoint: "Anchor-3" 401 -100 basechar 0
AnchorPoint: "Anchor-2" 175 0 basechar 0
AnchorPoint: "Anchor-1" 401 -100 basechar 0
AnchorPoint: "Anchor-0" 635 1580 basechar 0
LayerCount: 2
Fore
SplineSet
465 1417 m 0,0,1
 465 1378 465 1378 459 1320 c 128,-1,2
 453 1262 453 1262 443.5 1189.5 c 128,-1,3
 434 1117 434 1117 421 1034 c 128,-1,4
 408 951 408 951 394 864 c 128,-1,5
 380 777 380 777 365.5 688 c 128,-1,6
 351 599 351 599 338 515 c 1,7,-1
 538 665 l 2,8,9
 607 717 607 717 650.5 753 c 128,-1,10
 694 789 694 789 705.5 810.5 c 128,-1,11
 717 832 717 832 693.5 841 c 128,-1,12
 670 850 670 850 606 848 c 1,13,-1
 601 897 l 1,14,15
 667 906 667 906 730 918 c 128,-1,16
 793 930 793 930 856 930 c 0,17,18
 882 930 882 930 898 926.5 c 128,-1,19
 914 923 914 923 923 915 c 128,-1,20
 932 907 932 907 935.5 895 c 128,-1,21
 939 883 939 883 939 866 c 0,22,23
 939 851 939 851 917.5 824.5 c 128,-1,24
 896 798 896 798 854.5 762 c 128,-1,25
 813 726 813 726 754 683.5 c 128,-1,26
 695 641 695 641 620 595 c 2,27,-1
 501 522 l 1,28,29
 527 491 527 491 552.5 448 c 128,-1,30
 578 405 578 405 603.5 358 c 128,-1,31
 629 311 629 311 653 264.5 c 128,-1,32
 677 218 677 218 700 181.5 c 128,-1,33
 723 145 723 145 744.5 122 c 128,-1,34
 766 99 766 99 786 99 c 0,35,36
 809 99 809 99 838 102.5 c 128,-1,37
 867 106 867 106 905 127 c 1,38,-1
 927 83 l 1,39,40
 861 27 861 27 801.5 -6 c 128,-1,41
 742 -39 742 -39 701 -39 c 0,42,43
 666 -39 666 -39 632.5 -6.5 c 128,-1,44
 599 26 599 26 567.5 77 c 128,-1,45
 536 128 536 128 505.5 190 c 128,-1,46
 475 252 475 252 446 311 c 128,-1,47
 417 370 417 370 389 419.5 c 128,-1,48
 361 469 361 469 335 494 c 1,49,50
 323 412 323 412 313 338.5 c 128,-1,51
 303 265 303 265 297 205 c 128,-1,52
 291 145 291 145 290 102.5 c 128,-1,53
 289 60 289 60 295 40 c 1,54,55
 281 33 281 33 256.5 22 c 128,-1,56
 232 11 232 11 205.5 -1 c 128,-1,57
 179 -13 179 -13 155 -23.5 c 128,-1,58
 131 -34 131 -34 119 -41 c 1,59,-1
 81 -8 l 1,60,61
 85 21 85 21 95 85.5 c 128,-1,62
 105 150 105 150 119.5 237.5 c 128,-1,63
 134 325 134 325 151 428.5 c 128,-1,64
 168 532 168 532 185 640 c 128,-1,65
 202 748 202 748 218 854 c 128,-1,66
 234 960 234 960 246.5 1051.5 c 128,-1,67
 259 1143 259 1143 266.5 1214 c 128,-1,68
 274 1285 274 1285 274 1323 c 0,69,70
 274 1348 274 1348 271 1362 c 128,-1,71
 268 1376 268 1376 262 1383 c 128,-1,72
 256 1390 256 1390 247 1391.5 c 128,-1,73
 238 1393 238 1393 226 1393 c 0,74,75
 218 1393 218 1393 200.5 1388.5 c 128,-1,76
 183 1384 183 1384 165 1379 c 0,77,78
 144 1373 144 1373 120 1366 c 1,79,-1
 105 1415 l 1,80,81
 147 1434 147 1434 194 1452.5 c 128,-1,82
 241 1471 241 1471 283.5 1486 c 128,-1,83
 326 1501 326 1501 359 1510.5 c 128,-1,84
 392 1520 392 1520 406 1520 c 256,85,86
 420 1520 420 1520 431 1517 c 128,-1,87
 442 1514 442 1514 449.5 1503.5 c 128,-1,88
 457 1493 457 1493 461 1472.5 c 128,-1,89
 465 1452 465 1452 465 1417 c 0,0,1
EndSplineSet
EndChar

StartChar: l
Encoding: 108 108 79
Width: 503
GlyphClass: 2
Flags: W
AnchorPoint: "Anchor-4" 568 870 basechar 0
AnchorPoint: "Anchor-3" 169 -100 basechar 0
AnchorPoint: "Anchor-2" 190 0 basechar 0
AnchorPoint: "Anchor-1" 169 -100 basechar 0
AnchorPoint: "Anchor-0" 414 1640 basechar 0
LayerCount: 2
Fore
SplineSet
463 85 m 1,0,1
 364 23 364 23 294.5 -9 c 128,-1,2
 225 -41 225 -41 170 -41 c 0,3,4
 142 -41 142 -41 120 -11 c 128,-1,5
 98 19 98 19 98 78 c 0,6,7
 98 103 98 103 105.5 162 c 128,-1,8
 113 221 113 221 124.5 302.5 c 128,-1,9
 136 384 136 384 151.5 482 c 128,-1,10
 167 580 167 580 182.5 682 c 128,-1,11
 198 784 198 784 213.5 884 c 128,-1,12
 229 984 229 984 240.5 1070.5 c 128,-1,13
 252 1157 252 1157 259.5 1224 c 128,-1,14
 267 1291 267 1291 267 1326 c 0,15,16
 267 1349 267 1349 262.5 1362.5 c 128,-1,17
 258 1376 258 1376 251 1382.5 c 128,-1,18
 244 1389 244 1389 234.5 1391 c 128,-1,19
 225 1393 225 1393 216 1393 c 0,20,21
 208 1393 208 1393 191 1388.5 c 128,-1,22
 174 1384 174 1384 157 1379 c 0,23,24
 137 1373 137 1373 115 1366 c 1,25,-1
 99 1415 l 1,26,27
 141 1434 141 1434 187.5 1452.5 c 128,-1,28
 234 1471 234 1471 276 1486 c 128,-1,29
 318 1501 318 1501 351 1510.5 c 128,-1,30
 384 1520 384 1520 399 1520 c 0,31,32
 427 1520 427 1520 443.5 1502 c 128,-1,33
 460 1484 460 1484 460 1438 c 0,34,35
 460 1399 460 1399 452.5 1331 c 128,-1,36
 445 1263 445 1263 433 1176.5 c 128,-1,37
 421 1090 421 1090 405.5 990 c 128,-1,38
 390 890 390 890 374 788.5 c 128,-1,39
 358 687 358 687 342.5 588.5 c 128,-1,40
 327 490 327 490 315 405.5 c 128,-1,41
 303 321 303 321 295.5 256.5 c 128,-1,42
 288 192 288 192 288 158 c 256,43,44
 288 124 288 124 297.5 111.5 c 128,-1,45
 307 99 307 99 323 99 c 0,46,47
 346 99 346 99 375.5 107 c 128,-1,48
 405 115 405 115 450 132 c 1,49,-1
 463 85 l 1,0,1
EndSplineSet
EndChar

StartChar: m
Encoding: 109 109 80
Width: 1506
GlyphClass: 2
Flags: W
AnchorPoint: "Anchor-4" 1506 870 basechar 0
AnchorPoint: "Anchor-3" 676 -100 basechar 0
AnchorPoint: "Anchor-2" 675 0 basechar 0
AnchorPoint: "Anchor-1" 676 -100 basechar 0
AnchorPoint: "Anchor-0" 827 1000 basechar 0
LayerCount: 2
Fore
SplineSet
1447 85 m 1,0,1
 1354 31 1354 31 1280.5 -5 c 128,-1,2
 1207 -41 1207 -41 1160 -41 c 0,3,4
 1131 -41 1131 -41 1109.5 -9.5 c 128,-1,5
 1088 22 1088 22 1088 76 c 0,6,7
 1088 94 1088 94 1094.5 137.5 c 128,-1,8
 1101 181 1101 181 1111 239.5 c 128,-1,9
 1121 298 1121 298 1133 364.5 c 128,-1,10
 1145 431 1145 431 1155 494 c 128,-1,11
 1165 557 1165 557 1171.5 611.5 c 128,-1,12
 1178 666 1178 666 1178 699 c 0,13,14
 1178 756 1178 756 1166 780 c 128,-1,15
 1154 804 1154 804 1136 804 c 0,16,17
 1120 804 1120 804 1094.5 793 c 128,-1,18
 1069 782 1069 782 1037.5 757.5 c 128,-1,19
 1006 733 1006 733 970.5 694 c 128,-1,20
 935 655 935 655 899 600 c 0,21,22
 878 568 878 568 864 535.5 c 128,-1,23
 850 503 850 503 840 466.5 c 128,-1,24
 830 430 830 430 822.5 388 c 128,-1,25
 815 346 815 346 807 295 c 0,26,27
 793 204 793 204 789.5 142 c 128,-1,28
 786 80 786 80 789 38 c 1,29,30
 775 31 775 31 750.5 20 c 128,-1,31
 726 9 726 9 700 -2 c 128,-1,32
 674 -13 674 -13 650 -23.5 c 128,-1,33
 626 -34 626 -34 613 -41 c 1,34,-1
 579 -8 l 1,35,36
 601 94 601 94 621 201.5 c 128,-1,37
 641 309 641 309 656.5 404 c 128,-1,38
 672 499 672 499 681 573.5 c 128,-1,39
 690 648 690 648 690 685 c 0,40,41
 690 752 690 752 676 778 c 128,-1,42
 662 804 662 804 636 804 c 0,43,44
 625 804 625 804 601 793 c 128,-1,45
 577 782 577 782 545.5 758 c 128,-1,46
 514 734 514 734 478 695.5 c 128,-1,47
 442 657 442 657 407 602 c 0,48,49
 387 572 387 572 373 539.5 c 128,-1,50
 359 507 359 507 348 469.5 c 128,-1,51
 337 432 337 432 328.5 389 c 128,-1,52
 320 346 320 346 311 295 c 0,53,54
 296 204 296 204 291 142 c 128,-1,55
 286 80 286 80 288 38 c 1,56,57
 275 31 275 31 251.5 20 c 128,-1,58
 228 9 228 9 202.5 -2 c 128,-1,59
 177 -13 177 -13 153.5 -23.5 c 128,-1,60
 130 -34 130 -34 118 -41 c 1,61,-1
 82 -8 l 1,62,63
 103 98 103 98 122.5 212 c 128,-1,64
 142 326 142 326 158 429 c 128,-1,65
 174 532 174 532 183.5 614.5 c 128,-1,66
 193 697 193 697 193 740 c 0,67,68
 193 763 193 763 190 776.5 c 128,-1,69
 187 790 187 790 181.5 797.5 c 128,-1,70
 176 805 176 805 169 807 c 128,-1,71
 162 809 162 809 154 809 c 0,72,73
 144 809 144 809 126.5 805 c 128,-1,74
 109 801 109 801 92 796 c 0,75,76
 72 790 72 790 49 783 c 1,77,-1
 36 832 l 1,78,79
 78 850 78 850 124 868.5 c 128,-1,80
 170 887 170 887 210.5 902 c 128,-1,81
 251 917 251 917 283 926.5 c 128,-1,82
 315 936 315 936 329 936 c 0,83,84
 344 936 344 936 353.5 931 c 128,-1,85
 363 926 363 926 368 913.5 c 128,-1,86
 373 901 373 901 374.5 878.5 c 128,-1,87
 376 856 376 856 376 821 c 0,88,89
 376 811 376 811 375 796 c 128,-1,90
 374 781 374 781 372.5 763.5 c 128,-1,91
 371 746 371 746 369 727.5 c 128,-1,92
 367 709 367 709 366 693 c 1,93,94
 425 761 425 761 476.5 807.5 c 128,-1,95
 528 854 528 854 574 882.5 c 128,-1,96
 620 911 620 911 662 923.5 c 128,-1,97
 704 936 704 936 745 936 c 0,98,99
 782 936 782 936 807 921.5 c 128,-1,100
 832 907 832 907 847 882.5 c 128,-1,101
 862 858 862 858 868.5 827 c 128,-1,102
 875 796 875 796 875 763 c 0,103,104
 875 748 875 748 874.5 735 c 128,-1,105
 874 722 874 722 872 703 c 1,106,107
 930 767 930 767 978.5 811.5 c 128,-1,108
 1027 856 1027 856 1070 883.5 c 128,-1,109
 1113 911 1113 911 1151 923.5 c 128,-1,110
 1189 936 1189 936 1227 936 c 0,111,112
 1256 936 1256 936 1280.5 926.5 c 128,-1,113
 1305 917 1305 917 1322.5 896 c 128,-1,114
 1340 875 1340 875 1350 841.5 c 128,-1,115
 1360 808 1360 808 1360 760 c 0,116,117
 1360 722 1360 722 1353.5 670.5 c 128,-1,118
 1347 619 1347 619 1337.5 561 c 128,-1,119
 1328 503 1328 503 1317 443.5 c 128,-1,120
 1306 384 1306 384 1296.5 329.5 c 128,-1,121
 1287 275 1287 275 1280.5 230.5 c 128,-1,122
 1274 186 1274 186 1274 158 c 0,123,124
 1274 124 1274 124 1284 112.5 c 128,-1,125
 1294 101 1294 101 1311 101 c 0,126,127
 1340 101 1340 101 1367.5 108.5 c 128,-1,128
 1395 116 1395 116 1436 132 c 1,129,-1
 1447 85 l 1,0,1
EndSplineSet
EndChar

StartChar: n
Encoding: 110 110 81
Width: 1035
GlyphClass: 2
Flags: W
AnchorPoint: "Anchor-4" 1035 870 basechar 0
AnchorPoint: "Anchor-3" 444 -100 basechar 0
AnchorPoint: "Anchor-2" 730 0 basechar 0
AnchorPoint: "Anchor-1" 444 -100 basechar 0
AnchorPoint: "Anchor-0" 595 1000 basechar 0
LayerCount: 2
Fore
SplineSet
1001 85 m 1,0,1
 956 58 956 58 913.5 35 c 128,-1,2
 871 12 871 12 834 -5 c 128,-1,3
 797 -22 797 -22 767 -31.5 c 128,-1,4
 737 -41 737 -41 716 -41 c 0,5,6
 681 -41 681 -41 660.5 -9.5 c 128,-1,7
 640 22 640 22 640 76 c 0,8,9
 640 94 640 94 646.5 139.5 c 128,-1,10
 653 185 653 185 662.5 244.5 c 128,-1,11
 672 304 672 304 683.5 371 c 128,-1,12
 695 438 695 438 704.5 499 c 128,-1,13
 714 560 714 560 720.5 609 c 128,-1,14
 727 658 727 658 727 680 c 0,15,16
 727 750 727 750 713 778 c 128,-1,17
 699 806 699 806 659 806 c 0,18,19
 646 806 646 806 616.5 792.5 c 128,-1,20
 587 779 587 779 550 751 c 128,-1,21
 513 723 513 723 472.5 680.5 c 128,-1,22
 432 638 432 638 398 580 c 0,23,24
 369 532 369 532 352 465 c 128,-1,25
 335 398 335 398 318 301 c 0,26,27
 310 256 310 256 305 220 c 128,-1,28
 300 184 300 184 297.5 152.5 c 128,-1,29
 295 121 295 121 294.5 93.5 c 128,-1,30
 294 66 294 66 295 38 c 1,31,32
 282 31 282 31 258 20 c 128,-1,33
 234 9 234 9 208.5 -2 c 128,-1,34
 183 -13 183 -13 159.5 -23.5 c 128,-1,35
 136 -34 136 -34 124 -41 c 1,36,-1
 89 -8 l 1,37,38
 103 59 103 59 116.5 134 c 128,-1,39
 130 209 130 209 142 284.5 c 128,-1,40
 154 360 154 360 164.5 432 c 128,-1,41
 175 504 175 504 182.5 565 c 128,-1,42
 190 626 190 626 194.5 672.5 c 128,-1,43
 199 719 199 719 199 742 c 256,44,45
 199 765 199 765 196.5 778.5 c 128,-1,46
 194 792 194 792 189.5 798.5 c 128,-1,47
 185 805 185 805 178 807 c 128,-1,48
 171 809 171 809 162 809 c 256,49,50
 153 809 153 809 135.5 805 c 128,-1,51
 118 801 118 801 101 796 c 0,52,53
 81 790 81 790 58 783 c 1,54,-1
 42 832 l 1,55,56
 84 850 84 850 131 868.5 c 128,-1,57
 178 887 178 887 220 902 c 128,-1,58
 262 917 262 917 294 926.5 c 128,-1,59
 326 936 326 936 339 936 c 0,60,61
 353 936 353 936 361 931.5 c 128,-1,62
 369 927 369 927 373.5 915 c 128,-1,63
 378 903 378 903 379.5 881 c 128,-1,64
 381 859 381 859 381 823 c 0,65,66
 381 812 381 812 380 795.5 c 128,-1,67
 379 779 379 779 378 760 c 128,-1,68
 377 741 377 741 375 723 c 128,-1,69
 373 705 373 705 372 693 c 1,70,71
 426 757 426 757 481 803 c 128,-1,72
 536 849 536 849 588.5 878.5 c 128,-1,73
 641 908 641 908 690.5 922 c 128,-1,74
 740 936 740 936 785 936 c 0,75,76
 816 936 816 936 840.5 927.5 c 128,-1,77
 865 919 865 919 881.5 899.5 c 128,-1,78
 898 880 898 880 906.5 847.5 c 128,-1,79
 915 815 915 815 915 767 c 0,80,81
 915 732 915 732 908.5 681 c 128,-1,82
 902 630 902 630 892 572 c 128,-1,83
 882 514 882 514 870.5 452 c 128,-1,84
 859 390 859 390 849 334 c 128,-1,85
 839 278 839 278 832.5 232 c 128,-1,86
 826 186 826 186 826 158 c 0,87,88
 826 124 826 124 835 111.5 c 128,-1,89
 844 99 844 99 862 99 c 0,90,91
 885 99 885 99 912.5 107 c 128,-1,92
 940 115 940 115 982 132 c 1,93,-1
 1001 85 l 1,0,1
EndSplineSet
EndChar

StartChar: o
Encoding: 111 111 82
Width: 879
GlyphClass: 2
Flags: W
AnchorPoint: "Anchor-4" 883 870 basechar 0
AnchorPoint: "Anchor-3" 437 0 basechar 0
AnchorPoint: "Anchor-2" 383 0 basechar 0
AnchorPoint: "Anchor-1" 362 -100 basechar 0
AnchorPoint: "Anchor-0" 513 1000 basechar 0
LayerCount: 2
Fore
SplineSet
658 496 m 0,0,1
 658 649 658 649 605 730.5 c 128,-1,2
 552 812 552 812 462 812 c 0,3,4
 417 812 417 812 381.5 793.5 c 128,-1,5
 346 775 346 775 319.5 744.5 c 128,-1,6
 293 714 293 714 274.5 673 c 128,-1,7
 256 632 256 632 244 587 c 128,-1,8
 232 542 232 542 227 495 c 128,-1,9
 222 448 222 448 222 406 c 0,10,11
 222 339 222 339 238 280 c 128,-1,12
 254 221 254 221 281 176.5 c 128,-1,13
 308 132 308 132 344.5 106 c 128,-1,14
 381 80 381 80 423 80 c 0,15,16
 466 80 466 80 500 99.5 c 128,-1,17
 534 119 534 119 560 151.5 c 128,-1,18
 586 184 586 184 604.5 226.5 c 128,-1,19
 623 269 623 269 635 315 c 128,-1,20
 647 361 647 361 652.5 408 c 128,-1,21
 658 455 658 455 658 496 c 0,0,1
831 559 m 0,22,23
 831 492 831 492 815.5 423.5 c 128,-1,24
 800 355 800 355 770 290.5 c 128,-1,25
 740 226 740 226 696.5 167.5 c 128,-1,26
 653 109 653 109 597 63 c 0,27,28
 571 42 571 42 541 23 c 128,-1,29
 511 4 511 4 479.5 -10.5 c 128,-1,30
 448 -25 448 -25 416.5 -33 c 128,-1,31
 385 -41 385 -41 355 -41 c 0,32,33
 282 -41 282 -41 225 -11.5 c 128,-1,34
 168 18 168 18 128.5 69.5 c 128,-1,35
 89 121 89 121 68.5 191.5 c 128,-1,36
 48 262 48 262 48 344 c 0,37,38
 48 416 48 416 60.5 482.5 c 128,-1,39
 73 549 73 549 101 611.5 c 128,-1,40
 129 674 129 674 175 731 c 128,-1,41
 221 788 221 788 287 840 c 0,42,43
 338 880 338 880 402.5 908 c 128,-1,44
 467 936 467 936 531 936 c 0,45,46
 609 936 609 936 666 908 c 128,-1,47
 723 880 723 880 759.5 830 c 128,-1,48
 796 780 796 780 813.5 711 c 128,-1,49
 831 642 831 642 831 559 c 0,22,23
EndSplineSet
EndChar

StartChar: p
Encoding: 112 112 83
Width: 985
GlyphClass: 2
Flags: W
AnchorPoint: "Anchor-4" 1049 870 basechar 0
AnchorPoint: "Anchor-3" 353 -600 basechar 0
AnchorPoint: "Anchor-2" 510 0 basechar 0
AnchorPoint: "Anchor-1" 353 -600 basechar 0
AnchorPoint: "Anchor-0" 572 1000 basechar 0
LayerCount: 2
Fore
SplineSet
615 790 m 0,0,1
 592 790 592 790 555 768 c 128,-1,2
 518 746 518 746 476.5 705.5 c 128,-1,3
 435 665 435 665 393.5 608 c 128,-1,4
 352 551 352 551 319 480 c 1,5,6
 313 441 313 441 305.5 397.5 c 128,-1,7
 298 354 298 354 290 305 c 1,8,9
 305 277 305 277 332 245 c 128,-1,10
 359 213 359 213 392.5 186 c 128,-1,11
 426 159 426 159 462.5 141.5 c 128,-1,12
 499 124 499 124 534 124 c 0,13,14
 585 124 585 124 623 151.5 c 128,-1,15
 661 179 661 179 683 229 c 0,16,17
 699 264 699 264 709.5 303 c 128,-1,18
 720 342 720 342 725 381.5 c 128,-1,19
 730 421 730 421 732 459 c 128,-1,20
 734 497 734 497 734 530 c 0,21,22
 734 594 734 594 723.5 643 c 128,-1,23
 713 692 713 692 696.5 724.5 c 128,-1,24
 680 757 680 757 658.5 773.5 c 128,-1,25
 637 790 637 790 615 790 c 0,0,1
373 870 m 0,26,27
 373 843 373 843 367 796 c 128,-1,28
 361 749 361 749 350 674 c 1,29,30
 411 761 411 761 464 812.5 c 128,-1,31
 517 864 517 864 561.5 891.5 c 128,-1,32
 606 919 606 919 643 927.5 c 128,-1,33
 680 936 680 936 711 936 c 0,34,35
 751 936 751 936 787.5 916 c 128,-1,36
 824 896 824 896 851 856.5 c 128,-1,37
 878 817 878 817 894 759.5 c 128,-1,38
 910 702 910 702 910 627 c 0,39,40
 910 521 910 521 878.5 404 c 128,-1,41
 847 287 847 287 786 181 c 0,42,43
 763 142 763 142 733.5 102.5 c 128,-1,44
 704 63 704 63 669.5 31 c 128,-1,45
 635 -1 635 -1 596 -21 c 128,-1,46
 557 -41 557 -41 515 -41 c 0,47,48
 484 -41 484 -41 451.5 -22.5 c 128,-1,49
 419 -4 419 -4 387.5 26.5 c 128,-1,50
 356 57 356 57 325.5 96.5 c 128,-1,51
 295 136 295 136 268 178 c 1,52,-1
 240 6 l 2,53,54
 223 -97 223 -97 213 -173.5 c 128,-1,55
 203 -250 203 -250 198.5 -303.5 c 128,-1,56
 194 -357 194 -357 195 -389 c 128,-1,57
 196 -421 196 -421 201 -435 c 1,58,59
 186 -439 186 -439 161.5 -447.5 c 128,-1,60
 137 -456 137 -456 111 -465.5 c 128,-1,61
 85 -475 85 -475 61 -484.5 c 128,-1,62
 37 -494 37 -494 24 -500 c 1,63,-1
 -11 -469 l 1,64,65
 -7 -440 -7 -440 3 -380 c 128,-1,66
 13 -320 13 -320 27.5 -239.5 c 128,-1,67
 42 -159 42 -159 59 -64 c 128,-1,68
 76 31 76 31 93.5 129 c 128,-1,69
 111 227 111 227 127 323 c 128,-1,70
 143 419 143 419 155.5 501 c 128,-1,71
 168 583 168 583 175.5 645.5 c 128,-1,72
 183 708 183 708 183 740 c 0,73,74
 183 763 183 763 179 776.5 c 128,-1,75
 175 790 175 790 168 796.5 c 128,-1,76
 161 803 161 803 153 805 c 128,-1,77
 145 807 145 807 136 807 c 256,78,79
 127 807 127 807 110.5 803.5 c 128,-1,80
 94 800 94 800 78 795 c 0,81,82
 59 790 59 790 38 783 c 1,83,-1
 23 830 l 1,84,85
 66 850 66 850 113 869 c 128,-1,86
 160 888 160 888 202 903 c 128,-1,87
 244 918 244 918 277 927 c 128,-1,88
 310 936 310 936 324 936 c 0,89,90
 346 936 346 936 359.5 922.5 c 128,-1,91
 373 909 373 909 373 870 c 0,26,27
EndSplineSet
EndChar

StartChar: q
Encoding: 113 113 84
Width: 932
GlyphClass: 2
Flags: W
AnchorPoint: "Anchor-4" 1030 870 basechar 0
AnchorPoint: "Anchor-3" 312 -600 basechar 0
AnchorPoint: "Anchor-2" 312 -600 basechar 0
AnchorPoint: "Anchor-1" 312 -600 basechar 0
AnchorPoint: "Anchor-0" 532 1000 basechar 0
LayerCount: 2
Fore
SplineSet
914 891 m 1,0,1
 897 877 897 877 885.5 866 c 128,-1,2
 874 855 874 855 865 840.5 c 128,-1,3
 856 826 856 826 849.5 805 c 128,-1,4
 843 784 843 784 837 750 c 2,5,-1
 793 484 l 2,6,7
 771 351 771 351 751 226.5 c 128,-1,8
 731 102 731 102 715.5 -8.5 c 128,-1,9
 700 -119 700 -119 691.5 -206.5 c 128,-1,10
 683 -294 683 -294 682.5 -353.5 c 128,-1,11
 682 -413 682 -413 693 -435 c 1,12,13
 679 -440 679 -440 654.5 -448 c 128,-1,14
 630 -456 630 -456 603.5 -466 c 128,-1,15
 577 -476 577 -476 552.5 -485 c 128,-1,16
 528 -494 528 -494 516 -500 c 1,17,-1
 478 -469 l 1,18,19
 483 -433 483 -433 493.5 -363.5 c 128,-1,20
 504 -294 504 -294 518.5 -202 c 128,-1,21
 533 -110 533 -110 551 0 c 128,-1,22
 569 110 569 110 588 228 c 1,23,24
 549 171 549 171 509.5 122 c 128,-1,25
 470 73 470 73 430 36.5 c 128,-1,26
 390 0 390 0 350.5 -20.5 c 128,-1,27
 311 -41 311 -41 274 -41 c 0,28,29
 240 -41 240 -41 200.5 -22 c 128,-1,30
 161 -3 161 -3 127 38.5 c 128,-1,31
 93 80 93 80 70.5 145.5 c 128,-1,32
 48 211 48 211 48 305 c 0,33,34
 48 384 48 384 68.5 460.5 c 128,-1,35
 89 537 89 537 128 606.5 c 128,-1,36
 167 676 167 676 222.5 736 c 128,-1,37
 278 796 278 796 349 842 c 0,38,39
 377 860 377 860 410.5 877 c 128,-1,40
 444 894 444 894 479.5 907 c 128,-1,41
 515 920 515 920 550 928 c 128,-1,42
 585 936 585 936 617 936 c 0,43,44
 660 936 660 936 700.5 915.5 c 128,-1,45
 741 895 741 895 775 874 c 1,46,47
 801 891 801 891 830 906.5 c 128,-1,48
 859 922 859 922 887 936 c 1,49,-1
 914 891 l 1,0,1
356 116 m 0,50,51
 378 116 378 116 408.5 140.5 c 128,-1,52
 439 165 439 165 473.5 206 c 128,-1,53
 508 247 508 247 545 302 c 128,-1,54
 582 357 582 357 618 417 c 1,55,56
 632 502 632 502 646 584.5 c 128,-1,57
 660 667 660 667 673 746 c 1,58,59
 657 759 657 759 639 772 c 128,-1,60
 621 785 621 785 601.5 795.5 c 128,-1,61
 582 806 582 806 560 812.5 c 128,-1,62
 538 819 538 819 515 819 c 0,63,64
 471 819 471 819 431 797.5 c 128,-1,65
 391 776 391 776 356.5 740 c 128,-1,66
 322 704 322 704 294.5 658 c 128,-1,67
 267 612 267 612 247.5 563 c 128,-1,68
 228 514 228 514 217.5 466 c 128,-1,69
 207 418 207 418 207 379 c 0,70,71
 207 317 207 317 220.5 268.5 c 128,-1,72
 234 220 234 220 255 186 c 128,-1,73
 276 152 276 152 302.5 134 c 128,-1,74
 329 116 329 116 356 116 c 0,50,51
EndSplineSet
EndChar

StartChar: r
Encoding: 114 114 85
Width: 763
GlyphClass: 2
Flags: W
AnchorPoint: "Anchor-4" 763 870 basechar 0
AnchorPoint: "Anchor-3" 182 -100 basechar 0
AnchorPoint: "Anchor-2" 180 0 basechar 0
AnchorPoint: "Anchor-1" 182 -100 basechar 0
AnchorPoint: "Anchor-0" 478 1000 basechar 0
LayerCount: 2
Fore
SplineSet
809 850 m 1,0,1
 797 834 797 834 780.5 807 c 128,-1,2
 764 780 764 780 747.5 754 c 128,-1,3
 731 728 731 728 716 709 c 128,-1,4
 701 690 701 690 691 690 c 0,5,6
 672 690 672 690 657.5 701 c 128,-1,7
 643 712 643 712 629.5 725.5 c 128,-1,8
 616 739 616 739 603.5 750.5 c 128,-1,9
 591 762 591 762 576 762 c 0,10,11
 550 762 550 762 516.5 730 c 128,-1,12
 483 698 483 698 449 644.5 c 128,-1,13
 415 591 415 591 384.5 523 c 128,-1,14
 354 455 354 455 333 383 c 0,15,16
 322 345 322 345 313.5 301.5 c 128,-1,17
 305 258 305 258 298.5 212.5 c 128,-1,18
 292 167 292 167 289 122.5 c 128,-1,19
 286 78 286 78 288 38 c 1,20,21
 274 31 274 31 250.5 20 c 128,-1,22
 227 9 227 9 201.5 -2 c 128,-1,23
 176 -13 176 -13 153 -23.5 c 128,-1,24
 130 -34 130 -34 118 -41 c 1,25,-1
 82 -8 l 1,26,27
 97 63 97 63 111 138 c 128,-1,28
 125 213 125 213 137 286 c 128,-1,29
 149 359 149 359 159.5 427.5 c 128,-1,30
 170 496 170 496 177.5 555.5 c 128,-1,31
 185 615 185 615 189 662.5 c 128,-1,32
 193 710 193 710 193 740 c 0,33,34
 193 763 193 763 189.5 776.5 c 128,-1,35
 186 790 186 790 180.5 796.5 c 128,-1,36
 175 803 175 803 167.5 805 c 128,-1,37
 160 807 160 807 152 807 c 0,38,39
 142 807 142 807 125.5 803.5 c 128,-1,40
 109 800 109 800 92 795 c 0,41,42
 73 790 73 790 51 783 c 1,43,-1
 36 830 l 1,44,45
 78 849 78 849 124.5 868 c 128,-1,46
 171 887 171 887 212.5 902 c 128,-1,47
 254 917 254 917 286.5 926.5 c 128,-1,48
 319 936 319 936 333 936 c 256,49,50
 347 936 347 936 355 931.5 c 128,-1,51
 363 927 363 927 367.5 914.5 c 128,-1,52
 372 902 372 902 373 880.5 c 128,-1,53
 374 859 374 859 374 826 c 0,54,55
 374 815 374 815 371.5 791.5 c 128,-1,56
 369 768 369 768 365.5 740 c 128,-1,57
 362 712 362 712 358 684.5 c 128,-1,58
 354 657 354 657 351 638 c 1,59,60
 399 730 399 730 441.5 788 c 128,-1,61
 484 846 484 846 522 879 c 128,-1,62
 560 912 560 912 594.5 924 c 128,-1,63
 629 936 629 936 661 936 c 0,64,65
 679 936 679 936 696 926 c 128,-1,66
 713 916 713 916 730.5 902 c 128,-1,67
 748 888 748 888 767.5 873.5 c 128,-1,68
 787 859 787 859 809 850 c 1,0,1
EndSplineSet
EndChar

StartChar: s
Encoding: 115 115 86
Width: 736
GlyphClass: 2
Flags: W
AnchorPoint: "Anchor-4" 736 870 basechar 0
AnchorPoint: "Anchor-3" 299 -100 basechar 0
AnchorPoint: "Anchor-2" 303 0 basechar 0
AnchorPoint: "Anchor-1" 299 -100 basechar 0
AnchorPoint: "Anchor-0" 450 1000 basechar 0
LayerCount: 2
Fore
SplineSet
728 844 m 1,0,1
 709 821 709 821 689 799.5 c 128,-1,2
 669 778 669 778 650.5 761.5 c 128,-1,3
 632 745 632 745 617 734.5 c 128,-1,4
 602 724 602 724 594 724 c 0,5,6
 580 724 580 724 564 742.5 c 128,-1,7
 548 761 548 761 527.5 783 c 128,-1,8
 507 805 507 805 480.5 823.5 c 128,-1,9
 454 842 454 842 420 842 c 0,10,11
 392 842 392 842 367 832.5 c 128,-1,12
 342 823 342 823 323 806 c 128,-1,13
 304 789 304 789 292.5 765 c 128,-1,14
 281 741 281 741 281 712 c 0,15,16
 281 673 281 673 317 635 c 128,-1,17
 353 597 353 597 434 559 c 0,18,19
 475 539 475 539 515.5 514.5 c 128,-1,20
 556 490 556 490 588 457.5 c 128,-1,21
 620 425 620 425 640 383.5 c 128,-1,22
 660 342 660 342 660 289 c 0,23,24
 660 220 660 220 622.5 159.5 c 128,-1,25
 585 99 585 99 526.5 54.5 c 128,-1,26
 468 10 468 10 397.5 -15.5 c 128,-1,27
 327 -41 327 -41 262 -41 c 0,28,29
 209 -41 209 -41 160.5 -26.5 c 128,-1,30
 112 -12 112 -12 74 9.5 c 128,-1,31
 36 31 36 31 13.5 56.5 c 128,-1,32
 -9 82 -9 82 -9 103 c 0,33,34
 -9 115 -9 115 4 139 c 128,-1,35
 17 163 17 163 34 187.5 c 128,-1,36
 51 212 51 212 69 230 c 128,-1,37
 87 248 87 248 98 248 c 0,38,39
 105 248 105 248 114 234.5 c 128,-1,40
 123 221 123 221 135 200.5 c 128,-1,41
 147 180 147 180 164 156.5 c 128,-1,42
 181 133 181 133 205 112.5 c 128,-1,43
 229 92 229 92 261.5 78.5 c 128,-1,44
 294 65 294 65 337 65 c 0,45,46
 371 65 371 65 401 77 c 128,-1,47
 431 89 431 89 452.5 110 c 128,-1,48
 474 131 474 131 486.5 159.5 c 128,-1,49
 499 188 499 188 499 221 c 0,50,51
 499 258 499 258 482.5 289 c 128,-1,52
 466 320 466 320 439 345.5 c 128,-1,53
 412 371 412 371 376.5 392 c 128,-1,54
 341 413 341 413 304 431 c 0,55,56
 251 456 251 456 215.5 482 c 128,-1,57
 180 508 180 508 158 535 c 128,-1,58
 136 562 136 562 127 591.5 c 128,-1,59
 118 621 118 621 118 653 c 0,60,61
 118 716 118 716 151 768 c 128,-1,62
 184 820 184 820 235.5 857.5 c 128,-1,63
 287 895 287 895 350 915.5 c 128,-1,64
 413 936 413 936 473 936 c 0,65,66
 525 936 525 936 562 924 c 128,-1,67
 599 912 599 912 628 896 c 128,-1,68
 657 880 657 880 680.5 865 c 128,-1,69
 704 850 704 850 728 844 c 1,0,1
EndSplineSet
EndChar

StartChar: t
Encoding: 116 116 87
Width: 650
GlyphClass: 2
Flags: W
AnchorPoint: "Anchor-4" 562 870 basechar 0
AnchorPoint: "Anchor-3" 250 -100 basechar 0
AnchorPoint: "Anchor-2" 264 0 basechar 0
AnchorPoint: "Anchor-1" 250 -100 basechar 0
AnchorPoint: "Anchor-0" 435 1230 basechar 0
LayerCount: 2
Fore
SplineSet
608 130 m 1,0,1
 557 90 557 90 505.5 58.5 c 128,-1,2
 454 27 454 27 408.5 5 c 128,-1,3
 363 -17 363 -17 325 -29 c 128,-1,4
 287 -41 287 -41 263 -41 c 0,5,6
 236 -41 236 -41 211 -26 c 128,-1,7
 186 -11 186 -11 166.5 15.5 c 128,-1,8
 147 42 147 42 135 79 c 128,-1,9
 123 116 123 116 123 160 c 0,10,11
 123 179 123 179 124 198 c 128,-1,12
 125 217 125 217 126.5 237.5 c 128,-1,13
 128 258 128 258 130.5 281 c 128,-1,14
 133 304 133 304 137 332 c 2,15,-1
 212 805 l 1,16,-1
 72 805 l 1,17,-1
 54 839 l 1,18,-1
 161 905 l 1,19,-1
 228 905 l 1,20,-1
 234 940 l 1,21,22
 240 981 240 981 246.5 1007 c 128,-1,23
 253 1033 253 1033 261.5 1049.5 c 128,-1,24
 270 1066 270 1066 280 1076.5 c 128,-1,25
 290 1087 290 1087 303 1097 c 1,26,-1
 434 1176 l 1,27,-1
 462 1151 l 1,28,29
 455 1142 455 1142 447 1119 c 0,30,31
 440 1099 440 1099 430.5 1062 c 128,-1,32
 421 1025 421 1025 411 963 c 2,33,-1
 402 905 l 1,34,-1
 649 905 l 1,35,-1
 671 875 l 1,36,37
 661 861 661 861 643 843.5 c 128,-1,38
 625 826 625 826 605.5 809 c 128,-1,39
 586 792 586 792 568 778.5 c 128,-1,40
 550 765 550 765 541 760 c 1,41,42
 529 788 529 788 495 796.5 c 128,-1,43
 461 805 461 805 390 805 c 2,44,-1
 386 805 l 1,45,-1
 320 379 l 2,46,47
 317 360 317 360 314.5 338.5 c 128,-1,48
 312 317 312 317 310.5 297.5 c 128,-1,49
 309 278 309 278 308.5 261 c 128,-1,50
 308 244 308 244 308 234 c 0,51,52
 308 172 308 172 329.5 143.5 c 128,-1,53
 351 115 351 115 379 115 c 0,54,55
 414 115 414 115 463 130 c 128,-1,56
 512 145 512 145 587 179 c 1,57,-1
 608 130 l 1,0,1
EndSplineSet
EndChar

StartChar: u
Encoding: 117 117 88
Width: 1048
GlyphClass: 2
Flags: W
AnchorPoint: "Anchor-4" 1058 870 basechar 0
AnchorPoint: "Anchor-3" 810 0 basechar 0
AnchorPoint: "Anchor-2" 760 0 basechar 0
AnchorPoint: "Anchor-1" 443 -100 basechar 0
AnchorPoint: "Anchor-0" 594 1000 basechar 0
LayerCount: 2
Fore
SplineSet
1006 81 m 1,0,1
 925 27 925 27 862 -7 c 128,-1,2
 799 -41 799 -41 757 -41 c 0,3,4
 737 -41 737 -41 716.5 -24 c 128,-1,5
 696 -7 696 -7 681 29.5 c 128,-1,6
 666 66 666 66 658 124.5 c 128,-1,7
 650 183 650 183 654 266 c 1,8,9
 614 199 614 199 569 143 c 128,-1,10
 524 87 524 87 475.5 46 c 128,-1,11
 427 5 427 5 376 -18 c 128,-1,12
 325 -41 325 -41 274 -41 c 0,13,14
 251 -41 251 -41 224 -25.5 c 128,-1,15
 197 -10 197 -10 173 21 c 128,-1,16
 149 52 149 52 133 98 c 128,-1,17
 117 144 117 144 117 205 c 0,18,19
 117 235 117 235 122.5 279.5 c 128,-1,20
 128 324 128 324 136 375 c 128,-1,21
 144 426 144 426 153 480.5 c 128,-1,22
 162 535 162 535 170 584.5 c 128,-1,23
 178 634 178 634 183.5 674.5 c 128,-1,24
 189 715 189 715 189 740 c 0,25,26
 189 763 189 763 186 776.5 c 128,-1,27
 183 790 183 790 177.5 796.5 c 128,-1,28
 172 803 172 803 164.5 805 c 128,-1,29
 157 807 157 807 148 807 c 256,30,31
 139 807 139 807 122.5 803.5 c 128,-1,32
 106 800 106 800 89 795 c 0,33,34
 70 790 70 790 47 783 c 1,35,-1
 34 830 l 1,36,37
 76 849 76 849 122.5 868 c 128,-1,38
 169 887 169 887 210.5 902 c 128,-1,39
 252 917 252 917 284.5 926.5 c 128,-1,40
 317 936 317 936 331 936 c 0,41,42
 360 936 360 936 370 917 c 128,-1,43
 380 898 380 898 380 852 c 0,44,45
 380 823 380 823 374 776 c 128,-1,46
 368 729 368 729 359 673.5 c 128,-1,47
 350 618 350 618 340 558.5 c 128,-1,48
 330 499 330 499 321 443.5 c 128,-1,49
 312 388 312 388 306 341 c 128,-1,50
 300 294 300 294 300 265 c 0,51,52
 300 182 300 182 319.5 143.5 c 128,-1,53
 339 105 339 105 370 105 c 0,54,55
 389 105 389 105 420 122.5 c 128,-1,56
 451 140 451 140 490 179.5 c 128,-1,57
 529 219 529 219 575.5 282 c 128,-1,58
 622 345 622 345 672 436 c 1,59,60
 678 478 678 478 685.5 520.5 c 128,-1,61
 693 563 693 563 699.5 603 c 128,-1,62
 706 643 706 643 710.5 678 c 128,-1,63
 715 713 715 713 715 740 c 0,64,65
 715 763 715 763 712.5 776.5 c 128,-1,66
 710 790 710 790 705 796.5 c 128,-1,67
 700 803 700 803 693.5 805 c 128,-1,68
 687 807 687 807 678 807 c 256,69,70
 669 807 669 807 654 803.5 c 128,-1,71
 639 800 639 800 624 795 c 0,72,73
 606 790 606 790 587 783 c 1,74,-1
 571 830 l 1,75,76
 613 849 613 849 658 868 c 128,-1,77
 703 887 703 887 743 902 c 128,-1,78
 783 917 783 917 814 926.5 c 128,-1,79
 845 936 845 936 860 936 c 0,80,81
 888 936 888 936 897 917 c 128,-1,82
 906 898 906 898 906 852 c 0,83,84
 906 823 906 823 900 777.5 c 128,-1,85
 894 732 894 732 885.5 678.5 c 128,-1,86
 877 625 877 625 866.5 567 c 128,-1,87
 856 509 856 509 847.5 454.5 c 128,-1,88
 839 400 839 400 833 352.5 c 128,-1,89
 827 305 827 305 827 272 c 0,90,91
 827 181 827 181 840.5 140 c 128,-1,92
 854 99 854 99 879 99 c 0,93,94
 905 99 905 99 930 105.5 c 128,-1,95
 955 112 955 112 991 127 c 1,96,-1
 1006 81 l 1,0,1
EndSplineSet
EndChar

StartChar: v
Encoding: 118 118 89
Width: 934
GlyphClass: 2
Flags: W
AnchorPoint: "Anchor-4" 934 870 basechar 0
AnchorPoint: "Anchor-3" 390 0 basechar 0
AnchorPoint: "Anchor-2" 410 0 basechar 0
AnchorPoint: "Anchor-1" 386 -100 basechar 0
AnchorPoint: "Anchor-0" 537 1000 basechar 0
LayerCount: 2
Fore
SplineSet
919 852 m 0,0,1
 919 820 919 820 896.5 759 c 128,-1,2
 874 698 874 698 823 598.5 c 128,-1,3
 772 499 772 499 688.5 355.5 c 128,-1,4
 605 212 605 212 482 15 c 1,5,6
 473 10 473 10 457.5 2.5 c 128,-1,7
 442 -5 442 -5 424 -13 c 128,-1,8
 406 -21 406 -21 389.5 -29 c 128,-1,9
 373 -37 373 -37 363 -41 c 1,10,-1
 329 -8 l 1,11,12
 322 48 322 48 312 116 c 128,-1,13
 302 184 302 184 290.5 255 c 128,-1,14
 279 326 279 326 266.5 396.5 c 128,-1,15
 254 467 254 467 241.5 529.5 c 128,-1,16
 229 592 229 592 218 642 c 128,-1,17
 207 692 207 692 198 723 c 0,18,19
 190 750 190 750 181 766 c 128,-1,20
 172 782 172 782 162.5 791 c 128,-1,21
 153 800 153 800 144 802.5 c 128,-1,22
 135 805 135 805 126 805 c 0,23,24
 116 805 116 805 100 801.5 c 128,-1,25
 84 798 84 798 68 793 c 0,26,27
 50 788 50 788 28 781 c 1,28,-1
 11 828 l 1,29,30
 53 847 53 847 95 866.5 c 128,-1,31
 137 886 137 886 173 901.5 c 128,-1,32
 209 917 209 917 236.5 926.5 c 128,-1,33
 264 936 264 936 278 936 c 0,34,35
 307 936 307 936 323.5 907.5 c 128,-1,36
 340 879 340 879 360 809 c 0,37,38
 367 783 367 783 378.5 730 c 128,-1,39
 390 677 390 677 402.5 611.5 c 128,-1,40
 415 546 415 546 427.5 474.5 c 128,-1,41
 440 403 440 403 450 341.5 c 128,-1,42
 460 280 460 280 466.5 235.5 c 128,-1,43
 473 191 473 191 473 178 c 1,44,45
 546 295 546 295 597.5 394 c 128,-1,46
 649 493 649 493 682 570 c 128,-1,47
 715 647 715 647 730 698.5 c 128,-1,48
 745 750 745 750 745 772 c 256,49,50
 745 794 745 794 729.5 805 c 128,-1,51
 714 816 714 816 686 816 c 0,52,53
 669 816 669 816 649.5 812.5 c 128,-1,54
 630 809 630 809 608 801 c 1,55,-1
 589 846 l 1,56,57
 619 861 619 861 655 877.5 c 128,-1,58
 691 894 691 894 726.5 907 c 128,-1,59
 762 920 762 920 793 928 c 128,-1,60
 824 936 824 936 843 936 c 0,61,62
 878 936 878 936 898.5 918 c 128,-1,63
 919 900 919 900 919 852 c 0,0,1
EndSplineSet
EndChar

StartChar: w
Encoding: 119 119 90
Width: 1323
GlyphClass: 2
Flags: W
AnchorPoint: "Anchor-4" 1323 870 basechar 0
AnchorPoint: "Anchor-3" 618 -100 basechar 0
AnchorPoint: "Anchor-2" 618 -100 basechar 0
AnchorPoint: "Anchor-1" 618 -100 basechar 0
AnchorPoint: "Anchor-0" 769 1000 basechar 0
LayerCount: 2
Fore
SplineSet
1316 860 m 0,0,1
 1316 833 1316 833 1310.5 799 c 128,-1,2
 1305 765 1305 765 1290.5 717.5 c 128,-1,3
 1276 670 1276 670 1250.5 606.5 c 128,-1,4
 1225 543 1225 543 1185.5 458 c 128,-1,5
 1146 373 1146 373 1090 264 c 128,-1,6
 1034 155 1034 155 959 16 c 1,7,8
 950 11 950 11 934.5 3.5 c 128,-1,9
 919 -4 919 -4 902 -12 c 2,10,-1
 869 -29 l 2,11,12
 853 -37 853 -37 843 -41 c 1,13,-1
 807 -8 l 1,14,15
 796 77 796 77 783 173 c 128,-1,16
 770 269 770 269 756 359.5 c 128,-1,17
 742 450 742 450 728 527 c 128,-1,18
 714 604 714 604 701 650 c 1,19,20
 698 628 698 628 687 589 c 128,-1,21
 676 550 676 550 657.5 499.5 c 128,-1,22
 639 449 639 449 614.5 389.5 c 128,-1,23
 590 330 590 330 561.5 268 c 128,-1,24
 533 206 533 206 501.5 143.5 c 128,-1,25
 470 81 470 81 437 25 c 1,26,27
 428 20 428 20 411 11 c 128,-1,28
 394 2 394 2 375 -8 c 128,-1,29
 356 -18 356 -18 338 -27.5 c 128,-1,30
 320 -37 320 -37 310 -41 c 1,31,-1
 276 -8 l 1,32,33
 269 48 269 48 261.5 116 c 128,-1,34
 254 184 254 184 246.5 255.5 c 128,-1,35
 239 327 239 327 231.5 398 c 128,-1,36
 224 469 224 469 216.5 531.5 c 128,-1,37
 209 594 209 594 201 644 c 128,-1,38
 193 694 193 694 186 723 c 0,39,40
 180 750 180 750 171.5 766 c 128,-1,41
 163 782 163 782 153.5 791 c 128,-1,42
 144 800 144 800 134 802.5 c 128,-1,43
 124 805 124 805 115 805 c 256,44,45
 106 805 106 805 90 801.5 c 128,-1,46
 74 798 74 798 57 793 c 0,47,48
 38 788 38 788 16 781 c 1,49,-1
 -1 828 l 1,50,51
 42 848 42 848 83.5 867.5 c 128,-1,52
 125 887 125 887 160.5 902 c 128,-1,53
 196 917 196 917 223 926.5 c 128,-1,54
 250 936 250 936 264 936 c 0,55,56
 292 936 292 936 306 903.5 c 128,-1,57
 320 871 320 871 337 799 c 0,58,59
 343 773 343 773 350.5 725.5 c 128,-1,60
 358 678 358 678 366 619.5 c 128,-1,61
 374 561 374 561 381.5 497 c 128,-1,62
 389 433 389 433 395.5 374.5 c 128,-1,63
 402 316 402 316 406.5 269 c 128,-1,64
 411 222 411 222 413 197 c 1,65,66
 453 275 453 275 492.5 363.5 c 128,-1,67
 532 452 532 452 564.5 539.5 c 128,-1,68
 597 627 597 627 618 707 c 128,-1,69
 639 787 639 787 643 849 c 1,70,71
 659 864 659 864 680.5 879.5 c 128,-1,72
 702 895 702 895 723 907.5 c 128,-1,73
 744 920 744 920 763 928 c 128,-1,74
 782 936 782 936 794 936 c 0,75,76
 798 936 798 936 804 919.5 c 128,-1,77
 810 903 810 903 817 876 c 128,-1,78
 824 849 824 849 832 813.5 c 128,-1,79
 840 778 840 778 847.5 741 c 128,-1,80
 855 704 855 704 862 667 c 128,-1,81
 869 630 869 630 874 600 c 0,82,83
 881 553 881 553 890.5 499 c 128,-1,84
 900 445 900 445 908.5 390 c 128,-1,85
 917 335 917 335 924.5 281 c 128,-1,86
 932 227 932 227 937 180 c 1,87,88
 1005 303 1005 303 1050 399 c 128,-1,89
 1095 495 1095 495 1121.5 567.5 c 128,-1,90
 1148 640 1148 640 1159 692 c 128,-1,91
 1170 744 1170 744 1170 779 c 0,92,93
 1170 800 1170 800 1155.5 812 c 128,-1,94
 1141 824 1141 824 1115 824 c 0,95,96
 1101 824 1101 824 1079.5 820 c 128,-1,97
 1058 816 1058 816 1036 809 c 1,98,-1
 1016 856 l 1,99,100
 1051 877 1051 877 1085 892.5 c 128,-1,101
 1119 908 1119 908 1147.5 917.5 c 128,-1,102
 1176 927 1176 927 1198 931.5 c 128,-1,103
 1220 936 1220 936 1232 936 c 0,104,105
 1249 936 1249 936 1264 933.5 c 128,-1,106
 1279 931 1279 931 1290.5 923 c 128,-1,107
 1302 915 1302 915 1309 900 c 128,-1,108
 1316 885 1316 885 1316 860 c 0,0,1
EndSplineSet
EndChar

StartChar: x
Encoding: 120 120 91
Width: 916
GlyphClass: 2
Flags: W
AnchorPoint: "Anchor-4" 916 870 basechar 0
AnchorPoint: "Anchor-3" 408 -100 basechar 0
AnchorPoint: "Anchor-2" 668 0 basechar 0
AnchorPoint: "Anchor-1" 408 -100 basechar 0
AnchorPoint: "Anchor-0" 558 1000 basechar 0
LayerCount: 2
Fore
SplineSet
895 82 m 1,0,1
 808 22 808 22 750 -9.5 c 128,-1,2
 692 -41 692 -41 649 -41 c 0,3,4
 619 -41 619 -41 590 -11.5 c 128,-1,5
 561 18 561 18 532 67.5 c 128,-1,6
 503 117 503 117 475 181.5 c 128,-1,7
 447 246 447 246 419 317 c 1,8,9
 374 256 374 256 311.5 174 c 128,-1,10
 249 92 249 92 185 -5 c 1,11,12
 167 -7 167 -7 141 -11 c 128,-1,13
 115 -15 115 -15 88 -20 c 128,-1,14
 61 -25 61 -25 35.5 -30.5 c 128,-1,15
 10 -36 10 -36 -9 -41 c 1,16,-1
 -34 -4 l 1,17,18
 11 36 11 36 64.5 87.5 c 128,-1,19
 118 139 118 139 172.5 195.5 c 128,-1,20
 227 252 227 252 280 310.5 c 128,-1,21
 333 369 333 369 378 422 c 1,22,23
 349 496 349 496 321.5 565.5 c 128,-1,24
 294 635 294 635 268 688.5 c 128,-1,25
 242 742 242 742 216.5 774.5 c 128,-1,26
 191 807 191 807 167 807 c 0,27,28
 158 807 158 807 137.5 803 c 128,-1,29
 117 799 117 799 95 794 c 0,30,31
 69 788 69 788 41 781 c 1,32,-1
 25 830 l 1,33,34
 67 849 67 849 108 868 c 128,-1,35
 149 887 149 887 184 902 c 128,-1,36
 219 917 219 917 245.5 926.5 c 128,-1,37
 272 936 272 936 284 936 c 0,38,39
 310 936 310 936 338 903 c 128,-1,40
 366 870 366 870 394.5 816 c 128,-1,41
 423 762 423 762 452.5 692 c 128,-1,42
 482 622 482 622 511 547 c 1,43,44
 550 594 550 594 585 641 c 128,-1,45
 620 688 620 688 647 726.5 c 128,-1,46
 674 765 674 765 690 792 c 128,-1,47
 706 819 706 819 706 826 c 0,48,49
 706 836 706 836 702 844 c 128,-1,50
 698 852 698 852 687 856 c 128,-1,51
 676 860 676 860 656 860.5 c 128,-1,52
 636 861 636 861 604 858 c 1,53,-1
 601 909 l 1,54,55
 634 916 634 916 666.5 921 c 128,-1,56
 699 926 699 926 728 929.5 c 128,-1,57
 757 933 757 933 781 934.5 c 128,-1,58
 805 936 805 936 820 936 c 0,59,60
 871 936 871 936 892 920 c 128,-1,61
 913 904 913 904 913 883 c 0,62,63
 913 863 913 863 889.5 828.5 c 128,-1,64
 866 794 866 794 820.5 740.5 c 128,-1,65
 775 687 775 687 707 614.5 c 128,-1,66
 639 542 639 542 550 447 c 1,67,68
 577 378 577 378 604 314.5 c 128,-1,69
 631 251 631 251 656.5 202.5 c 128,-1,70
 682 154 682 154 706 125 c 128,-1,71
 730 96 730 96 752 96 c 0,72,73
 775 96 775 96 806.5 103 c 128,-1,74
 838 110 838 110 875 129 c 1,75,-1
 895 82 l 1,0,1
EndSplineSet
EndChar

StartChar: y
Encoding: 121 121 92
Width: 944
GlyphClass: 2
Flags: W
AnchorPoint: "Anchor-4" 1091 870 basechar 0
AnchorPoint: "Anchor-3" 635 -100 basechar 0
AnchorPoint: "Anchor-2" 635 -100 basechar 0
AnchorPoint: "Anchor-1" 635 -100 basechar 0
AnchorPoint: "Anchor-0" 574 1000 basechar 0
LayerCount: 2
Fore
SplineSet
916 860 m 0,0,1
 916 826 916 826 895 766.5 c 128,-1,2
 874 707 874 707 830.5 614 c 128,-1,3
 787 521 787 521 720 390 c 128,-1,4
 653 259 653 259 562 82 c 1,5,6
 494 -48 494 -48 427.5 -155.5 c 128,-1,7
 361 -263 361 -263 290.5 -339.5 c 128,-1,8
 220 -416 220 -416 144 -458 c 128,-1,9
 68 -500 68 -500 -19 -500 c 0,10,11
 -52 -500 -52 -500 -82 -493.5 c 128,-1,12
 -112 -487 -112 -487 -135 -477.5 c 128,-1,13
 -158 -468 -158 -468 -172 -457 c 128,-1,14
 -186 -446 -186 -446 -186 -437 c 0,15,16
 -186 -424 -186 -424 -174 -399.5 c 128,-1,17
 -162 -375 -162 -375 -145 -349.5 c 128,-1,18
 -128 -324 -128 -324 -109.5 -302.5 c 128,-1,19
 -91 -281 -91 -281 -77 -274 c 1,20,21
 -29 -310 -29 -310 6.5 -321 c 128,-1,22
 42 -332 42 -332 79 -332 c 0,23,24
 152 -332 152 -332 224 -260 c 128,-1,25
 296 -188 296 -188 374 -55 c 1,26,27
 364 4 364 4 349 76 c 128,-1,28
 334 148 334 148 316.5 224.5 c 128,-1,29
 299 301 299 301 279.5 377 c 128,-1,30
 260 453 260 453 241 520 c 128,-1,31
 222 587 222 587 204 640.5 c 128,-1,32
 186 694 186 694 172 725 c 0,33,34
 149 776 149 776 133 791.5 c 128,-1,35
 117 807 117 807 100 807 c 0,36,37
 91 807 91 807 74.5 803.5 c 128,-1,38
 58 800 58 800 42 795 c 0,39,40
 23 790 23 790 2 783 c 1,41,-1
 -12 830 l 1,42,43
 31 850 31 850 72 869 c 128,-1,44
 113 888 113 888 148 903 c 128,-1,45
 183 918 183 918 209.5 927 c 128,-1,46
 236 936 236 936 250 936 c 0,47,48
 278 936 278 936 296 907 c 128,-1,49
 314 878 314 878 338 809 c 0,50,51
 357 756 357 756 378.5 685.5 c 128,-1,52
 400 615 400 615 422 533.5 c 128,-1,53
 444 452 444 452 465.5 363.5 c 128,-1,54
 487 275 487 275 505 187 c 1,55,56
 536 247 536 247 566 309 c 128,-1,57
 596 371 596 371 623.5 430.5 c 128,-1,58
 651 490 651 490 674.5 544 c 128,-1,59
 698 598 698 598 715 642.5 c 128,-1,60
 732 687 732 687 742 720.5 c 128,-1,61
 752 754 752 754 752 771 c 0,62,63
 752 821 752 821 699 824 c 1,64,65
 682 826 682 826 660.5 820 c 128,-1,66
 639 814 639 814 610 801 c 1,67,-1
 590 848 l 1,68,69
 662 890 662 890 727 913 c 128,-1,70
 792 936 792 936 831 936 c 0,71,72
 848 936 848 936 863.5 933.5 c 128,-1,73
 879 931 879 931 890.5 923 c 128,-1,74
 902 915 902 915 909 900 c 128,-1,75
 916 885 916 885 916 860 c 0,0,1
EndSplineSet
EndChar

StartChar: z
Encoding: 122 122 93
Width: 779
GlyphClass: 2
Flags: W
AnchorPoint: "Anchor-4" 779 870 basechar 0
AnchorPoint: "Anchor-3" 346 -100 basechar 0
AnchorPoint: "Anchor-2" 388 0 basechar 0
AnchorPoint: "Anchor-1" 346 -100 basechar 0
AnchorPoint: "Anchor-0" 497 1000 basechar 0
LayerCount: 2
Fore
SplineSet
779 881 m 1,0,1
 697 792 697 792 633.5 708 c 128,-1,2
 570 624 570 624 510.5 538 c 128,-1,3
 451 452 451 452 389 361.5 c 128,-1,4
 327 271 327 271 248 170 c 1,5,6
 250 171 250 171 257 173 c 0,7,8
 265 176 265 176 276 179 c 128,-1,9
 287 182 287 182 301 184 c 128,-1,10
 315 186 315 186 330 186 c 0,11,12
 350 186 350 186 382.5 177 c 128,-1,13
 415 168 415 168 452.5 156.5 c 128,-1,14
 490 145 490 145 528.5 136 c 128,-1,15
 567 127 567 127 600 127 c 0,16,17
 609 127 609 127 621.5 130 c 128,-1,18
 634 133 634 133 649 144 c 128,-1,19
 664 155 664 155 681.5 176.5 c 128,-1,20
 699 198 699 198 719 236 c 1,21,-1
 762 211 l 1,22,23
 734 149 734 149 711.5 105 c 128,-1,24
 689 61 689 61 663.5 33 c 128,-1,25
 638 5 638 5 604.5 -7.5 c 128,-1,26
 571 -20 571 -20 522 -20 c 0,27,28
 475 -20 475 -20 431.5 -9.5 c 128,-1,29
 388 1 388 1 348.5 13.5 c 128,-1,30
 309 26 309 26 274.5 36.5 c 128,-1,31
 240 47 240 47 210 47 c 0,32,33
 194 47 194 47 176 42 c 128,-1,34
 158 37 158 37 135.5 27 c 128,-1,35
 113 17 113 17 84.5 2.5 c 128,-1,36
 56 -12 56 -12 18 -31 c 1,37,-1
 -9 8 l 1,38,39
 41 68 41 68 93.5 138.5 c 128,-1,40
 146 209 146 209 198 282.5 c 128,-1,41
 250 356 250 356 300 429 c 128,-1,42
 350 502 350 502 395 567 c 128,-1,43
 440 632 440 632 478.5 685.5 c 128,-1,44
 517 739 517 739 546 773 c 1,45,-1
 268 773 l 2,46,47
 244 773 244 773 227 768 c 128,-1,48
 210 763 210 763 196 749 c 128,-1,49
 182 735 182 735 169.5 709 c 128,-1,50
 157 683 157 683 142 641 c 1,51,-1
 95 652 l 1,52,53
 114 742 114 742 134.5 817.5 c 128,-1,54
 155 893 155 893 163 936 c 1,55,56
 182 931 182 931 207.5 923 c 128,-1,57
 233 915 233 915 268 915 c 2,58,-1
 756 915 l 1,59,-1
 779 881 l 1,0,1
EndSplineSet
EndChar

StartChar: braceleft
Encoding: 123 123 94
Width: 657
Flags: W
LayerCount: 2
Fore
SplineSet
757 1542 m 1,0,1
 717 1518 717 1518 682 1488 c 128,-1,2
 647 1458 647 1458 619.5 1422 c 128,-1,3
 592 1386 592 1386 573 1344.5 c 128,-1,4
 554 1303 554 1303 547 1256 c 0,5,6
 542 1218 542 1218 541 1189.5 c 128,-1,7
 540 1161 540 1161 540.5 1136 c 128,-1,8
 541 1111 541 1111 543 1089 c 128,-1,9
 545 1067 545 1067 545.5 1042 c 128,-1,10
 546 1017 546 1017 544.5 988 c 128,-1,11
 543 959 543 959 538 922 c 0,12,13
 532 880 532 880 514.5 840 c 128,-1,14
 497 800 497 800 470 764.5 c 128,-1,15
 443 729 443 729 407 700 c 128,-1,16
 371 671 371 671 329 653 c 1,17,18
 420 635 420 635 449.5 565 c 128,-1,19
 479 495 479 495 463 385 c 0,20,21
 455 327 455 327 443 283.5 c 128,-1,22
 431 240 431 240 418.5 201.5 c 128,-1,23
 406 163 406 163 395 124.5 c 128,-1,24
 384 86 384 86 377 38 c 0,25,26
 370 -13 370 -13 371 -52 c 128,-1,27
 372 -91 372 -91 385 -124 c 128,-1,28
 398 -157 398 -157 425 -186 c 128,-1,29
 452 -215 452 -215 497 -244 c 1,30,-1
 463 -315 l 1,31,32
 387 -281 387 -281 332.5 -244.5 c 128,-1,33
 278 -208 278 -208 245 -163 c 128,-1,34
 212 -118 212 -118 200.5 -61.5 c 128,-1,35
 189 -5 189 -5 199 67 c 0,36,37
 207 124 207 124 218.5 164 c 128,-1,38
 230 204 230 204 242.5 241 c 128,-1,39
 255 278 255 278 266.5 320 c 128,-1,40
 278 362 278 362 287 422 c 0,41,42
 298 503 298 503 267.5 542 c 128,-1,43
 237 581 237 581 171 581 c 2,44,-1
 152 581 l 2,45,46
 146 581 146 581 141 580.5 c 128,-1,47
 136 580 136 580 129.5 578.5 c 128,-1,48
 123 577 123 577 110 575 c 1,49,-1
 102 638 l 1,50,51
 215 669 215 669 276 728 c 128,-1,52
 337 787 337 787 348 862 c 0,53,54
 353 901 353 901 354.5 930.5 c 128,-1,55
 356 960 356 960 355 984 c 128,-1,56
 354 1008 354 1008 352.5 1029.5 c 128,-1,57
 351 1051 351 1051 350 1075.5 c 128,-1,58
 349 1100 349 1100 350.5 1129.5 c 128,-1,59
 352 1159 352 1159 358 1199 c 0,60,61
 367 1266 367 1266 398.5 1324.5 c 128,-1,62
 430 1383 430 1383 479 1432.5 c 128,-1,63
 528 1482 528 1482 593.5 1523.5 c 128,-1,64
 659 1565 659 1565 736 1599 c 1,65,-1
 757 1542 l 1,0,1
EndSplineSet
EndChar

StartChar: bar
Encoding: 124 124 95
Width: 420
Flags: W
LayerCount: 2
Fore
SplineSet
182 -281 m 1,0,1
 172 -288 172 -288 158 -296 c 128,-1,2
 144 -304 144 -304 128.5 -311.5 c 128,-1,3
 113 -319 113 -319 97.5 -325.5 c 128,-1,4
 82 -332 82 -332 70 -336 c 1,5,-1
 38 -309 l 1,6,-1
 300 1546 l 1,7,8
 328 1563 328 1563 355 1577 c 128,-1,9
 382 1591 382 1591 411 1599 c 1,10,-1
 443 1575 l 1,11,-1
 182 -281 l 1,0,1
EndSplineSet
EndChar

StartChar: braceright
Encoding: 125 125 96
Width: 656
Flags: W
LayerCount: 2
Fore
SplineSet
572 646 m 1,0,1
 460 615 460 615 398.5 556.5 c 128,-1,2
 337 498 337 498 326 422 c 0,3,4
 321 383 321 383 319.5 354 c 128,-1,5
 318 325 318 325 319 300.5 c 128,-1,6
 320 276 320 276 322 254.5 c 128,-1,7
 324 233 324 233 325 209 c 128,-1,8
 326 185 326 185 324.5 155.5 c 128,-1,9
 323 126 323 126 318 86 c 0,10,11
 308 18 308 18 276 -40 c 128,-1,12
 244 -98 244 -98 194.5 -148 c 128,-1,13
 145 -198 145 -198 80 -239.5 c 128,-1,14
 15 -281 15 -281 -61 -315 c 1,15,-1
 -82 -257 l 1,16,17
 -42 -233 -42 -233 -7 -203 c 128,-1,18
 28 -173 28 -173 55.5 -137 c 128,-1,19
 83 -101 83 -101 101.5 -59.5 c 128,-1,20
 120 -18 120 -18 126 29 c 0,21,22
 134 85 134 85 134 123 c 128,-1,23
 134 161 134 161 132 195.5 c 128,-1,24
 130 230 130 230 129 268.5 c 128,-1,25
 128 307 128 307 136 364 c 0,26,27
 142 405 142 405 160 445 c 128,-1,28
 178 485 178 485 205 520.5 c 128,-1,29
 232 556 232 556 268 584.5 c 128,-1,30
 304 613 304 613 346 631 c 1,31,32
 255 651 255 651 226 720 c 128,-1,33
 197 789 197 789 212 901 c 0,34,35
 220 958 220 958 232 1001.5 c 128,-1,36
 244 1045 244 1045 256 1083.5 c 128,-1,37
 268 1122 268 1122 279 1160.5 c 128,-1,38
 290 1199 290 1199 296 1246 c 1,39,40
 304 1297 304 1297 303 1337 c 128,-1,41
 302 1377 302 1377 289 1410 c 128,-1,42
 276 1443 276 1443 248.5 1471 c 128,-1,43
 221 1499 221 1499 176 1528 c 1,44,-1
 213 1599 l 1,45,46
 289 1566 289 1566 343.5 1529.5 c 128,-1,47
 398 1493 398 1493 430.5 1448 c 128,-1,48
 463 1403 463 1403 474.5 1347 c 128,-1,49
 486 1291 486 1291 476 1219 c 0,50,51
 468 1162 468 1162 456.5 1122 c 128,-1,52
 445 1082 445 1082 432.5 1044.5 c 128,-1,53
 420 1007 420 1007 408.5 965.5 c 128,-1,54
 397 924 397 924 389 864 c 0,55,56
 377 783 377 783 407.5 744 c 128,-1,57
 438 705 438 705 504 705 c 2,58,-1
 533 705 l 2,59,60
 538 705 538 705 544.5 706.5 c 128,-1,61
 551 708 551 708 566 711 c 1,62,-1
 572 646 l 1,0,1
EndSplineSet
EndChar

StartChar: asciitilde
Encoding: 126 126 97
Width: 983
Flags: W
LayerCount: 2
Fore
SplineSet
959 774 m 1,0,1
 933 725 933 725 896 672.5 c 128,-1,2
 859 620 859 620 816 576.5 c 128,-1,3
 773 533 773 533 727.5 505 c 128,-1,4
 682 477 682 477 638 477 c 0,5,6
 598 477 598 477 557.5 502 c 128,-1,7
 517 527 517 527 476.5 557 c 128,-1,8
 436 587 436 587 395 612 c 128,-1,9
 354 637 354 637 314 637 c 0,10,11
 268 637 268 637 224 598 c 128,-1,12
 180 559 180 559 130 475 c 1,13,-1
 85 502 l 1,14,15
 111 551 111 551 148 603.5 c 128,-1,16
 185 656 185 656 228 699.5 c 128,-1,17
 271 743 271 743 316.5 771 c 128,-1,18
 362 799 362 799 406 799 c 0,19,20
 449 799 449 799 490.5 774 c 128,-1,21
 532 749 532 749 572.5 719 c 128,-1,22
 613 689 613 689 651.5 664 c 128,-1,23
 690 639 690 639 728 639 c 0,24,25
 773 639 773 639 818 678 c 128,-1,26
 863 717 863 717 914 799 c 1,27,-1
 959 774 l 1,0,1
EndSplineSet
EndChar

StartChar: Ccedilla
Encoding: 199 199 100
Width: 1010
GlyphClass: 2
Flags: W
AnchorPoint: "Anchor-4" 1010 870 basechar 0
AnchorPoint: "Anchor-3" 391 -600 basechar 0
AnchorPoint: "Anchor-2" 391 -600 basechar 0
AnchorPoint: "Anchor-1" 391 -600 basechar 0
AnchorPoint: "Anchor-0" 691 1320 basechar 0
LayerCount: 2
Fore
SplineSet
605 -221 m 0,0,1
 605 -274 605 -274 573 -318 c 128,-1,2
 541 -362 541 -362 489.5 -386.5 c 128,-1,3
 438 -411 438 -411 373 -411 c 128,-1,4
 308 -411 308 -411 243 -375 c 1,5,-1
 241 -326 l 1,6,7
 290 -348 290 -348 328.5 -350 c 128,-1,8
 367 -352 367 -352 394 -340.5 c 128,-1,9
 421 -329 421 -329 435.5 -309 c 128,-1,10
 450 -289 450 -289 450 -266 c 0,11,12
 450 -241 450 -241 428 -227 c 128,-1,13
 406 -213 406 -213 365 -215 c 1,14,15
 379 -179 379 -179 389.5 -151 c 128,-1,16
 400 -123 400 -123 408 -97.5 c 128,-1,17
 416 -72 416 -72 422 -48 c 0,18,19
 425 -37 425 -37 427 -25 c 1,20,21
 369 -19 369 -19 314 5 c 1,22,23
 243 38 243 38 189 100 c 128,-1,24
 135 162 135 162 103 252.5 c 128,-1,25
 71 343 71 343 71 459 c 0,26,27
 71 553 71 553 90 650.5 c 128,-1,28
 109 748 109 748 148.5 840.5 c 128,-1,29
 188 933 188 933 249.5 1016.5 c 128,-1,30
 311 1100 311 1100 395 1167 c 0,31,32
 468 1224 468 1224 557.5 1257 c 128,-1,33
 647 1290 647 1290 741 1290 c 0,34,35
 840 1290 840 1290 916 1261 c 128,-1,36
 992 1232 992 1232 1036 1190 c 0,37,38
 1040 1185 1040 1185 1028 1164 c 128,-1,39
 1016 1143 1016 1143 997 1117 c 128,-1,40
 978 1091 978 1091 957.5 1066 c 128,-1,41
 937 1041 937 1041 924 1030 c 1,42,-1
 884 1040 l 1,43,44
 866 1065 866 1065 843 1088 c 128,-1,45
 820 1111 820 1111 791 1127.5 c 128,-1,46
 762 1144 762 1144 727.5 1154 c 128,-1,47
 693 1164 693 1164 652 1164 c 0,48,49
 612 1164 612 1164 566.5 1147.5 c 128,-1,50
 521 1131 521 1131 481 1100 c 0,51,52
 418 1051 418 1051 374.5 977 c 128,-1,53
 331 903 331 903 303.5 821.5 c 128,-1,54
 276 740 276 740 264 659.5 c 128,-1,55
 252 579 252 579 252 516 c 0,56,57
 252 407 252 407 281 329.5 c 128,-1,58
 310 252 310 252 355 203 c 128,-1,59
 400 154 400 154 454 131.5 c 128,-1,60
 508 109 508 109 558 109 c 0,61,62
 585 109 585 109 618 116 c 128,-1,63
 651 123 651 123 691.5 141 c 128,-1,64
 732 159 732 159 780 189 c 128,-1,65
 828 219 828 219 886 264 c 1,66,67
 891 262 891 262 895.5 254.5 c 128,-1,68
 900 247 900 247 904 238.5 c 128,-1,69
 908 230 908 230 911.5 222 c 128,-1,70
 915 214 915 214 917 211 c 1,71,72
 849 143 849 143 788 97.5 c 128,-1,73
 727 52 727 52 670.5 24 c 128,-1,74
 614 -4 614 -4 563 -15 c 0,75,76
 534 -22 534 -22 506 -25 c 1,77,78
 502 -45 502 -45 499 -61 c 0,79,80
 493 -87 493 -87 487 -108 c 1,81,82
 542 -110 542 -110 573.5 -141 c 128,-1,83
 605 -172 605 -172 605 -221 c 0,0,1
EndSplineSet
Ligature2: "'ccmp' Glyph Composition/Decomposition lookup 3 subtable" C uni0327
EndChar

StartChar: ccedilla
Encoding: 231 231 111
Width: 821
GlyphClass: 2
Flags: W
AnchorPoint: "Anchor-4" 900 870 basechar 0
AnchorPoint: "Anchor-3" 290 -600 basechar 0
AnchorPoint: "Anchor-2" 290 -600 basechar 0
AnchorPoint: "Anchor-1" 290 -600 basechar 0
AnchorPoint: "Anchor-0" 549 1000 basechar 0
LayerCount: 2
Fore
SplineSet
504 -221 m 0,0,1
 504 -274 504 -274 472 -318 c 128,-1,2
 440 -362 440 -362 388.5 -386.5 c 128,-1,3
 337 -411 337 -411 272 -411 c 128,-1,4
 207 -411 207 -411 142 -375 c 1,5,-1
 140 -326 l 1,6,7
 189 -348 189 -348 227.5 -350 c 128,-1,8
 266 -352 266 -352 293 -340.5 c 128,-1,9
 320 -329 320 -329 334.5 -309 c 128,-1,10
 349 -289 349 -289 349 -266 c 0,11,12
 349 -241 349 -241 327 -227 c 128,-1,13
 305 -213 305 -213 264 -215 c 1,14,15
 278 -179 278 -179 288.5 -151 c 128,-1,16
 299 -123 299 -123 307 -97.5 c 128,-1,17
 315 -72 315 -72 321 -48 c 2,18,-1
 323 -41 l 1,19,-1
 316 -41 l 2,20,21
 279 -41 279 -41 234.5 -24 c 128,-1,22
 190 -7 190 -7 151 35 c 128,-1,23
 112 77 112 77 85.5 147 c 128,-1,24
 59 217 59 217 59 322 c 0,25,26
 59 389 59 389 73 459.5 c 128,-1,27
 87 530 87 530 118.5 597.5 c 128,-1,28
 150 665 150 665 200.5 726.5 c 128,-1,29
 251 788 251 788 325 837 c 0,30,31
 353 855 353 855 388 873 c 128,-1,32
 423 891 423 891 461 905 c 128,-1,33
 499 919 499 919 537.5 927.5 c 128,-1,34
 576 936 576 936 611 936 c 0,35,36
 655 936 655 936 689.5 920 c 128,-1,37
 724 904 724 904 752 883.5 c 128,-1,38
 780 863 780 863 802.5 843.5 c 128,-1,39
 825 824 825 824 844 818 c 1,40,41
 823 801 823 801 797.5 781 c 128,-1,42
 772 761 772 761 747.5 744 c 128,-1,43
 723 727 723 727 701 715.5 c 128,-1,44
 679 704 679 704 665 704 c 0,45,46
 653 704 653 704 636.5 722 c 128,-1,47
 620 740 620 740 599 761.5 c 128,-1,48
 578 783 578 783 552.5 801 c 128,-1,49
 527 819 527 819 496 819 c 0,50,51
 453 819 453 819 417.5 798.5 c 128,-1,52
 382 778 382 778 353 743.5 c 128,-1,53
 324 709 324 709 302 663.5 c 128,-1,54
 280 618 280 618 265 568 c 128,-1,55
 250 518 250 518 242.5 466.5 c 128,-1,56
 235 415 235 415 235 368 c 0,57,58
 235 303 235 303 248.5 251.5 c 128,-1,59
 262 200 262 200 285.5 164 c 128,-1,60
 309 128 309 128 342 108.5 c 128,-1,61
 375 89 375 89 414 89 c 0,62,63
 435 89 435 89 464 96.5 c 128,-1,64
 493 104 493 104 530.5 121.5 c 128,-1,65
 568 139 568 139 613 168 c 128,-1,66
 658 197 658 197 712 241 c 1,67,68
 720 230 720 230 732 214 c 128,-1,69
 744 198 744 198 749 190 c 1,70,71
 671 119 671 119 608 74 c 128,-1,72
 545 29 545 29 493 3 c 0,73,74
 445 -20 445 -20 405 -30 c 1,75,76
 401 -47 401 -47 398 -61 c 0,77,78
 392 -87 392 -87 386 -108 c 1,79,80
 441 -110 441 -110 472.5 -141 c 128,-1,81
 504 -172 504 -172 504 -221 c 0,0,1
EndSplineSet
Ligature2: "'ccmp' Glyph Composition/Decomposition lookup 3 subtable" c uni0327
EndChar

StartChar: dagger
Encoding: 8224 8224 130
Width: 891
Flags: W
LayerCount: 2
Fore
SplineSet
938 1087 m 1,0,1
 929 1070 929 1070 915.5 1046 c 128,-1,2
 902 1022 902 1022 886.5 996.5 c 128,-1,3
 871 971 871 971 855 946 c 128,-1,4
 839 921 839 921 825 902 c 1,5,6
 768 931 768 931 711 945.5 c 128,-1,7
 654 960 654 960 580 965 c 1,8,9
 572 896 572 896 573 822.5 c 128,-1,10
 574 749 574 749 585 680 c 1,11,12
 547 569 547 569 522 461.5 c 128,-1,13
 497 354 497 354 483 258 c 0,14,15
 475 200 475 200 472 136.5 c 128,-1,16
 469 73 469 73 472 12 c 1,17,18
 463 5 463 5 448 -2.5 c 128,-1,19
 433 -10 433 -10 416.5 -17 c 128,-1,20
 400 -24 400 -24 383 -30 c 2,21,-1
 356 -40 l 1,22,-1
 331 -17 l 1,23,24
 351 51 351 51 367.5 124 c 128,-1,25
 384 197 384 197 392 258 c 0,26,27
 404 357 404 357 408.5 463.5 c 128,-1,28
 413 570 413 570 405 680 c 1,29,30
 436 749 436 749 456 822.5 c 128,-1,31
 476 896 476 896 488 965 c 1,32,33
 404 960 404 960 327.5 944.5 c 128,-1,34
 251 929 251 929 166 902 c 1,35,-1
 148 948 l 1,36,37
 157 965 157 965 170.5 988.5 c 128,-1,38
 184 1012 184 1012 199.5 1037.5 c 128,-1,39
 215 1063 215 1063 231 1088 c 128,-1,40
 247 1113 247 1113 261 1132 c 1,41,42
 317 1104 317 1104 373.5 1090 c 128,-1,43
 430 1076 430 1076 502 1071 c 1,44,45
 510 1158 510 1158 507 1235.5 c 128,-1,46
 504 1313 504 1313 487 1386 c 1,47,48
 506 1398 506 1398 530.5 1411.5 c 128,-1,49
 555 1425 555 1425 579.5 1438 c 128,-1,50
 604 1451 604 1451 627 1462 c 128,-1,51
 650 1473 650 1473 666 1480 c 1,52,-1
 703 1453 l 1,53,54
 665 1360 665 1360 638.5 1262.5 c 128,-1,55
 612 1165 612 1165 595 1071 c 1,56,57
 680 1076 680 1076 757 1090.5 c 128,-1,58
 834 1105 834 1105 920 1132 c 1,59,-1
 938 1087 l 1,0,1
EndSplineSet
EndChar

StartChar: degree
Encoding: 176 176 131
Width: 642
Flags: W
LayerCount: 2
Fore
SplineSet
377 859 m 0,0,1
 409 859 409 859 434.5 875 c 128,-1,2
 460 891 460 891 477.5 915.5 c 128,-1,3
 495 940 495 940 504.5 969.5 c 128,-1,4
 514 999 514 999 514 1026 c 0,5,6
 514 1048 514 1048 509 1068 c 128,-1,7
 504 1088 504 1088 494 1103 c 128,-1,8
 484 1118 484 1118 469 1126.5 c 128,-1,9
 454 1135 454 1135 435 1135 c 0,10,11
 410 1135 410 1135 386 1122 c 128,-1,12
 362 1109 362 1109 342.5 1086.5 c 128,-1,13
 323 1064 323 1064 311 1033.5 c 128,-1,14
 299 1003 299 1003 299 969 c 0,15,16
 299 922 299 922 320 890.5 c 128,-1,17
 341 859 341 859 377 859 c 0,0,1
632 1073 m 0,18,19
 632 1002 632 1002 601 943 c 128,-1,20
 570 884 570 884 524.5 841.5 c 128,-1,21
 479 799 479 799 427.5 775.5 c 128,-1,22
 376 752 376 752 335 752 c 0,23,24
 298 752 298 752 269 765.5 c 128,-1,25
 240 779 240 779 220.5 801.5 c 128,-1,26
 201 824 201 824 191 854.5 c 128,-1,27
 181 885 181 885 181 918 c 0,28,29
 181 962 181 962 194.5 1003.5 c 128,-1,30
 208 1045 208 1045 230.5 1081 c 128,-1,31
 253 1117 253 1117 282.5 1147 c 128,-1,32
 312 1177 312 1177 345 1198.5 c 128,-1,33
 378 1220 378 1220 412 1231.5 c 128,-1,34
 446 1243 446 1243 477 1243 c 0,35,36
 511 1243 511 1243 540 1229.5 c 128,-1,37
 569 1216 569 1216 589 1193 c 128,-1,38
 609 1170 609 1170 620.5 1139 c 128,-1,39
 632 1108 632 1108 632 1073 c 0,18,19
EndSplineSet
EndChar

StartChar: cent
Encoding: 162 162 132
Width: 859
Flags: W
LayerCount: 2
Fore
SplineSet
273 510 m 0,0,1
 273 410 273 410 310.5 345 c 128,-1,2
 348 280 348 280 403 254 c 1,3,-1
 496 934 l 1,4,5
 443 917 443 917 401.5 872 c 128,-1,6
 360 827 360 827 331.5 767 c 128,-1,7
 303 707 303 707 288 639 c 128,-1,8
 273 571 273 571 273 510 c 0,0,1
602 1052 m 1,9,10
 627 1055 627 1055 651 1055 c 0,11,12
 696 1055 696 1055 733 1038.5 c 128,-1,13
 770 1022 770 1022 800 1001 c 128,-1,14
 830 980 830 980 853.5 960.5 c 128,-1,15
 877 941 877 941 894 936 c 1,16,17
 874 921 874 921 851 898.5 c 128,-1,18
 828 876 828 876 806 855.5 c 128,-1,19
 784 835 784 835 764 820.5 c 128,-1,20
 744 806 744 806 731 806 c 0,21,22
 720 806 720 806 708.5 823 c 128,-1,23
 697 840 697 840 681 862 c 128,-1,24
 665 884 665 884 642 905.5 c 128,-1,25
 619 927 619 927 586 936 c 1,26,-1
 491 238 l 1,27,28
 513 240 513 240 538.5 249.5 c 128,-1,29
 564 259 564 259 596 277.5 c 128,-1,30
 628 296 628 296 667.5 324.5 c 128,-1,31
 707 353 707 353 756 394 c 1,32,33
 764 381 764 381 776 365.5 c 128,-1,34
 788 350 788 350 793 341 c 1,35,36
 737 290 737 290 692 253 c 128,-1,37
 647 216 647 216 608.5 190.5 c 128,-1,38
 570 165 570 165 537.5 149 c 128,-1,39
 505 133 505 133 475 124 c 1,40,-1
 457 -11 l 1,41,42
 439 -27 439 -27 423 -34 c 128,-1,43
 407 -41 407 -41 384 -49 c 1,44,-1
 365 -27 l 1,45,-1
 384 111 l 1,46,-1
 377 111 l 2,47,48
 352 111 352 111 322 118 c 128,-1,49
 292 125 292 125 261 141.5 c 128,-1,50
 230 158 230 158 201 185.5 c 128,-1,51
 172 213 172 213 149.5 253 c 128,-1,52
 127 293 127 293 113 347 c 128,-1,53
 99 401 99 401 99 471 c 0,54,55
 99 538 99 538 114.5 606.5 c 128,-1,56
 130 675 130 675 163.5 740 c 128,-1,57
 197 805 197 805 249.5 864.5 c 128,-1,58
 302 924 302 924 376 973 c 0,59,60
 433 1010 433 1010 510 1033 c 1,61,-1
 530 1179 l 1,62,63
 543 1188 543 1188 550.5 1193.5 c 128,-1,64
 558 1199 558 1199 565 1203 c 128,-1,65
 572 1207 572 1207 580 1210 c 128,-1,66
 588 1213 588 1213 602 1217 c 1,67,-1
 622 1194 l 1,68,-1
 602 1052 l 1,9,10
EndSplineSet
EndChar

StartChar: sterling
Encoding: 163 163 133
Width: 859
Flags: W
LayerCount: 2
Fore
SplineSet
558 532 m 1,0,-1
 331 532 l 1,1,2
 318 401 318 401 274.5 294.5 c 128,-1,3
 231 188 231 188 172 114 c 1,4,5
 235 120 235 120 275 120 c 128,-1,6
 315 120 315 120 348 118 c 128,-1,7
 381 116 381 116 415 114 c 128,-1,8
 449 112 449 112 499 114 c 0,9,10
 541 115 541 115 572 121 c 128,-1,11
 603 127 603 127 629 145.5 c 128,-1,12
 655 164 655 164 678.5 198.5 c 128,-1,13
 702 233 702 233 729 292 c 1,14,-1
 775 272 l 1,15,16
 765 229 765 229 754 186.5 c 128,-1,17
 743 144 743 144 732 107.5 c 128,-1,18
 721 71 721 71 712 43 c 128,-1,19
 703 15 703 15 698 0 c 1,20,21
 654 -25 654 -25 596.5 -28 c 128,-1,22
 539 -31 539 -31 474 -24 c 128,-1,23
 409 -17 409 -17 340.5 -5.5 c 128,-1,24
 272 6 272 6 205.5 11 c 128,-1,25
 139 16 139 16 78 8.5 c 128,-1,26
 17 1 17 1 -32 -30 c 1,27,-1
 -49 27 l 1,28,29
 -18 52 -18 52 7 74 c 128,-1,30
 32 96 32 96 51 122 c 128,-1,31
 70 148 70 148 84.5 181 c 128,-1,32
 99 214 99 214 109.5 261.5 c 128,-1,33
 120 309 120 309 128.5 375 c 128,-1,34
 137 441 137 441 144 532 c 1,35,-1
 41 532 l 1,36,-1
 23 559 l 1,37,38
 29 574 29 574 39 595 c 128,-1,39
 49 616 49 616 57 632 c 1,40,-1
 153 632 l 1,41,42
 168 770 168 770 206 881.5 c 128,-1,43
 244 993 244 993 305 1071.5 c 128,-1,44
 366 1150 366 1150 448.5 1192.5 c 128,-1,45
 531 1235 531 1235 634 1235 c 0,46,47
 658 1235 658 1235 682.5 1233 c 128,-1,48
 707 1231 707 1231 734.5 1223.5 c 128,-1,49
 762 1216 762 1216 794 1202.5 c 128,-1,50
 826 1189 826 1189 865 1165 c 1,51,52
 860 1139 860 1139 851 1099 c 128,-1,53
 842 1059 842 1059 831.5 1017.5 c 128,-1,54
 821 976 821 976 810 939 c 128,-1,55
 799 902 799 902 791 883 c 1,56,-1
 738 883 l 1,57,58
 743 1008 743 1008 699 1068.5 c 128,-1,59
 655 1129 655 1129 566 1129 c 0,60,61
 544 1129 544 1129 520 1124 c 128,-1,62
 496 1119 496 1119 472.5 1102 c 128,-1,63
 449 1085 449 1085 427 1052.5 c 128,-1,64
 405 1020 405 1020 386.5 965 c 128,-1,65
 368 910 368 910 355 828.5 c 128,-1,66
 342 747 342 747 337 632 c 1,67,-1
 574 632 l 1,68,-1
 597 607 l 1,69,-1
 558 532 l 1,0,-1
EndSplineSet
EndChar

StartChar: section
Encoding: 167 167 134
Width: 884
Flags: W
LayerCount: 2
Fore
SplineSet
532 539 m 1,0,1
 553 526 553 526 575 512.5 c 128,-1,2
 597 499 597 499 618 484 c 1,3,4
 643 505 643 505 659.5 534.5 c 128,-1,5
 676 564 676 564 681 597 c 0,6,7
 687 645 687 645 676.5 682.5 c 128,-1,8
 666 720 666 720 638 754.5 c 128,-1,9
 610 789 610 789 564.5 823.5 c 128,-1,10
 519 858 519 858 456 899 c 0,11,12
 438 910 438 910 421.5 922.5 c 128,-1,13
 405 935 405 935 390 949 c 1,14,15
 376 939 376 939 364 924 c 128,-1,16
 352 909 352 909 342.5 891.5 c 128,-1,17
 333 874 333 874 327 856.5 c 128,-1,18
 321 839 321 839 319 824 c 0,19,20
 313 779 313 779 323 744.5 c 128,-1,21
 333 710 333 710 359.5 678 c 128,-1,22
 386 646 386 646 429 613 c 128,-1,23
 472 580 472 580 532 539 c 1,0,1
833 660 m 1,24,25
 820 573 820 573 781 509.5 c 128,-1,26
 742 446 742 446 695 409 c 1,27,28
 714 381 714 381 722.5 346.5 c 128,-1,29
 731 312 731 312 725 268 c 0,30,31
 715 197 715 197 690 147.5 c 128,-1,32
 665 98 665 98 630.5 65 c 128,-1,33
 596 32 596 32 557 13 c 128,-1,34
 518 -6 518 -6 480.5 -15.5 c 128,-1,35
 443 -25 443 -25 410.5 -27.5 c 128,-1,36
 378 -30 378 -30 358 -30 c 0,37,38
 334 -30 334 -30 306 -24 c 128,-1,39
 278 -18 278 -18 248 -7.5 c 128,-1,40
 218 3 218 3 188 18 c 128,-1,41
 158 33 158 33 131 51 c 0,42,43
 125 54 125 54 127 84.5 c 128,-1,44
 129 115 129 115 135 155.5 c 128,-1,45
 141 196 141 196 151 238.5 c 128,-1,46
 161 281 161 281 172 308 c 1,47,-1
 221 297 l 1,48,49
 219 251 219 251 232.5 211 c 128,-1,50
 246 171 246 171 271.5 141 c 128,-1,51
 297 111 297 111 333 93.5 c 128,-1,52
 369 76 369 76 413 76 c 0,53,54
 478 76 478 76 520 107 c 128,-1,55
 562 138 562 138 572 205 c 0,56,57
 578 245 578 245 561.5 274.5 c 128,-1,58
 545 304 545 304 516 328.5 c 128,-1,59
 487 353 487 353 449 375 c 128,-1,60
 411 397 411 397 374 422 c 0,61,62
 324 455 324 455 282.5 489.5 c 128,-1,63
 241 524 241 524 213 566 c 128,-1,64
 185 608 185 608 173 659.5 c 128,-1,65
 161 711 161 711 170 776 c 0,66,67
 175 813 175 813 190 847.5 c 128,-1,68
 205 882 205 882 227 913 c 128,-1,69
 249 944 249 944 275.5 969.5 c 128,-1,70
 302 995 302 995 331 1013 c 1,71,72
 305 1051 305 1051 292 1095 c 128,-1,73
 279 1139 279 1139 287 1193 c 0,74,75
 296 1255 296 1255 326.5 1301.5 c 128,-1,76
 357 1348 357 1348 401 1378.5 c 128,-1,77
 445 1409 445 1409 499 1424.5 c 128,-1,78
 553 1440 553 1440 607 1440 c 0,79,80
 638 1440 638 1440 673 1433.5 c 128,-1,81
 708 1427 708 1427 740 1415.5 c 128,-1,82
 772 1404 772 1404 799 1389 c 128,-1,83
 826 1374 826 1374 843 1356 c 0,84,85
 848 1350 848 1350 841 1326.5 c 128,-1,86
 834 1303 834 1303 821.5 1274.5 c 128,-1,87
 809 1246 809 1246 795 1220 c 128,-1,88
 781 1194 781 1194 772 1183 c 1,89,-1
 729 1191 l 1,90,91
 703 1269 703 1269 663.5 1307 c 128,-1,92
 624 1345 624 1345 574 1345 c 0,93,94
 517 1345 517 1345 481 1317.5 c 128,-1,95
 445 1290 445 1290 437 1240 c 0,96,97
 432 1206 432 1206 442.5 1178.5 c 128,-1,98
 453 1151 453 1151 476 1125.5 c 128,-1,99
 499 1100 499 1100 534 1074 c 128,-1,100
 569 1048 569 1048 615 1017 c 0,101,102
 665 982 665 982 708.5 949 c 128,-1,103
 752 916 752 916 783 875.5 c 128,-1,104
 814 835 814 835 828 783 c 128,-1,105
 842 731 842 731 833 660 c 1,24,25
EndSplineSet
EndChar

StartChar: bullet
Encoding: 8226 8226 135
Width: 528
Flags: W
LayerCount: 2
Fore
SplineSet
479 713 m 0,0,1
 479 657 479 657 461.5 599 c 128,-1,2
 444 541 444 541 410.5 494.5 c 128,-1,3
 377 448 377 448 328 418.5 c 128,-1,4
 279 389 279 389 215 389 c 0,5,6
 177 389 177 389 149 402 c 128,-1,7
 121 415 121 415 102.5 438 c 128,-1,8
 84 461 84 461 75 492 c 128,-1,9
 66 523 66 523 66 559 c 0,10,11
 66 615 66 615 84 673 c 128,-1,12
 102 731 102 731 136.5 778 c 128,-1,13
 171 825 171 825 220.5 855 c 128,-1,14
 270 885 270 885 332 885 c 0,15,16
 370 885 370 885 398 871.5 c 128,-1,17
 426 858 426 858 444 834.5 c 128,-1,18
 462 811 462 811 470.5 779.5 c 128,-1,19
 479 748 479 748 479 713 c 0,0,1
EndSplineSet
EndChar

StartChar: paragraph
Encoding: 182 182 136
Width: 1050
Flags: W
LayerCount: 2
Fore
SplineSet
819 1154 m 1,0,1
 784 1166 784 1166 748 1174 c 1,2,-1
 567 -135 l 2,3,4
 565 -146 565 -146 576.5 -154.5 c 128,-1,5
 588 -163 588 -163 597 -166 c 1,6,7
 608 -163 608 -163 622 -154.5 c 128,-1,8
 636 -146 636 -146 638 -135 c 2,9,-1
 819 1154 l 1,0,1
561 618 m 1,10,-1
 641 1191 l 1,11,12
 617 1194 617 1194 596 1195 c 128,-1,13
 575 1196 575 1196 558 1196 c 0,14,15
 506 1196 506 1196 458 1176.5 c 128,-1,16
 410 1157 410 1157 372 1122.5 c 128,-1,17
 334 1088 334 1088 308 1041 c 128,-1,18
 282 994 282 994 275 938 c 1,19,20
 267 884 267 884 275.5 827 c 128,-1,21
 284 770 284 770 312.5 723.5 c 128,-1,22
 341 677 341 677 392 647.5 c 128,-1,23
 443 618 443 618 519 618 c 2,24,-1
 561 618 l 1,10,-1
1068 1207 m 1,25,26
 1003 1193 1003 1193 966.5 1176 c 128,-1,27
 930 1159 930 1159 928 1145 c 2,28,-1
 749 -135 l 2,29,30
 747 -148 747 -148 777 -165.5 c 128,-1,31
 807 -183 807 -183 873 -197 c 1,32,-1
 865 -250 l 1,33,-1
 307 -250 l 1,34,-1
 315 -197 l 1,35,36
 379 -183 379 -183 415.5 -166 c 128,-1,37
 452 -149 452 -149 456 -135 c 1,38,-1
 549 530 l 1,39,40
 532 527 532 527 512 525.5 c 128,-1,41
 492 524 492 524 466 524 c 0,42,43
 376 524 376 524 300.5 548 c 128,-1,44
 225 572 225 572 173 619.5 c 128,-1,45
 121 667 121 667 97.5 738 c 128,-1,46
 74 809 74 809 87 903 c 0,47,48
 99 988 99 988 141 1059 c 128,-1,49
 183 1130 183 1130 247.5 1181.5 c 128,-1,50
 312 1233 312 1233 395.5 1261.5 c 128,-1,51
 479 1290 479 1290 576 1290 c 0,52,53
 596 1290 596 1290 625.5 1288.5 c 128,-1,54
 655 1287 655 1287 689.5 1285 c 128,-1,55
 724 1283 724 1283 761 1280.5 c 128,-1,56
 798 1278 798 1278 834 1275 c 0,57,58
 918 1268 918 1268 1012 1260 c 1,59,-1
 1075 1260 l 1,60,-1
 1068 1207 l 1,25,26
EndSplineSet
EndChar

StartChar: germandbls
Encoding: 223 223 137
Width: 1040
GlyphClass: 2
Flags: W
AnchorPoint: "Anchor-4" 1040 870 basechar 0
AnchorPoint: "Anchor-3" 400 -100 basechar 0
AnchorPoint: "Anchor-2" 400 -100 basechar 0
AnchorPoint: "Anchor-1" 400 -100 basechar 0
AnchorPoint: "Anchor-0" 638 1640 basechar 0
LayerCount: 2
Fore
SplineSet
985 1225 m 0,0,1
 985 1138 985 1138 959.5 1080 c 128,-1,2
 934 1022 934 1022 896 982.5 c 128,-1,3
 858 943 858 943 813 915.5 c 128,-1,4
 768 888 768 888 730 862.5 c 128,-1,5
 692 837 692 837 666.5 807 c 128,-1,6
 641 777 641 777 641 731 c 0,7,8
 641 695 641 695 665.5 666.5 c 128,-1,9
 690 638 690 638 727 611.5 c 128,-1,10
 764 585 764 585 807.5 557.5 c 128,-1,11
 851 530 851 530 888 495.5 c 128,-1,12
 925 461 925 461 949.5 416.5 c 128,-1,13
 974 372 974 372 974 311 c 0,14,15
 974 249 974 249 947.5 186.5 c 128,-1,16
 921 124 921 124 872.5 73.5 c 128,-1,17
 824 23 824 23 755.5 -9 c 128,-1,18
 687 -41 687 -41 603 -41 c 0,19,20
 561 -41 561 -41 518.5 -26 c 128,-1,21
 476 -11 476 -11 442 11 c 128,-1,22
 408 33 408 33 386.5 59 c 128,-1,23
 365 85 365 85 365 107 c 0,24,25
 365 117 365 117 377 140.5 c 128,-1,26
 389 164 389 164 406 188 c 128,-1,27
 423 212 423 212 441 230 c 128,-1,28
 459 248 459 248 470 248 c 0,29,30
 476 248 476 248 483.5 234.5 c 128,-1,31
 491 221 491 221 500.5 201 c 128,-1,32
 510 181 510 181 523 157.5 c 128,-1,33
 536 134 536 134 554.5 114 c 128,-1,34
 573 94 573 94 596.5 80.5 c 128,-1,35
 620 67 620 67 651 67 c 0,36,37
 721 67 721 67 764.5 108 c 128,-1,38
 808 149 808 149 808 233 c 0,39,40
 808 293 808 293 783.5 333.5 c 128,-1,41
 759 374 759 374 723 404.5 c 128,-1,42
 687 435 687 435 644 460 c 128,-1,43
 601 485 601 485 565 513.5 c 128,-1,44
 529 542 529 542 504.5 578.5 c 128,-1,45
 480 615 480 615 480 668 c 0,46,47
 480 742 480 742 504.5 788.5 c 128,-1,48
 529 835 529 835 566.5 867 c 128,-1,49
 604 899 604 899 647 923.5 c 128,-1,50
 690 948 690 948 727.5 977 c 128,-1,51
 765 1006 765 1006 789.5 1047 c 128,-1,52
 814 1088 814 1088 814 1153 c 0,53,54
 814 1198 814 1198 802 1240.5 c 128,-1,55
 790 1283 790 1283 766 1316 c 128,-1,56
 742 1349 742 1349 707 1369.5 c 128,-1,57
 672 1390 672 1390 627 1390 c 0,58,59
 569 1390 569 1390 523.5 1353 c 128,-1,60
 478 1316 478 1316 444.5 1254.5 c 128,-1,61
 411 1193 411 1193 389.5 1114 c 128,-1,62
 368 1035 368 1035 359 952 c 2,63,-1
 271 193 l 2,64,65
 258 82 258 82 222.5 -20.5 c 128,-1,66
 187 -123 187 -123 135 -211.5 c 128,-1,67
 83 -300 83 -300 17 -370 c 128,-1,68
 -49 -440 -49 -440 -123 -485 c 1,69,-1
 -155 -415 l 1,70,71
 -105 -387 -105 -387 -64 -328 c 128,-1,72
 -23 -269 -23 -269 7.5 -192.5 c 128,-1,73
 38 -116 38 -116 58 -29.5 c 128,-1,74
 78 57 78 57 87 139 c 2,75,-1
 175 899 l 2,76,77
 195 1064 195 1064 262.5 1197.5 c 128,-1,78
 330 1331 330 1331 458 1425 c 1,79,80
 513 1469 513 1469 577 1493.5 c 128,-1,81
 641 1518 641 1518 695 1518 c 0,82,83
 764 1518 764 1518 818 1492 c 128,-1,84
 872 1466 872 1466 909 1424 c 128,-1,85
 946 1382 946 1382 965.5 1329.5 c 128,-1,86
 985 1277 985 1277 985 1225 c 0,0,1
EndSplineSet
EndChar

StartChar: registered
Encoding: 174 174 138
Width: 704
Flags: W
LayerCount: 2
Fore
SplineSet
742 1084 m 0,0,1
 732 1010 732 1010 701 946 c 128,-1,2
 670 882 670 882 623 835 c 128,-1,3
 576 788 576 788 516 760.5 c 128,-1,4
 456 733 456 733 390 733 c 256,5,6
 324 733 324 733 272 760.5 c 128,-1,7
 220 788 220 788 186 835 c 128,-1,8
 152 882 152 882 138.5 946 c 128,-1,9
 125 1010 125 1010 135 1084 c 0,10,11
 145 1157 145 1157 176.5 1221 c 128,-1,12
 208 1285 208 1285 255 1332.5 c 128,-1,13
 302 1380 302 1380 361.5 1407.5 c 128,-1,14
 421 1435 421 1435 487 1435 c 256,15,16
 553 1435 553 1435 605.5 1407.5 c 128,-1,17
 658 1380 658 1380 691.5 1333 c 128,-1,18
 725 1286 725 1286 738.5 1221.5 c 128,-1,19
 752 1157 752 1157 742 1084 c 0,0,1
683 1084 m 0,20,21
 691 1143 691 1143 680.5 1196 c 128,-1,22
 670 1249 670 1249 642.5 1288.5 c 128,-1,23
 615 1328 615 1328 572 1351.5 c 128,-1,24
 529 1375 529 1375 474 1375 c 256,25,26
 419 1375 419 1375 371.5 1351.5 c 128,-1,27
 324 1328 324 1328 287 1288.5 c 128,-1,28
 250 1249 250 1249 226 1196 c 128,-1,29
 202 1143 202 1143 194 1084 c 0,30,31
 186 1024 186 1024 196.5 971.5 c 128,-1,32
 207 919 207 919 234 879 c 128,-1,33
 261 839 261 839 303.5 816 c 128,-1,34
 346 793 346 793 401 793 c 256,35,36
 456 793 456 793 504 816 c 128,-1,37
 552 839 552 839 589 879 c 128,-1,38
 626 919 626 919 650.5 971.5 c 128,-1,39
 675 1024 675 1024 683 1084 c 0,20,21
274 886 m 1,40,-1
 276 906 l 1,41,42
 315 915 315 915 317 925 c 2,43,-1
 361 1248 l 1,44,45
 351 1247 351 1247 342 1246 c 128,-1,46
 333 1245 333 1245 324 1243 c 1,47,-1
 326 1274 l 1,48,49
 353 1281 353 1281 383.5 1286.5 c 128,-1,50
 414 1292 414 1292 451 1292 c 0,51,52
 487 1292 487 1292 512 1283 c 128,-1,53
 537 1274 537 1274 553 1259 c 128,-1,54
 569 1244 569 1244 575.5 1225 c 128,-1,55
 582 1206 582 1206 579 1186 c 0,56,57
 572 1140 572 1140 543 1113 c 128,-1,58
 514 1086 514 1086 473 1075 c 1,59,-1
 546 937 l 2,60,61
 551 926 551 926 561 924.5 c 128,-1,62
 571 923 571 923 591 931 c 1,63,-1
 594 913 l 1,64,-1
 591 911 l 2,65,66
 583 906 583 906 572 901 c 2,67,-1
 550 891 l 2,68,69
 539 886 539 886 530 883 c 128,-1,70
 521 880 521 880 516 880 c 0,71,72
 508 880 508 880 500.5 886 c 128,-1,73
 493 892 493 892 491 898 c 2,74,-1
 421 1069 l 1,75,-1
 418 1069 l 2,76,77
 406 1069 406 1069 393 1072 c 1,78,-1
 373 925 l 2,79,80
 371 915 371 915 408 906 c 1,81,-1
 406 886 l 1,82,-1
 274 886 l 1,40,-1
436 1255 m 2,83,-1
 427 1255 l 2,84,85
 424 1255 424 1255 419 1254 c 1,86,-1
 398 1109 l 1,87,88
 404 1108 404 1108 409 1108 c 2,89,-1
 420 1108 l 2,90,91
 464 1108 464 1108 488 1123.5 c 128,-1,92
 512 1139 512 1139 517 1177 c 0,93,94
 519 1192 519 1192 516 1206 c 128,-1,95
 513 1220 513 1220 503.5 1231 c 128,-1,96
 494 1242 494 1242 477.5 1248.5 c 128,-1,97
 461 1255 461 1255 436 1255 c 2,83,-1
EndSplineSet
EndChar

StartChar: copyright
Encoding: 169 169 139
Width: 1360
Flags: W
LayerCount: 2
Fore
SplineSet
1024 942 m 1,0,1
 1006 930 1006 930 986 915.5 c 128,-1,2
 966 901 966 901 947 888.5 c 128,-1,3
 928 876 928 876 911 868 c 128,-1,4
 894 860 894 860 883 860 c 256,5,6
 872 860 872 860 857.5 875.5 c 128,-1,7
 843 891 843 891 824.5 909 c 128,-1,8
 806 927 806 927 781.5 942.5 c 128,-1,9
 757 958 757 958 725 958 c 0,10,11
 685 958 685 958 651 939.5 c 128,-1,12
 617 921 617 921 589 889.5 c 128,-1,13
 561 858 561 858 539.5 817 c 128,-1,14
 518 776 518 776 503.5 731.5 c 128,-1,15
 489 687 489 687 481.5 642.5 c 128,-1,16
 474 598 474 598 474 559 c 0,17,18
 474 504 474 504 490.5 461 c 128,-1,19
 507 418 507 418 535 388.5 c 128,-1,20
 563 359 563 359 599.5 343.5 c 128,-1,21
 636 328 636 328 677 328 c 0,22,23
 695 328 695 328 718.5 334.5 c 128,-1,24
 742 341 742 341 772 356 c 128,-1,25
 802 371 802 371 840 396 c 128,-1,26
 878 421 878 421 926 459 c 1,27,28
 934 448 934 448 944 436 c 128,-1,29
 954 424 954 424 959 416 c 1,30,31
 889 356 889 356 835.5 318 c 128,-1,32
 782 280 782 280 738.5 259 c 128,-1,33
 695 238 695 238 658.5 230.5 c 128,-1,34
 622 223 622 223 585 223 c 0,35,36
 550 223 550 223 506 237.5 c 128,-1,37
 462 252 462 252 422.5 286.5 c 128,-1,38
 383 321 383 321 356 379.5 c 128,-1,39
 329 438 329 438 329 526 c 0,40,41
 329 580 329 580 339.5 636.5 c 128,-1,42
 350 693 350 693 375.5 748.5 c 128,-1,43
 401 804 401 804 443.5 857.5 c 128,-1,44
 486 911 486 911 551 960 c 0,45,46
 574 978 574 978 605 993.5 c 128,-1,47
 636 1009 636 1009 670.5 1020.5 c 128,-1,48
 705 1032 705 1032 740.5 1038 c 128,-1,49
 776 1044 776 1044 809 1044 c 0,50,51
 852 1044 852 1044 885.5 1029.5 c 128,-1,52
 919 1015 919 1015 945 997 c 128,-1,53
 971 979 971 979 990 962.5 c 128,-1,54
 1009 946 1009 946 1024 942 c 1,0,1
1195 719 m 0,55,56
 1195 820 1195 820 1165 908 c 128,-1,57
 1135 996 1135 996 1079.5 1060.5 c 128,-1,58
 1024 1125 1024 1125 945 1162 c 128,-1,59
 866 1199 866 1199 768 1199 c 0,60,61
 684 1199 684 1199 607.5 1173 c 128,-1,62
 531 1147 531 1147 465 1101 c 128,-1,63
 399 1055 399 1055 346 992.5 c 128,-1,64
 293 930 293 930 255.5 857.5 c 128,-1,65
 218 785 218 785 197.5 705 c 128,-1,66
 177 625 177 625 177 545 c 0,67,68
 177 443 177 443 207 354.5 c 128,-1,69
 237 266 237 266 293 200.5 c 128,-1,70
 349 135 349 135 428.5 97.5 c 128,-1,71
 508 60 508 60 607 60 c 0,72,73
 692 60 692 60 768.5 86.5 c 128,-1,74
 845 113 845 113 910 159 c 128,-1,75
 975 205 975 205 1028 268 c 128,-1,76
 1081 331 1081 331 1118 404 c 128,-1,77
 1155 477 1155 477 1175 557.5 c 128,-1,78
 1195 638 1195 638 1195 719 c 0,55,56
1285 752 m 0,79,80
 1285 657 1285 657 1263 561.5 c 128,-1,81
 1241 466 1241 466 1198.5 378.5 c 128,-1,82
 1156 291 1156 291 1095.5 215 c 128,-1,83
 1035 139 1035 139 958.5 83.5 c 128,-1,84
 882 28 882 28 790 -4 c 128,-1,85
 698 -36 698 -36 594 -36 c 0,86,87
 478 -36 478 -36 384.5 8 c 128,-1,88
 291 52 291 52 225.5 128 c 128,-1,89
 160 204 160 204 124.5 306.5 c 128,-1,90
 89 409 89 409 89 526 c 0,91,92
 89 619 89 619 112 712.5 c 128,-1,93
 135 806 135 806 178.5 891.5 c 128,-1,94
 222 977 222 977 283.5 1050.5 c 128,-1,95
 345 1124 345 1124 421.5 1178.5 c 128,-1,96
 498 1233 498 1233 588.5 1264 c 128,-1,97
 679 1295 679 1295 779 1295 c 0,98,99
 894 1295 894 1295 987.5 1253.5 c 128,-1,100
 1081 1212 1081 1212 1147 1139 c 128,-1,101
 1213 1066 1213 1066 1249 966.5 c 128,-1,102
 1285 867 1285 867 1285 752 c 0,79,80
EndSplineSet
EndChar

